G04 (created by PCBNEW (2013-07-07 BZR 4022)-stable) date 3/3/2015 12:02:30 PM*
%MOIN*%
G04 Gerber Fmt 3.4, Leading zero omitted, Abs format*
%FSLAX34Y34*%
G01*
G70*
G90*
G04 APERTURE LIST*
%ADD10C,0.00590551*%
%ADD11C,0.015*%
%ADD12C,0.012*%
%ADD13C,0.006*%
%ADD14C,0.01*%
%ADD15C,0.01125*%
%ADD16C,0.008*%
%ADD17C,0.0108*%
G04 APERTURE END LIST*
G54D10*
G54D11*
X42145Y-73925D02*
X42645Y-73925D01*
X42645Y-73925D02*
X42645Y-72925D01*
X42645Y-72925D02*
X42145Y-72925D01*
X42145Y-74425D02*
X52145Y-74425D01*
X52145Y-74425D02*
X52145Y-72425D01*
X52145Y-72425D02*
X42145Y-72425D01*
X42145Y-72425D02*
X42145Y-74425D01*
X58688Y-73925D02*
X58688Y-73925D01*
X58688Y-73925D02*
X59188Y-73925D01*
X59188Y-73925D02*
X59188Y-72925D01*
X59188Y-72925D02*
X58688Y-72925D01*
X58688Y-74425D02*
X67688Y-74425D01*
X67688Y-74425D02*
X67688Y-72425D01*
X67688Y-72425D02*
X58688Y-72425D01*
X58688Y-72425D02*
X58688Y-74425D01*
X30549Y-77429D02*
X30299Y-77429D01*
X30299Y-77429D02*
X30299Y-81429D01*
X30299Y-81429D02*
X30549Y-81429D01*
X32049Y-77429D02*
X30549Y-77429D01*
X30549Y-77429D02*
X30549Y-81429D01*
X30549Y-81429D02*
X32049Y-81429D01*
X32049Y-81429D02*
X32049Y-77429D01*
X93442Y-77429D02*
X93192Y-77429D01*
X93192Y-77429D02*
X93192Y-81429D01*
X93192Y-81429D02*
X93442Y-81429D01*
X94942Y-77429D02*
X93442Y-77429D01*
X93442Y-77429D02*
X93442Y-81429D01*
X93442Y-81429D02*
X94942Y-81429D01*
X94942Y-81429D02*
X94942Y-77429D01*
G54D12*
X89952Y-38094D02*
X89952Y-40074D01*
X89952Y-40074D02*
X90952Y-40074D01*
X90952Y-40074D02*
X90952Y-38074D01*
X90952Y-38074D02*
X89952Y-38074D01*
X90202Y-38074D02*
X89952Y-38324D01*
X34870Y-40460D02*
X34870Y-38480D01*
X34870Y-38480D02*
X33870Y-38480D01*
X33870Y-38480D02*
X33870Y-40480D01*
X33870Y-40480D02*
X34870Y-40480D01*
X34620Y-40480D02*
X34870Y-40230D01*
X35933Y-77893D02*
X35933Y-72893D01*
X35933Y-72893D02*
X34933Y-72893D01*
X34933Y-72893D02*
X34933Y-77893D01*
X35433Y-72893D02*
X35433Y-72393D01*
X35433Y-78393D02*
X35433Y-77893D01*
X35633Y-77893D02*
X35933Y-77593D01*
X35933Y-77893D02*
X34933Y-77893D01*
G54D13*
X67240Y-78059D02*
X67240Y-77059D01*
X67240Y-77059D02*
X65240Y-77059D01*
X65240Y-77059D02*
X65240Y-78059D01*
X65240Y-78059D02*
X67240Y-78059D01*
G54D12*
X40755Y-47874D02*
X40755Y-42874D01*
X40755Y-42874D02*
X39755Y-42874D01*
X39755Y-42874D02*
X39755Y-47874D01*
X40255Y-42874D02*
X40255Y-42374D01*
X40255Y-48374D02*
X40255Y-47874D01*
X40455Y-47874D02*
X40755Y-47574D01*
X40755Y-47874D02*
X39755Y-47874D01*
X90362Y-77893D02*
X90362Y-72893D01*
X90362Y-72893D02*
X89362Y-72893D01*
X89362Y-72893D02*
X89362Y-77893D01*
X89862Y-72893D02*
X89862Y-72393D01*
X89862Y-78393D02*
X89862Y-77893D01*
X90062Y-77893D02*
X90362Y-77593D01*
X90362Y-77893D02*
X89362Y-77893D01*
X85326Y-72893D02*
X85326Y-77893D01*
X85326Y-77893D02*
X86326Y-77893D01*
X86326Y-77893D02*
X86326Y-72893D01*
X85826Y-77893D02*
X85826Y-78393D01*
X85826Y-72393D02*
X85826Y-72893D01*
X85626Y-72893D02*
X85326Y-73193D01*
X85326Y-72893D02*
X86326Y-72893D01*
X42724Y-47874D02*
X42724Y-42874D01*
X42724Y-42874D02*
X41724Y-42874D01*
X41724Y-42874D02*
X41724Y-47874D01*
X42224Y-42874D02*
X42224Y-42374D01*
X42224Y-48374D02*
X42224Y-47874D01*
X42424Y-47874D02*
X42724Y-47574D01*
X42724Y-47874D02*
X41724Y-47874D01*
X73417Y-72893D02*
X73417Y-77893D01*
X73417Y-77893D02*
X74417Y-77893D01*
X74417Y-77893D02*
X74417Y-72893D01*
X73917Y-77893D02*
X73917Y-78393D01*
X73917Y-72393D02*
X73917Y-72893D01*
X73717Y-72893D02*
X73417Y-73193D01*
X73417Y-72893D02*
X74417Y-72893D01*
X77551Y-72893D02*
X77551Y-77893D01*
X77551Y-77893D02*
X78551Y-77893D01*
X78551Y-77893D02*
X78551Y-72893D01*
X78051Y-77893D02*
X78051Y-78393D01*
X78051Y-72393D02*
X78051Y-72893D01*
X77851Y-72893D02*
X77551Y-73193D01*
X77551Y-72893D02*
X78551Y-72893D01*
X81685Y-72893D02*
X81685Y-77893D01*
X81685Y-77893D02*
X82685Y-77893D01*
X82685Y-77893D02*
X82685Y-72893D01*
X82185Y-77893D02*
X82185Y-78393D01*
X82185Y-72393D02*
X82185Y-72893D01*
X81985Y-72893D02*
X81685Y-73193D01*
X81685Y-72893D02*
X82685Y-72893D01*
X48728Y-47874D02*
X48728Y-42874D01*
X48728Y-42874D02*
X47728Y-42874D01*
X47728Y-42874D02*
X47728Y-47874D01*
X48228Y-42874D02*
X48228Y-42374D01*
X48228Y-48374D02*
X48228Y-47874D01*
X48428Y-47874D02*
X48728Y-47574D01*
X48728Y-47874D02*
X47728Y-47874D01*
X46759Y-47874D02*
X46759Y-42874D01*
X46759Y-42874D02*
X45759Y-42874D01*
X45759Y-42874D02*
X45759Y-47874D01*
X46259Y-42874D02*
X46259Y-42374D01*
X46259Y-48374D02*
X46259Y-47874D01*
X46459Y-47874D02*
X46759Y-47574D01*
X46759Y-47874D02*
X45759Y-47874D01*
G54D13*
X51688Y-77862D02*
X51688Y-76862D01*
X51688Y-76862D02*
X49688Y-76862D01*
X49688Y-76862D02*
X49688Y-77862D01*
X49688Y-77862D02*
X51688Y-77862D01*
G54D14*
X93736Y-41370D02*
X93436Y-41370D01*
X93436Y-41370D02*
X93436Y-37370D01*
X93436Y-37370D02*
X93736Y-37370D01*
X97036Y-41370D02*
X97036Y-37370D01*
X97036Y-37370D02*
X96636Y-37370D01*
X96636Y-37370D02*
X96636Y-41370D01*
X96636Y-41370D02*
X97036Y-41370D01*
X96736Y-41370D02*
X93736Y-41370D01*
X93736Y-37370D02*
X96736Y-37370D01*
X30594Y-37370D02*
X30894Y-37370D01*
X30894Y-37370D02*
X30894Y-41370D01*
X30894Y-41370D02*
X30594Y-41370D01*
X27294Y-37370D02*
X27294Y-41370D01*
X27294Y-41370D02*
X27694Y-41370D01*
X27694Y-41370D02*
X27694Y-37370D01*
X27694Y-37370D02*
X27294Y-37370D01*
X27594Y-37370D02*
X30594Y-37370D01*
X30594Y-41370D02*
X27594Y-41370D01*
G54D12*
X29027Y-66474D02*
X29327Y-66974D01*
X29327Y-66974D02*
X28727Y-66974D01*
X28727Y-66974D02*
X29027Y-66474D01*
X31227Y-70174D02*
X27827Y-70174D01*
X27827Y-70174D02*
X27827Y-45574D01*
X27827Y-45574D02*
X31227Y-45574D01*
X31227Y-45574D02*
X31227Y-70174D01*
X27827Y-58574D02*
X28127Y-58574D01*
X28127Y-58574D02*
X28127Y-67374D01*
X28127Y-67374D02*
X30927Y-67374D01*
X30927Y-67374D02*
X30927Y-48374D01*
X30927Y-48374D02*
X28127Y-48374D01*
X28127Y-48374D02*
X28127Y-57174D01*
X28127Y-57174D02*
X27827Y-57174D01*
X93988Y-66474D02*
X94288Y-66974D01*
X94288Y-66974D02*
X93688Y-66974D01*
X93688Y-66974D02*
X93988Y-66474D01*
X96188Y-70174D02*
X92788Y-70174D01*
X92788Y-70174D02*
X92788Y-45574D01*
X92788Y-45574D02*
X96188Y-45574D01*
X96188Y-45574D02*
X96188Y-70174D01*
X92788Y-58574D02*
X93088Y-58574D01*
X93088Y-58574D02*
X93088Y-67374D01*
X93088Y-67374D02*
X95888Y-67374D01*
X95888Y-67374D02*
X95888Y-48374D01*
X95888Y-48374D02*
X93088Y-48374D01*
X93088Y-48374D02*
X93088Y-57174D01*
X93088Y-57174D02*
X92788Y-57174D01*
X62877Y-50374D02*
X62877Y-66397D01*
X64877Y-50374D02*
X64877Y-66397D01*
X64852Y-50374D02*
X62872Y-50374D01*
X64877Y-66397D02*
X62877Y-66397D01*
G54D15*
X44488Y-73508D02*
X44488Y-74075D01*
X44467Y-74141D01*
X44445Y-74175D01*
X44402Y-74208D01*
X44317Y-74208D01*
X44274Y-74175D01*
X44252Y-74141D01*
X44231Y-74075D01*
X44231Y-73508D01*
X44038Y-73575D02*
X44017Y-73541D01*
X43974Y-73508D01*
X43867Y-73508D01*
X43824Y-73541D01*
X43802Y-73575D01*
X43781Y-73641D01*
X43781Y-73708D01*
X43802Y-73808D01*
X44059Y-74208D01*
X43781Y-74208D01*
G54D12*
G54D15*
X50742Y-72508D02*
X50742Y-73075D01*
X50720Y-73141D01*
X50699Y-73175D01*
X50656Y-73208D01*
X50570Y-73208D01*
X50527Y-73175D01*
X50506Y-73141D01*
X50484Y-73075D01*
X50484Y-72508D01*
X50056Y-73208D02*
X50270Y-73208D01*
X50270Y-72508D01*
X49906Y-73208D02*
X49906Y-72508D01*
X49649Y-73208D01*
X49649Y-72508D01*
X49456Y-72575D02*
X49434Y-72541D01*
X49392Y-72508D01*
X49284Y-72508D01*
X49242Y-72541D01*
X49220Y-72575D01*
X49199Y-72641D01*
X49199Y-72708D01*
X49220Y-72808D01*
X49477Y-73208D01*
X49199Y-73208D01*
X48942Y-72808D02*
X48984Y-72775D01*
X49006Y-72741D01*
X49027Y-72675D01*
X49027Y-72641D01*
X49006Y-72575D01*
X48984Y-72541D01*
X48942Y-72508D01*
X48856Y-72508D01*
X48813Y-72541D01*
X48792Y-72575D01*
X48770Y-72641D01*
X48770Y-72675D01*
X48792Y-72741D01*
X48813Y-72775D01*
X48856Y-72808D01*
X48942Y-72808D01*
X48984Y-72841D01*
X49006Y-72875D01*
X49027Y-72941D01*
X49027Y-73075D01*
X49006Y-73141D01*
X48984Y-73175D01*
X48942Y-73208D01*
X48856Y-73208D01*
X48813Y-73175D01*
X48792Y-73141D01*
X48770Y-73075D01*
X48770Y-72941D01*
X48792Y-72875D01*
X48813Y-72841D01*
X48856Y-72808D01*
X48492Y-72508D02*
X48449Y-72508D01*
X48406Y-72541D01*
X48384Y-72575D01*
X48363Y-72641D01*
X48342Y-72775D01*
X48342Y-72941D01*
X48363Y-73075D01*
X48384Y-73141D01*
X48406Y-73175D01*
X48449Y-73208D01*
X48492Y-73208D01*
X48534Y-73175D01*
X48556Y-73141D01*
X48577Y-73075D01*
X48599Y-72941D01*
X48599Y-72775D01*
X48577Y-72641D01*
X48556Y-72575D01*
X48534Y-72541D01*
X48492Y-72508D01*
X48192Y-72508D02*
X47913Y-72508D01*
X48063Y-72775D01*
X47999Y-72775D01*
X47956Y-72808D01*
X47934Y-72841D01*
X47913Y-72908D01*
X47913Y-73075D01*
X47934Y-73141D01*
X47956Y-73175D01*
X47999Y-73208D01*
X48127Y-73208D01*
X48170Y-73175D01*
X48192Y-73141D01*
X47742Y-73008D02*
X47527Y-73008D01*
X47784Y-73208D02*
X47634Y-72508D01*
X47484Y-73208D01*
G54D12*
G54D15*
X61031Y-73568D02*
X61031Y-74053D01*
X61010Y-74110D01*
X60988Y-74139D01*
X60946Y-74168D01*
X60860Y-74168D01*
X60817Y-74139D01*
X60796Y-74110D01*
X60774Y-74053D01*
X60774Y-73568D01*
X60324Y-74168D02*
X60581Y-74168D01*
X60453Y-74168D02*
X60453Y-73568D01*
X60496Y-73653D01*
X60538Y-73710D01*
X60581Y-73739D01*
G54D12*
G54D15*
X65785Y-72568D02*
X65785Y-73053D01*
X65763Y-73110D01*
X65742Y-73139D01*
X65699Y-73168D01*
X65613Y-73168D01*
X65571Y-73139D01*
X65549Y-73110D01*
X65528Y-73053D01*
X65528Y-72568D01*
X65099Y-73168D02*
X65313Y-73168D01*
X65313Y-72568D01*
X64949Y-73168D02*
X64949Y-72568D01*
X64692Y-73168D01*
X64692Y-72568D01*
X64499Y-72625D02*
X64478Y-72596D01*
X64435Y-72568D01*
X64328Y-72568D01*
X64285Y-72596D01*
X64263Y-72625D01*
X64242Y-72682D01*
X64242Y-72739D01*
X64263Y-72825D01*
X64521Y-73168D01*
X64242Y-73168D01*
X63963Y-72568D02*
X63921Y-72568D01*
X63878Y-72596D01*
X63856Y-72625D01*
X63835Y-72682D01*
X63813Y-72796D01*
X63813Y-72939D01*
X63835Y-73053D01*
X63856Y-73110D01*
X63878Y-73139D01*
X63921Y-73168D01*
X63963Y-73168D01*
X64006Y-73139D01*
X64028Y-73110D01*
X64049Y-73053D01*
X64071Y-72939D01*
X64071Y-72796D01*
X64049Y-72682D01*
X64028Y-72625D01*
X64006Y-72596D01*
X63963Y-72568D01*
X63535Y-72568D02*
X63492Y-72568D01*
X63449Y-72596D01*
X63428Y-72625D01*
X63406Y-72682D01*
X63385Y-72796D01*
X63385Y-72939D01*
X63406Y-73053D01*
X63428Y-73110D01*
X63449Y-73139D01*
X63492Y-73168D01*
X63535Y-73168D01*
X63578Y-73139D01*
X63599Y-73110D01*
X63621Y-73053D01*
X63642Y-72939D01*
X63642Y-72796D01*
X63621Y-72682D01*
X63599Y-72625D01*
X63578Y-72596D01*
X63535Y-72568D01*
X63235Y-72568D02*
X62956Y-72568D01*
X63106Y-72796D01*
X63042Y-72796D01*
X62999Y-72825D01*
X62978Y-72853D01*
X62956Y-72910D01*
X62956Y-73053D01*
X62978Y-73110D01*
X62999Y-73139D01*
X63042Y-73168D01*
X63171Y-73168D01*
X63213Y-73139D01*
X63235Y-73110D01*
X62785Y-72996D02*
X62571Y-72996D01*
X62828Y-73168D02*
X62678Y-72568D01*
X62528Y-73168D01*
G54D12*
G54D16*
X32849Y-79391D02*
X32820Y-79352D01*
X32763Y-79314D01*
X32677Y-79257D01*
X32649Y-79219D01*
X32649Y-79181D01*
X32792Y-79200D02*
X32763Y-79162D01*
X32706Y-79124D01*
X32592Y-79105D01*
X32392Y-79105D01*
X32277Y-79124D01*
X32220Y-79162D01*
X32192Y-79200D01*
X32192Y-79276D01*
X32220Y-79314D01*
X32277Y-79352D01*
X32392Y-79371D01*
X32592Y-79371D01*
X32706Y-79352D01*
X32763Y-79314D01*
X32792Y-79276D01*
X32792Y-79200D01*
X32249Y-79524D02*
X32220Y-79543D01*
X32192Y-79581D01*
X32192Y-79676D01*
X32220Y-79714D01*
X32249Y-79733D01*
X32306Y-79752D01*
X32363Y-79752D01*
X32449Y-79733D01*
X32792Y-79505D01*
X32792Y-79752D01*
X32030Y-76571D02*
X31801Y-76571D01*
X31915Y-77171D02*
X31915Y-76571D01*
X31668Y-77171D02*
X31668Y-76571D01*
X31477Y-77171D02*
X31477Y-76571D01*
X31325Y-76571D01*
X31287Y-76600D01*
X31268Y-76629D01*
X31249Y-76686D01*
X31249Y-76771D01*
X31268Y-76829D01*
X31287Y-76857D01*
X31325Y-76886D01*
X31477Y-76886D01*
X30868Y-77171D02*
X31096Y-77171D01*
X30982Y-77171D02*
X30982Y-76571D01*
X31020Y-76657D01*
X31058Y-76714D01*
X31096Y-76743D01*
X30715Y-76629D02*
X30696Y-76600D01*
X30658Y-76571D01*
X30563Y-76571D01*
X30525Y-76600D01*
X30506Y-76629D01*
X30487Y-76686D01*
X30487Y-76743D01*
X30506Y-76829D01*
X30734Y-77171D01*
X30487Y-77171D01*
X30353Y-76571D02*
X30087Y-76571D01*
X30258Y-77171D01*
X95742Y-79391D02*
X95714Y-79352D01*
X95657Y-79314D01*
X95571Y-79257D01*
X95542Y-79219D01*
X95542Y-79181D01*
X95685Y-79200D02*
X95657Y-79162D01*
X95600Y-79124D01*
X95485Y-79105D01*
X95285Y-79105D01*
X95171Y-79124D01*
X95114Y-79162D01*
X95085Y-79200D01*
X95085Y-79276D01*
X95114Y-79314D01*
X95171Y-79352D01*
X95285Y-79371D01*
X95485Y-79371D01*
X95600Y-79352D01*
X95657Y-79314D01*
X95685Y-79276D01*
X95685Y-79200D01*
X95685Y-79752D02*
X95685Y-79524D01*
X95685Y-79638D02*
X95085Y-79638D01*
X95171Y-79600D01*
X95228Y-79562D01*
X95257Y-79524D01*
X94923Y-76571D02*
X94695Y-76571D01*
X94809Y-77171D02*
X94809Y-76571D01*
X94561Y-77171D02*
X94561Y-76571D01*
X94371Y-77171D02*
X94371Y-76571D01*
X94219Y-76571D01*
X94181Y-76600D01*
X94161Y-76629D01*
X94142Y-76686D01*
X94142Y-76771D01*
X94161Y-76829D01*
X94181Y-76857D01*
X94219Y-76886D01*
X94371Y-76886D01*
X93761Y-77171D02*
X93990Y-77171D01*
X93876Y-77171D02*
X93876Y-76571D01*
X93914Y-76657D01*
X93952Y-76714D01*
X93990Y-76743D01*
X93609Y-76629D02*
X93590Y-76600D01*
X93552Y-76571D01*
X93457Y-76571D01*
X93419Y-76600D01*
X93400Y-76629D01*
X93381Y-76686D01*
X93381Y-76743D01*
X93400Y-76829D01*
X93628Y-77171D01*
X93381Y-77171D01*
X93247Y-76571D02*
X92981Y-76571D01*
X93152Y-77171D01*
X89676Y-39108D02*
X89695Y-39089D01*
X89714Y-39031D01*
X89714Y-38993D01*
X89695Y-38936D01*
X89657Y-38898D01*
X89619Y-38879D01*
X89543Y-38860D01*
X89486Y-38860D01*
X89409Y-38879D01*
X89371Y-38898D01*
X89333Y-38936D01*
X89314Y-38993D01*
X89314Y-39031D01*
X89333Y-39089D01*
X89352Y-39108D01*
X89714Y-39489D02*
X89714Y-39260D01*
X89714Y-39374D02*
X89314Y-39374D01*
X89371Y-39336D01*
X89409Y-39298D01*
X89428Y-39260D01*
X35393Y-39313D02*
X35412Y-39294D01*
X35431Y-39237D01*
X35431Y-39199D01*
X35412Y-39142D01*
X35374Y-39104D01*
X35336Y-39085D01*
X35260Y-39066D01*
X35203Y-39066D01*
X35127Y-39085D01*
X35089Y-39104D01*
X35051Y-39142D01*
X35031Y-39199D01*
X35031Y-39237D01*
X35051Y-39294D01*
X35070Y-39313D01*
X35070Y-39466D02*
X35051Y-39485D01*
X35031Y-39523D01*
X35031Y-39618D01*
X35051Y-39656D01*
X35070Y-39675D01*
X35108Y-39694D01*
X35146Y-39694D01*
X35203Y-39675D01*
X35431Y-39446D01*
X35431Y-39694D01*
X35655Y-75072D02*
X35393Y-74905D01*
X35655Y-74786D02*
X35105Y-74786D01*
X35105Y-74977D01*
X35131Y-75024D01*
X35158Y-75048D01*
X35210Y-75072D01*
X35289Y-75072D01*
X35341Y-75048D01*
X35367Y-75024D01*
X35393Y-74977D01*
X35393Y-74786D01*
X35655Y-75548D02*
X35655Y-75262D01*
X35655Y-75405D02*
X35105Y-75405D01*
X35184Y-75357D01*
X35236Y-75310D01*
X35262Y-75262D01*
X35105Y-75857D02*
X35105Y-75905D01*
X35131Y-75953D01*
X35158Y-75977D01*
X35210Y-76000D01*
X35315Y-76024D01*
X35446Y-76024D01*
X35550Y-76000D01*
X35603Y-75977D01*
X35629Y-75953D01*
X35655Y-75905D01*
X35655Y-75857D01*
X35629Y-75810D01*
X35603Y-75786D01*
X35550Y-75762D01*
X35446Y-75738D01*
X35315Y-75738D01*
X35210Y-75762D01*
X35158Y-75786D01*
X35131Y-75810D01*
X35105Y-75857D01*
G54D13*
X66461Y-76930D02*
X66461Y-76630D01*
X66347Y-76630D01*
X66318Y-76644D01*
X66304Y-76659D01*
X66290Y-76687D01*
X66290Y-76730D01*
X66304Y-76759D01*
X66318Y-76773D01*
X66347Y-76787D01*
X66461Y-76787D01*
X66175Y-76659D02*
X66161Y-76644D01*
X66133Y-76630D01*
X66061Y-76630D01*
X66033Y-76644D01*
X66018Y-76659D01*
X66004Y-76687D01*
X66004Y-76716D01*
X66018Y-76759D01*
X66190Y-76930D01*
X66004Y-76930D01*
G54D16*
X40478Y-45290D02*
X40216Y-45124D01*
X40478Y-45004D02*
X39928Y-45004D01*
X39928Y-45195D01*
X39954Y-45243D01*
X39980Y-45266D01*
X40033Y-45290D01*
X40111Y-45290D01*
X40164Y-45266D01*
X40190Y-45243D01*
X40216Y-45195D01*
X40216Y-45004D01*
X39928Y-45457D02*
X39928Y-45790D01*
X40478Y-45576D01*
X90084Y-75310D02*
X89822Y-75143D01*
X90084Y-75024D02*
X89534Y-75024D01*
X89534Y-75215D01*
X89561Y-75262D01*
X89587Y-75286D01*
X89639Y-75310D01*
X89718Y-75310D01*
X89770Y-75286D01*
X89796Y-75262D01*
X89822Y-75215D01*
X89822Y-75024D01*
X90084Y-75548D02*
X90084Y-75643D01*
X90058Y-75691D01*
X90032Y-75715D01*
X89953Y-75762D01*
X89849Y-75786D01*
X89639Y-75786D01*
X89587Y-75762D01*
X89561Y-75738D01*
X89534Y-75691D01*
X89534Y-75596D01*
X89561Y-75548D01*
X89587Y-75524D01*
X89639Y-75500D01*
X89770Y-75500D01*
X89822Y-75524D01*
X89849Y-75548D01*
X89875Y-75596D01*
X89875Y-75691D01*
X89849Y-75738D01*
X89822Y-75762D01*
X89770Y-75786D01*
X86049Y-75310D02*
X85787Y-75143D01*
X86049Y-75024D02*
X85499Y-75024D01*
X85499Y-75215D01*
X85525Y-75262D01*
X85551Y-75286D01*
X85604Y-75310D01*
X85682Y-75310D01*
X85735Y-75286D01*
X85761Y-75262D01*
X85787Y-75215D01*
X85787Y-75024D01*
X85735Y-75596D02*
X85708Y-75548D01*
X85682Y-75524D01*
X85630Y-75500D01*
X85604Y-75500D01*
X85551Y-75524D01*
X85525Y-75548D01*
X85499Y-75596D01*
X85499Y-75691D01*
X85525Y-75738D01*
X85551Y-75762D01*
X85604Y-75786D01*
X85630Y-75786D01*
X85682Y-75762D01*
X85708Y-75738D01*
X85735Y-75691D01*
X85735Y-75596D01*
X85761Y-75548D01*
X85787Y-75524D01*
X85839Y-75500D01*
X85944Y-75500D01*
X85997Y-75524D01*
X86023Y-75548D01*
X86049Y-75596D01*
X86049Y-75691D01*
X86023Y-75738D01*
X85997Y-75762D01*
X85944Y-75786D01*
X85839Y-75786D01*
X85787Y-75762D01*
X85761Y-75738D01*
X85735Y-75691D01*
X42447Y-45290D02*
X42185Y-45124D01*
X42447Y-45004D02*
X41897Y-45004D01*
X41897Y-45195D01*
X41923Y-45243D01*
X41949Y-45266D01*
X42001Y-45290D01*
X42080Y-45290D01*
X42132Y-45266D01*
X42158Y-45243D01*
X42185Y-45195D01*
X42185Y-45004D01*
X41897Y-45719D02*
X41897Y-45624D01*
X41923Y-45576D01*
X41949Y-45552D01*
X42027Y-45504D01*
X42132Y-45481D01*
X42342Y-45481D01*
X42394Y-45504D01*
X42420Y-45528D01*
X42447Y-45576D01*
X42447Y-45671D01*
X42420Y-45719D01*
X42394Y-45743D01*
X42342Y-45766D01*
X42211Y-45766D01*
X42158Y-45743D01*
X42132Y-45719D01*
X42106Y-45671D01*
X42106Y-45576D01*
X42132Y-45528D01*
X42158Y-45504D01*
X42211Y-45481D01*
X74139Y-75310D02*
X73878Y-75143D01*
X74139Y-75024D02*
X73589Y-75024D01*
X73589Y-75215D01*
X73616Y-75262D01*
X73642Y-75286D01*
X73694Y-75310D01*
X73773Y-75310D01*
X73825Y-75286D01*
X73851Y-75262D01*
X73878Y-75215D01*
X73878Y-75024D01*
X73589Y-75762D02*
X73589Y-75524D01*
X73851Y-75500D01*
X73825Y-75524D01*
X73799Y-75572D01*
X73799Y-75691D01*
X73825Y-75738D01*
X73851Y-75762D01*
X73904Y-75786D01*
X74035Y-75786D01*
X74087Y-75762D01*
X74113Y-75738D01*
X74139Y-75691D01*
X74139Y-75572D01*
X74113Y-75524D01*
X74087Y-75500D01*
X78273Y-75310D02*
X78011Y-75143D01*
X78273Y-75024D02*
X77723Y-75024D01*
X77723Y-75215D01*
X77749Y-75262D01*
X77776Y-75286D01*
X77828Y-75310D01*
X77907Y-75310D01*
X77959Y-75286D01*
X77985Y-75262D01*
X78011Y-75215D01*
X78011Y-75024D01*
X77907Y-75738D02*
X78273Y-75738D01*
X77697Y-75619D02*
X78090Y-75500D01*
X78090Y-75810D01*
X82407Y-75310D02*
X82145Y-75143D01*
X82407Y-75024D02*
X81857Y-75024D01*
X81857Y-75215D01*
X81883Y-75262D01*
X81910Y-75286D01*
X81962Y-75310D01*
X82040Y-75310D01*
X82093Y-75286D01*
X82119Y-75262D01*
X82145Y-75215D01*
X82145Y-75024D01*
X81857Y-75477D02*
X81857Y-75786D01*
X82067Y-75619D01*
X82067Y-75691D01*
X82093Y-75738D01*
X82119Y-75762D01*
X82171Y-75786D01*
X82302Y-75786D01*
X82355Y-75762D01*
X82381Y-75738D01*
X82407Y-75691D01*
X82407Y-75548D01*
X82381Y-75500D01*
X82355Y-75477D01*
X48450Y-45290D02*
X48189Y-45124D01*
X48450Y-45004D02*
X47900Y-45004D01*
X47900Y-45195D01*
X47927Y-45243D01*
X47953Y-45266D01*
X48005Y-45290D01*
X48084Y-45290D01*
X48136Y-45266D01*
X48162Y-45243D01*
X48189Y-45195D01*
X48189Y-45004D01*
X47953Y-45481D02*
X47927Y-45504D01*
X47900Y-45552D01*
X47900Y-45671D01*
X47927Y-45719D01*
X47953Y-45743D01*
X48005Y-45766D01*
X48058Y-45766D01*
X48136Y-45743D01*
X48450Y-45457D01*
X48450Y-45766D01*
X46482Y-45290D02*
X46220Y-45124D01*
X46482Y-45004D02*
X45932Y-45004D01*
X45932Y-45195D01*
X45958Y-45243D01*
X45984Y-45266D01*
X46037Y-45290D01*
X46115Y-45290D01*
X46168Y-45266D01*
X46194Y-45243D01*
X46220Y-45195D01*
X46220Y-45004D01*
X46482Y-45766D02*
X46482Y-45481D01*
X46482Y-45624D02*
X45932Y-45624D01*
X46011Y-45576D01*
X46063Y-45528D01*
X46089Y-45481D01*
G54D13*
X50910Y-76733D02*
X50910Y-76433D01*
X50796Y-76433D01*
X50767Y-76447D01*
X50753Y-76462D01*
X50738Y-76490D01*
X50738Y-76533D01*
X50753Y-76562D01*
X50767Y-76576D01*
X50796Y-76590D01*
X50910Y-76590D01*
X50481Y-76533D02*
X50481Y-76733D01*
X50553Y-76419D02*
X50624Y-76633D01*
X50438Y-76633D01*
G54D12*
X93179Y-38927D02*
X92579Y-38927D01*
X92579Y-39155D01*
X92607Y-39212D01*
X92636Y-39241D01*
X92693Y-39270D01*
X92779Y-39270D01*
X92836Y-39241D01*
X92864Y-39212D01*
X92893Y-39155D01*
X92893Y-38927D01*
X92579Y-39784D02*
X92579Y-39670D01*
X92607Y-39612D01*
X92636Y-39584D01*
X92721Y-39527D01*
X92836Y-39498D01*
X93064Y-39498D01*
X93121Y-39527D01*
X93150Y-39555D01*
X93179Y-39612D01*
X93179Y-39727D01*
X93150Y-39784D01*
X93121Y-39812D01*
X93064Y-39841D01*
X92921Y-39841D01*
X92864Y-39812D01*
X92836Y-39784D01*
X92807Y-39727D01*
X92807Y-39612D01*
X92836Y-39555D01*
X92864Y-39527D01*
X92921Y-39498D01*
X97721Y-38098D02*
X97750Y-38070D01*
X97779Y-37984D01*
X97779Y-37927D01*
X97750Y-37841D01*
X97693Y-37784D01*
X97636Y-37755D01*
X97521Y-37727D01*
X97436Y-37727D01*
X97321Y-37755D01*
X97264Y-37784D01*
X97207Y-37841D01*
X97179Y-37927D01*
X97179Y-37984D01*
X97207Y-38070D01*
X97236Y-38098D01*
X97179Y-38470D02*
X97179Y-38584D01*
X97207Y-38641D01*
X97264Y-38698D01*
X97379Y-38727D01*
X97579Y-38727D01*
X97693Y-38698D01*
X97750Y-38641D01*
X97779Y-38584D01*
X97779Y-38470D01*
X97750Y-38412D01*
X97693Y-38355D01*
X97579Y-38327D01*
X97379Y-38327D01*
X97264Y-38355D01*
X97207Y-38412D01*
X97179Y-38470D01*
X97779Y-38984D02*
X97179Y-38984D01*
X97779Y-39327D01*
X97179Y-39327D01*
X97779Y-39612D02*
X97179Y-39612D01*
X97779Y-39955D01*
X97179Y-39955D01*
X97836Y-40098D02*
X97836Y-40555D01*
X97236Y-40670D02*
X97207Y-40698D01*
X97179Y-40755D01*
X97179Y-40898D01*
X97207Y-40955D01*
X97236Y-40984D01*
X97293Y-41012D01*
X97350Y-41012D01*
X97436Y-40984D01*
X97779Y-40641D01*
X97779Y-41012D01*
X31637Y-38927D02*
X31037Y-38927D01*
X31037Y-39155D01*
X31065Y-39212D01*
X31094Y-39241D01*
X31151Y-39270D01*
X31237Y-39270D01*
X31294Y-39241D01*
X31323Y-39212D01*
X31351Y-39155D01*
X31351Y-38927D01*
X31037Y-39470D02*
X31037Y-39870D01*
X31637Y-39612D01*
X26980Y-38098D02*
X27008Y-38070D01*
X27037Y-37984D01*
X27037Y-37927D01*
X27008Y-37841D01*
X26951Y-37784D01*
X26894Y-37755D01*
X26780Y-37727D01*
X26694Y-37727D01*
X26580Y-37755D01*
X26523Y-37784D01*
X26465Y-37841D01*
X26437Y-37927D01*
X26437Y-37984D01*
X26465Y-38070D01*
X26494Y-38098D01*
X26437Y-38470D02*
X26437Y-38584D01*
X26465Y-38641D01*
X26523Y-38698D01*
X26637Y-38727D01*
X26837Y-38727D01*
X26951Y-38698D01*
X27008Y-38641D01*
X27037Y-38584D01*
X27037Y-38470D01*
X27008Y-38412D01*
X26951Y-38355D01*
X26837Y-38327D01*
X26637Y-38327D01*
X26523Y-38355D01*
X26465Y-38412D01*
X26437Y-38470D01*
X27037Y-38984D02*
X26437Y-38984D01*
X27037Y-39327D01*
X26437Y-39327D01*
X27037Y-39612D02*
X26437Y-39612D01*
X27037Y-39955D01*
X26437Y-39955D01*
X27094Y-40098D02*
X27094Y-40555D01*
X26494Y-40670D02*
X26465Y-40698D01*
X26437Y-40755D01*
X26437Y-40898D01*
X26465Y-40955D01*
X26494Y-40984D01*
X26551Y-41012D01*
X26608Y-41012D01*
X26694Y-40984D01*
X27037Y-40641D01*
X27037Y-41012D01*
G54D14*
X32070Y-61078D02*
X31470Y-61078D01*
X31470Y-61231D01*
X31498Y-61269D01*
X31527Y-61288D01*
X31584Y-61307D01*
X31670Y-61307D01*
X31727Y-61288D01*
X31756Y-61269D01*
X31784Y-61231D01*
X31784Y-61078D01*
X32070Y-61688D02*
X32070Y-61459D01*
X32070Y-61574D02*
X31470Y-61574D01*
X31556Y-61535D01*
X31613Y-61497D01*
X31641Y-61459D01*
G54D12*
G54D14*
X32013Y-52854D02*
X32041Y-52835D01*
X32070Y-52778D01*
X32070Y-52740D01*
X32041Y-52683D01*
X31984Y-52645D01*
X31927Y-52626D01*
X31813Y-52607D01*
X31727Y-52607D01*
X31613Y-52626D01*
X31556Y-52645D01*
X31498Y-52683D01*
X31470Y-52740D01*
X31470Y-52778D01*
X31498Y-52835D01*
X31527Y-52854D01*
X31470Y-53102D02*
X31470Y-53178D01*
X31498Y-53216D01*
X31556Y-53254D01*
X31670Y-53274D01*
X31870Y-53274D01*
X31984Y-53254D01*
X32041Y-53216D01*
X32070Y-53178D01*
X32070Y-53102D01*
X32041Y-53064D01*
X31984Y-53026D01*
X31870Y-53007D01*
X31670Y-53007D01*
X31556Y-53026D01*
X31498Y-53064D01*
X31470Y-53102D01*
X32070Y-53445D02*
X31470Y-53445D01*
X32070Y-53674D01*
X31470Y-53674D01*
X32070Y-53864D02*
X31470Y-53864D01*
X32070Y-54093D01*
X31470Y-54093D01*
X32127Y-54188D02*
X32127Y-54493D01*
X31527Y-54569D02*
X31498Y-54588D01*
X31470Y-54626D01*
X31470Y-54721D01*
X31498Y-54759D01*
X31527Y-54778D01*
X31584Y-54797D01*
X31641Y-54797D01*
X31727Y-54778D01*
X32070Y-54550D01*
X32070Y-54797D01*
X31470Y-55045D02*
X31470Y-55083D01*
X31498Y-55121D01*
X31527Y-55140D01*
X31584Y-55159D01*
X31698Y-55178D01*
X31841Y-55178D01*
X31956Y-55159D01*
X32013Y-55140D01*
X32041Y-55121D01*
X32070Y-55083D01*
X32070Y-55045D01*
X32041Y-55007D01*
X32013Y-54988D01*
X31956Y-54969D01*
X31841Y-54950D01*
X31698Y-54950D01*
X31584Y-54969D01*
X31527Y-54988D01*
X31498Y-55007D01*
X31470Y-55045D01*
X31470Y-55312D02*
X32070Y-55578D01*
X31470Y-55578D02*
X32070Y-55312D01*
X31527Y-55712D02*
X31498Y-55731D01*
X31470Y-55769D01*
X31470Y-55864D01*
X31498Y-55902D01*
X31527Y-55921D01*
X31584Y-55940D01*
X31641Y-55940D01*
X31727Y-55921D01*
X32070Y-55693D01*
X32070Y-55940D01*
G54D12*
G54D14*
X97031Y-61078D02*
X96431Y-61078D01*
X96431Y-61231D01*
X96459Y-61269D01*
X96488Y-61288D01*
X96545Y-61307D01*
X96631Y-61307D01*
X96688Y-61288D01*
X96716Y-61269D01*
X96745Y-61231D01*
X96745Y-61078D01*
X96431Y-61440D02*
X96431Y-61688D01*
X96659Y-61554D01*
X96659Y-61612D01*
X96688Y-61650D01*
X96716Y-61669D01*
X96773Y-61688D01*
X96916Y-61688D01*
X96973Y-61669D01*
X97002Y-61650D01*
X97031Y-61612D01*
X97031Y-61497D01*
X97002Y-61459D01*
X96973Y-61440D01*
G54D12*
G54D14*
X96973Y-52854D02*
X97002Y-52835D01*
X97031Y-52778D01*
X97031Y-52740D01*
X97002Y-52683D01*
X96945Y-52645D01*
X96888Y-52626D01*
X96773Y-52607D01*
X96688Y-52607D01*
X96573Y-52626D01*
X96516Y-52645D01*
X96459Y-52683D01*
X96431Y-52740D01*
X96431Y-52778D01*
X96459Y-52835D01*
X96488Y-52854D01*
X96431Y-53102D02*
X96431Y-53178D01*
X96459Y-53216D01*
X96516Y-53254D01*
X96631Y-53274D01*
X96831Y-53274D01*
X96945Y-53254D01*
X97002Y-53216D01*
X97031Y-53178D01*
X97031Y-53102D01*
X97002Y-53064D01*
X96945Y-53026D01*
X96831Y-53007D01*
X96631Y-53007D01*
X96516Y-53026D01*
X96459Y-53064D01*
X96431Y-53102D01*
X97031Y-53445D02*
X96431Y-53445D01*
X97031Y-53674D01*
X96431Y-53674D01*
X97031Y-53864D02*
X96431Y-53864D01*
X97031Y-54093D01*
X96431Y-54093D01*
X97088Y-54188D02*
X97088Y-54493D01*
X96488Y-54569D02*
X96459Y-54588D01*
X96431Y-54626D01*
X96431Y-54721D01*
X96459Y-54759D01*
X96488Y-54778D01*
X96545Y-54797D01*
X96602Y-54797D01*
X96688Y-54778D01*
X97031Y-54550D01*
X97031Y-54797D01*
X96431Y-55045D02*
X96431Y-55083D01*
X96459Y-55121D01*
X96488Y-55140D01*
X96545Y-55159D01*
X96659Y-55178D01*
X96802Y-55178D01*
X96916Y-55159D01*
X96973Y-55140D01*
X97002Y-55121D01*
X97031Y-55083D01*
X97031Y-55045D01*
X97002Y-55007D01*
X96973Y-54988D01*
X96916Y-54969D01*
X96802Y-54950D01*
X96659Y-54950D01*
X96545Y-54969D01*
X96488Y-54988D01*
X96459Y-55007D01*
X96431Y-55045D01*
X96431Y-55312D02*
X97031Y-55578D01*
X96431Y-55578D02*
X97031Y-55312D01*
X96488Y-55712D02*
X96459Y-55731D01*
X96431Y-55769D01*
X96431Y-55864D01*
X96459Y-55902D01*
X96488Y-55921D01*
X96545Y-55940D01*
X96602Y-55940D01*
X96688Y-55921D01*
X97031Y-55693D01*
X97031Y-55940D01*
G54D12*
G54D14*
X65539Y-56102D02*
X65139Y-56102D01*
X65139Y-56254D01*
X65158Y-56292D01*
X65177Y-56311D01*
X65216Y-56330D01*
X65273Y-56330D01*
X65311Y-56311D01*
X65330Y-56292D01*
X65349Y-56254D01*
X65349Y-56102D01*
X65139Y-56692D02*
X65139Y-56502D01*
X65330Y-56483D01*
X65311Y-56502D01*
X65292Y-56540D01*
X65292Y-56635D01*
X65311Y-56673D01*
X65330Y-56692D01*
X65368Y-56711D01*
X65463Y-56711D01*
X65501Y-56692D01*
X65520Y-56673D01*
X65539Y-56635D01*
X65539Y-56540D01*
X65520Y-56502D01*
X65501Y-56483D01*
G54D17*
G54D16*
X62501Y-54978D02*
X62520Y-54959D01*
X62539Y-54902D01*
X62539Y-54864D01*
X62520Y-54807D01*
X62482Y-54769D01*
X62444Y-54750D01*
X62368Y-54730D01*
X62311Y-54730D01*
X62235Y-54750D01*
X62197Y-54769D01*
X62158Y-54807D01*
X62139Y-54864D01*
X62139Y-54902D01*
X62158Y-54959D01*
X62177Y-54978D01*
X62139Y-55226D02*
X62139Y-55302D01*
X62158Y-55340D01*
X62197Y-55378D01*
X62273Y-55397D01*
X62406Y-55397D01*
X62482Y-55378D01*
X62520Y-55340D01*
X62539Y-55302D01*
X62539Y-55226D01*
X62520Y-55188D01*
X62482Y-55150D01*
X62406Y-55130D01*
X62273Y-55130D01*
X62197Y-55150D01*
X62158Y-55188D01*
X62139Y-55226D01*
X62539Y-55569D02*
X62139Y-55569D01*
X62539Y-55797D01*
X62139Y-55797D01*
X62539Y-55988D02*
X62139Y-55988D01*
X62539Y-56216D01*
X62139Y-56216D01*
X62577Y-56311D02*
X62577Y-56616D01*
X62539Y-56921D02*
X62539Y-56692D01*
X62539Y-56807D02*
X62139Y-56807D01*
X62197Y-56769D01*
X62235Y-56730D01*
X62254Y-56692D01*
X62139Y-57264D02*
X62139Y-57188D01*
X62158Y-57150D01*
X62177Y-57130D01*
X62235Y-57092D01*
X62311Y-57073D01*
X62463Y-57073D01*
X62501Y-57092D01*
X62520Y-57111D01*
X62539Y-57150D01*
X62539Y-57226D01*
X62520Y-57264D01*
X62501Y-57283D01*
X62463Y-57302D01*
X62368Y-57302D01*
X62330Y-57283D01*
X62311Y-57264D01*
X62292Y-57226D01*
X62292Y-57150D01*
X62311Y-57111D01*
X62330Y-57092D01*
X62368Y-57073D01*
X62139Y-57435D02*
X62539Y-57702D01*
X62139Y-57702D02*
X62539Y-57435D01*
X62177Y-57835D02*
X62158Y-57854D01*
X62139Y-57892D01*
X62139Y-57988D01*
X62158Y-58026D01*
X62177Y-58045D01*
X62216Y-58064D01*
X62254Y-58064D01*
X62311Y-58045D01*
X62539Y-57816D01*
X62539Y-58064D01*
M02*
