M48
;DRILL file {Pcbnew (2013-07-07 BZR 4022)-stable} date 6/9/2015 5:45:09 PM
;FORMAT={-:-/ absolute / inch / decimal}
FMAT,2
INCH,TZ
T1C0.025
T2C0.032
T3C0.036
T4C0.040
T5C0.045
T6C0.106
T7C0.157
%
G90
G05
M72
T1
X4.36Y-6.33
X4.45Y-6.22
X4.55Y-6.11
X4.65Y-6.
X4.76Y-5.92
X4.86Y-5.8
X4.94Y-5.71
X5.05Y-5.61
X7.378Y-8.3169
T2
X4.3146Y-7.1925
X4.3146Y-7.4925
X4.4146Y-7.1925
X4.4146Y-7.4925
X4.5146Y-7.1925
X4.5146Y-7.4925
X4.6146Y-7.1925
X4.6146Y-7.4925
X4.7146Y-7.1925
X4.7146Y-7.4925
X4.8146Y-7.1925
X4.8146Y-7.4925
X4.9146Y-7.1925
X4.9146Y-7.4925
X5.0146Y-7.1925
X5.0146Y-7.4925
X5.1146Y-7.1925
X5.1146Y-7.4925
X5.98Y-5.4
X5.98Y-5.5
X6.71Y-5.6
X6.71Y-5.7
X6.71Y-5.8
X6.71Y-5.9
X6.71Y-6.
X6.71Y-6.1
X6.71Y-6.2
X6.71Y-6.3
X6.81Y-5.6
X6.81Y-5.7
X6.81Y-5.8
X6.81Y-5.9
X6.81Y-6.
X6.81Y-6.1
X6.81Y-6.2
X6.81Y-6.3
X8.15Y-5.6
X8.15Y-5.7
X8.15Y-5.8
X8.15Y-5.9
X8.15Y-6.
X8.15Y-6.1
X8.15Y-6.2
X8.15Y-6.3
X8.45Y-5.6
X8.45Y-5.7
X8.45Y-5.8
X8.45Y-5.9
X8.45Y-6.
X8.45Y-6.1
X8.45Y-6.2
X8.45Y-6.3
T3
X4.0213Y-3.9319
X4.0213Y-8.1445
X4.2213Y-3.9319
X4.2213Y-8.1445
X4.4213Y-3.9319
X4.4213Y-8.1445
X4.6213Y-3.9319
X4.6213Y-8.1445
X4.8213Y-3.9319
X4.8213Y-8.1445
X5.37Y-5.4
X5.37Y-5.5
X5.37Y-5.6
X5.37Y-5.7
X5.37Y-5.8
X5.37Y-5.9
X5.37Y-6.
X5.37Y-6.1
X5.37Y-6.2
X5.37Y-6.3
X5.47Y-5.4
X5.47Y-5.5
X5.47Y-5.6
X5.47Y-5.7
X5.47Y-5.8
X5.47Y-5.9
X5.47Y-6.
X5.47Y-6.1
X5.47Y-6.2
X5.47Y-6.3
X7.6039Y-3.9319
X7.6039Y-8.1445
X7.8039Y-3.9319
X7.8039Y-8.1445
X8.0039Y-3.9319
X8.0039Y-8.1445
X8.2039Y-3.9319
X8.2039Y-8.1445
X8.4039Y-3.9319
X8.4039Y-8.1445
T4
X3.1299Y-7.8429
X3.1299Y-7.9429
X3.1299Y-8.0429
X5.41Y-7.33
X5.41Y-7.43
X8.72Y-5.61
X8.72Y-5.71
X9.4193Y-7.8429
X9.4193Y-7.9429
X9.4193Y-8.0429
T5
X3.5433Y-7.2394
X3.5433Y-7.8394
X4.0256Y-4.2374
X4.0256Y-4.8374
X4.2224Y-4.2374
X4.2224Y-4.8374
X4.626Y-4.2374
X4.626Y-4.8374
X4.8228Y-4.2374
X4.8228Y-4.8374
X7.3917Y-7.2394
X7.3917Y-7.8394
X7.8051Y-7.2394
X7.8051Y-7.8394
X8.2185Y-7.2394
X8.2185Y-7.8394
X8.5827Y-7.2394
X8.5827Y-7.8394
X8.9862Y-7.2394
X8.9862Y-7.8394
T6
X5.41Y-5.05
X5.41Y-6.65
T7
X2.82Y-8.6
X2.84Y-3.48
X9.6Y-3.48
X9.6Y-8.6
T0
M30
