G04 (created by PCBNEW (2013-07-07 BZR 4022)-stable) date 6/9/2015 5:45:07 PM*
%MOIN*%
G04 Gerber Fmt 3.4, Leading zero omitted, Abs format*
%FSLAX34Y34*%
G01*
G70*
G90*
G04 APERTURE LIST*
%ADD10C,0.00590551*%
%ADD11R,0.08X0.08*%
%ADD12C,0.08*%
%ADD13R,0.0629921X0.0629921*%
%ADD14C,0.0629921*%
%ADD15R,0.055X0.055*%
%ADD16C,0.055*%
%ADD17C,0.07*%
%ADD18R,0.07X0.07*%
%ADD19C,0.0843701*%
%ADD20R,0.06X0.06*%
%ADD21C,0.06*%
%ADD22C,0.215*%
%ADD23C,0.16*%
G04 APERTURE END LIST*
G54D10*
G54D11*
X76039Y-81444D03*
G54D12*
X78039Y-81444D03*
X80039Y-81444D03*
X82039Y-81444D03*
X82039Y-39318D03*
X80039Y-39318D03*
X78039Y-39318D03*
X76039Y-39318D03*
X84039Y-81444D03*
X84039Y-39318D03*
G54D11*
X40212Y-81444D03*
G54D12*
X42212Y-81444D03*
X44212Y-81444D03*
X46212Y-81444D03*
X46212Y-39318D03*
X44212Y-39318D03*
X42212Y-39318D03*
X40212Y-39318D03*
X48212Y-81444D03*
X48212Y-39318D03*
G54D13*
X43145Y-71925D03*
G54D14*
X44145Y-71925D03*
X45145Y-71925D03*
X46145Y-71925D03*
X47145Y-71925D03*
X48145Y-71925D03*
X49145Y-71925D03*
X50145Y-71925D03*
X51145Y-71925D03*
X51145Y-74925D03*
X50145Y-74925D03*
X49145Y-74925D03*
X48145Y-74925D03*
X47145Y-74925D03*
X46145Y-74925D03*
X45145Y-74925D03*
X44145Y-74925D03*
X43145Y-74925D03*
G54D15*
X81500Y-63000D03*
G54D16*
X81500Y-62000D03*
X81500Y-61000D03*
X81500Y-60000D03*
X81500Y-59000D03*
X81500Y-58000D03*
X81500Y-57000D03*
X81500Y-56000D03*
X84500Y-56000D03*
X84500Y-57000D03*
X84500Y-58000D03*
X84500Y-59000D03*
X84500Y-60000D03*
X84500Y-61000D03*
X84500Y-62000D03*
X84500Y-63000D03*
G54D17*
X31299Y-78429D03*
X31299Y-79429D03*
G54D18*
X31299Y-80429D03*
G54D17*
X94192Y-78429D03*
X94192Y-79429D03*
G54D18*
X94192Y-80429D03*
G54D16*
X59800Y-54000D03*
X59800Y-55000D03*
G54D19*
X35433Y-78393D03*
X35433Y-72393D03*
G54D20*
X87200Y-56100D03*
G54D21*
X87200Y-57100D03*
G54D19*
X40255Y-48374D03*
X40255Y-42374D03*
X89862Y-78393D03*
X89862Y-72393D03*
X85826Y-72393D03*
X85826Y-78393D03*
X42224Y-48374D03*
X42224Y-42374D03*
X73917Y-72393D03*
X73917Y-78393D03*
X78051Y-72393D03*
X78051Y-78393D03*
X82185Y-72393D03*
X82185Y-78393D03*
X48228Y-48374D03*
X48228Y-42374D03*
X46259Y-48374D03*
X46259Y-42374D03*
G54D20*
X54100Y-74300D03*
G54D21*
X54100Y-73300D03*
G54D20*
X67100Y-63000D03*
G54D21*
X68100Y-63000D03*
X67100Y-62000D03*
X68100Y-62000D03*
X67100Y-61000D03*
X68100Y-61000D03*
X67100Y-60000D03*
X68100Y-60000D03*
X67100Y-59000D03*
X68100Y-59000D03*
X67100Y-58000D03*
X68100Y-58000D03*
X67100Y-57000D03*
X68100Y-57000D03*
X67100Y-56000D03*
X68100Y-56000D03*
G54D20*
X53700Y-63000D03*
G54D21*
X54700Y-63000D03*
X53700Y-62000D03*
X54700Y-62000D03*
X53700Y-61000D03*
X54700Y-61000D03*
X53700Y-60000D03*
X54700Y-60000D03*
X53700Y-59000D03*
X54700Y-59000D03*
X53700Y-58000D03*
X54700Y-58000D03*
X53700Y-57000D03*
X54700Y-57000D03*
X53700Y-56000D03*
X54700Y-56000D03*
X53700Y-55000D03*
X54700Y-55000D03*
X53700Y-54000D03*
X54700Y-54000D03*
G54D22*
X54100Y-66500D03*
X54100Y-50500D03*
G54D23*
X28200Y-86000D03*
X96000Y-86000D03*
X96000Y-34800D03*
X28400Y-34800D03*
M02*
