G04 (created by PCBNEW (2013-07-07 BZR 4022)-stable) date 6/9/2015 5:45:07 PM*
%MOIN*%
G04 Gerber Fmt 3.4, Leading zero omitted, Abs format*
%FSLAX34Y34*%
G01*
G70*
G90*
G04 APERTURE LIST*
%ADD10C,0.00590551*%
%ADD11C,0.00393701*%
%ADD12C,0.011811*%
G04 APERTURE END LIST*
G54D10*
G54D11*
X97690Y-33178D02*
X97690Y-87623D01*
X133393Y-87622D02*
X133440Y-87622D01*
X133342Y-87622D02*
X133393Y-87622D01*
G54D12*
X24221Y-57985D02*
X24221Y-57648D01*
X24221Y-57816D02*
X24812Y-57816D01*
X24727Y-57760D01*
X24671Y-57704D01*
X24643Y-57648D01*
X24812Y-58182D02*
X24812Y-58548D01*
X24587Y-58351D01*
X24587Y-58435D01*
X24559Y-58491D01*
X24530Y-58519D01*
X24474Y-58548D01*
X24334Y-58548D01*
X24277Y-58519D01*
X24249Y-58491D01*
X24221Y-58435D01*
X24221Y-58266D01*
X24249Y-58210D01*
X24277Y-58182D01*
X24559Y-58885D02*
X24587Y-58829D01*
X24615Y-58801D01*
X24671Y-58773D01*
X24699Y-58773D01*
X24755Y-58801D01*
X24784Y-58829D01*
X24812Y-58885D01*
X24812Y-58998D01*
X24784Y-59054D01*
X24755Y-59082D01*
X24699Y-59110D01*
X24671Y-59110D01*
X24615Y-59082D01*
X24587Y-59054D01*
X24559Y-58998D01*
X24559Y-58885D01*
X24530Y-58829D01*
X24502Y-58801D01*
X24446Y-58773D01*
X24334Y-58773D01*
X24277Y-58801D01*
X24249Y-58829D01*
X24221Y-58885D01*
X24221Y-58998D01*
X24249Y-59054D01*
X24277Y-59082D01*
X24334Y-59110D01*
X24446Y-59110D01*
X24502Y-59082D01*
X24530Y-59054D01*
X24559Y-58998D01*
X24277Y-59363D02*
X24249Y-59391D01*
X24221Y-59363D01*
X24249Y-59335D01*
X24277Y-59363D01*
X24221Y-59363D01*
X24221Y-59954D02*
X24221Y-59616D01*
X24221Y-59785D02*
X24812Y-59785D01*
X24727Y-59729D01*
X24671Y-59672D01*
X24643Y-59616D01*
X24221Y-60235D02*
X24221Y-60347D01*
X24249Y-60404D01*
X24277Y-60432D01*
X24362Y-60488D01*
X24474Y-60516D01*
X24699Y-60516D01*
X24755Y-60488D01*
X24784Y-60460D01*
X24812Y-60404D01*
X24812Y-60291D01*
X24784Y-60235D01*
X24755Y-60207D01*
X24699Y-60179D01*
X24559Y-60179D01*
X24502Y-60207D01*
X24474Y-60235D01*
X24446Y-60291D01*
X24446Y-60404D01*
X24474Y-60460D01*
X24502Y-60488D01*
X24559Y-60516D01*
X24812Y-60882D02*
X24812Y-60938D01*
X24784Y-60994D01*
X24755Y-61022D01*
X24699Y-61050D01*
X24587Y-61079D01*
X24446Y-61079D01*
X24334Y-61050D01*
X24277Y-61022D01*
X24249Y-60994D01*
X24221Y-60938D01*
X24221Y-60882D01*
X24249Y-60825D01*
X24277Y-60797D01*
X24334Y-60769D01*
X24446Y-60741D01*
X24587Y-60741D01*
X24699Y-60769D01*
X24755Y-60797D01*
X24784Y-60825D01*
X24812Y-60882D01*
X24221Y-61782D02*
X24615Y-61782D01*
X24559Y-61782D02*
X24587Y-61810D01*
X24615Y-61866D01*
X24615Y-61950D01*
X24587Y-62007D01*
X24530Y-62035D01*
X24221Y-62035D01*
X24530Y-62035D02*
X24587Y-62063D01*
X24615Y-62119D01*
X24615Y-62203D01*
X24587Y-62260D01*
X24530Y-62288D01*
X24221Y-62288D01*
X24221Y-62569D02*
X24615Y-62569D01*
X24559Y-62569D02*
X24587Y-62597D01*
X24615Y-62653D01*
X24615Y-62738D01*
X24587Y-62794D01*
X24530Y-62822D01*
X24221Y-62822D01*
X24530Y-62822D02*
X24587Y-62850D01*
X24615Y-62906D01*
X24615Y-62991D01*
X24587Y-63047D01*
X24530Y-63075D01*
X24221Y-63075D01*
X24992Y-33173D02*
X24992Y-87578D01*
X26555Y-33173D02*
X23929Y-33173D01*
X26555Y-87578D02*
X23929Y-87578D01*
X24992Y-87578D02*
X24761Y-87135D01*
X24992Y-87578D02*
X25223Y-87135D01*
X24992Y-33173D02*
X24761Y-33616D01*
X24992Y-33173D02*
X25223Y-33616D01*
G54D11*
X31645Y-87622D02*
X26559Y-87622D01*
X97692Y-87622D02*
X97681Y-87622D01*
X97681Y-87622D02*
X97681Y-87618D01*
X31641Y-87622D02*
X97681Y-87622D01*
X26551Y-36401D02*
X26551Y-87622D01*
X26551Y-33177D02*
X97688Y-33177D01*
X26551Y-33291D02*
X26551Y-33177D01*
X26551Y-36401D02*
X26551Y-33291D01*
M02*
