G04 (created by PCBNEW (2013-07-07 BZR 4022)-stable) date 6/9/2015 5:45:07 PM*
%MOIN*%
G04 Gerber Fmt 3.4, Leading zero omitted, Abs format*
%FSLAX34Y34*%
G01*
G70*
G90*
G04 APERTURE LIST*
%ADD10C,0.00590551*%
%ADD11C,0.012*%
%ADD12C,0.015*%
%ADD13C,0.01125*%
%ADD14C,0.01*%
G04 APERTURE END LIST*
G54D10*
G54D11*
X62322Y-36366D02*
X62322Y-84397D01*
X97755Y-36366D02*
X97755Y-84397D01*
X62322Y-36366D02*
X97755Y-36366D01*
X97755Y-84397D02*
X62322Y-84397D01*
X26496Y-36366D02*
X26496Y-84397D01*
X61929Y-36366D02*
X61929Y-84397D01*
X26496Y-36366D02*
X61929Y-36366D01*
X61929Y-84397D02*
X26496Y-84397D01*
G54D12*
X29100Y-86000D02*
G75*
G03X29100Y-86000I-900J0D01*
G74*
G01*
X96900Y-86000D02*
G75*
G03X96900Y-86000I-900J0D01*
G74*
G01*
X96900Y-34800D02*
G75*
G03X96900Y-34800I-900J0D01*
G74*
G01*
X29300Y-34800D02*
G75*
G03X29300Y-34800I-900J0D01*
G74*
G01*
G54D13*
X62905Y-35780D02*
X63119Y-35780D01*
X62862Y-35980D02*
X63012Y-35280D01*
X63162Y-35980D01*
X63462Y-35613D02*
X63312Y-35613D01*
X63312Y-35980D02*
X63312Y-35280D01*
X63526Y-35280D01*
X63847Y-35613D02*
X63697Y-35613D01*
X63697Y-35980D02*
X63697Y-35280D01*
X63912Y-35280D01*
X64062Y-35346D02*
X64083Y-35313D01*
X64126Y-35280D01*
X64233Y-35280D01*
X64276Y-35313D01*
X64297Y-35346D01*
X64319Y-35413D01*
X64319Y-35480D01*
X64297Y-35580D01*
X64040Y-35980D01*
X64319Y-35980D01*
G54D14*
X78382Y-34551D02*
X78649Y-34551D01*
X78477Y-35251D01*
X78782Y-35218D02*
X78839Y-35251D01*
X78934Y-35251D01*
X78973Y-35218D01*
X78992Y-35185D01*
X79011Y-35118D01*
X79011Y-35051D01*
X78992Y-34985D01*
X78973Y-34951D01*
X78934Y-34918D01*
X78858Y-34885D01*
X78820Y-34851D01*
X78801Y-34818D01*
X78782Y-34751D01*
X78782Y-34685D01*
X78801Y-34618D01*
X78820Y-34585D01*
X78858Y-34551D01*
X78953Y-34551D01*
X79011Y-34585D01*
X79182Y-34885D02*
X79315Y-34885D01*
X79373Y-35251D02*
X79182Y-35251D01*
X79182Y-34551D01*
X79373Y-34551D01*
X79753Y-34585D02*
X79715Y-34551D01*
X79658Y-34551D01*
X79601Y-34585D01*
X79563Y-34651D01*
X79544Y-34718D01*
X79525Y-34851D01*
X79525Y-34951D01*
X79544Y-35085D01*
X79563Y-35151D01*
X79601Y-35218D01*
X79658Y-35251D01*
X79696Y-35251D01*
X79753Y-35218D01*
X79773Y-35185D01*
X79773Y-34951D01*
X79696Y-34951D01*
X79944Y-35251D02*
X79944Y-34551D01*
X80077Y-35051D01*
X80211Y-34551D01*
X80211Y-35251D01*
X80401Y-34885D02*
X80534Y-34885D01*
X80592Y-35251D02*
X80401Y-35251D01*
X80401Y-34551D01*
X80592Y-34551D01*
X80763Y-35251D02*
X80763Y-34551D01*
X80992Y-35251D01*
X80992Y-34551D01*
X81125Y-34551D02*
X81353Y-34551D01*
X81239Y-35251D02*
X81239Y-34551D01*
X81468Y-35218D02*
X81525Y-35251D01*
X81620Y-35251D01*
X81658Y-35218D01*
X81677Y-35185D01*
X81696Y-35118D01*
X81696Y-35051D01*
X81677Y-34985D01*
X81658Y-34951D01*
X81620Y-34918D01*
X81544Y-34885D01*
X81506Y-34851D01*
X81487Y-34818D01*
X81468Y-34751D01*
X81468Y-34685D01*
X81487Y-34618D01*
X81506Y-34585D01*
X81544Y-34551D01*
X81639Y-34551D01*
X81696Y-34585D01*
G54D13*
X27078Y-35780D02*
X27292Y-35780D01*
X27035Y-35980D02*
X27185Y-35280D01*
X27335Y-35980D01*
X27635Y-35613D02*
X27485Y-35613D01*
X27485Y-35980D02*
X27485Y-35280D01*
X27699Y-35280D01*
X28021Y-35613D02*
X27871Y-35613D01*
X27871Y-35980D02*
X27871Y-35280D01*
X28085Y-35280D01*
X28492Y-35980D02*
X28235Y-35980D01*
X28364Y-35980D02*
X28364Y-35280D01*
X28321Y-35380D01*
X28278Y-35446D01*
X28235Y-35480D01*
G54D14*
X42555Y-34551D02*
X42822Y-34551D01*
X42651Y-35251D01*
X42955Y-35218D02*
X43012Y-35251D01*
X43108Y-35251D01*
X43146Y-35218D01*
X43165Y-35185D01*
X43184Y-35118D01*
X43184Y-35051D01*
X43165Y-34985D01*
X43146Y-34951D01*
X43108Y-34918D01*
X43031Y-34885D01*
X42993Y-34851D01*
X42974Y-34818D01*
X42955Y-34751D01*
X42955Y-34685D01*
X42974Y-34618D01*
X42993Y-34585D01*
X43031Y-34551D01*
X43127Y-34551D01*
X43184Y-34585D01*
X43355Y-34885D02*
X43489Y-34885D01*
X43546Y-35251D02*
X43355Y-35251D01*
X43355Y-34551D01*
X43546Y-34551D01*
X43927Y-34585D02*
X43889Y-34551D01*
X43831Y-34551D01*
X43774Y-34585D01*
X43736Y-34651D01*
X43717Y-34718D01*
X43698Y-34851D01*
X43698Y-34951D01*
X43717Y-35085D01*
X43736Y-35151D01*
X43774Y-35218D01*
X43831Y-35251D01*
X43870Y-35251D01*
X43927Y-35218D01*
X43946Y-35185D01*
X43946Y-34951D01*
X43870Y-34951D01*
X44117Y-35251D02*
X44117Y-34551D01*
X44251Y-35051D01*
X44384Y-34551D01*
X44384Y-35251D01*
X44574Y-34885D02*
X44708Y-34885D01*
X44765Y-35251D02*
X44574Y-35251D01*
X44574Y-34551D01*
X44765Y-34551D01*
X44936Y-35251D02*
X44936Y-34551D01*
X45165Y-35251D01*
X45165Y-34551D01*
X45298Y-34551D02*
X45527Y-34551D01*
X45412Y-35251D02*
X45412Y-34551D01*
X45641Y-35218D02*
X45698Y-35251D01*
X45793Y-35251D01*
X45831Y-35218D01*
X45851Y-35185D01*
X45870Y-35118D01*
X45870Y-35051D01*
X45851Y-34985D01*
X45831Y-34951D01*
X45793Y-34918D01*
X45717Y-34885D01*
X45679Y-34851D01*
X45660Y-34818D01*
X45641Y-34751D01*
X45641Y-34685D01*
X45660Y-34618D01*
X45679Y-34585D01*
X45717Y-34551D01*
X45812Y-34551D01*
X45870Y-34585D01*
X28009Y-33761D02*
X27780Y-33761D01*
X27895Y-33761D02*
X27895Y-33361D01*
X27857Y-33419D01*
X27819Y-33457D01*
X27780Y-33476D01*
X28180Y-33761D02*
X28180Y-33361D01*
X28333Y-33361D01*
X28371Y-33380D01*
X28390Y-33400D01*
X28409Y-33438D01*
X28409Y-33495D01*
X28390Y-33533D01*
X28371Y-33552D01*
X28333Y-33571D01*
X28180Y-33571D01*
X28580Y-33761D02*
X28580Y-33361D01*
X28771Y-33761D02*
X28771Y-33361D01*
X29000Y-33761D01*
X29000Y-33361D01*
M02*
