G04 (created by PCBNEW (2013-07-07 BZR 4022)-stable) date 6/9/2015 5:45:07 PM*
%MOIN*%
G04 Gerber Fmt 3.4, Leading zero omitted, Abs format*
%FSLAX34Y34*%
G01*
G70*
G90*
G04 APERTURE LIST*
%ADD10C,0.00590551*%
%ADD11C,0.011811*%
%ADD12R,0.08X0.08*%
%ADD13C,0.08*%
%ADD14R,0.0629921X0.0629921*%
%ADD15C,0.0629921*%
%ADD16R,0.055X0.055*%
%ADD17C,0.055*%
%ADD18C,0.07*%
%ADD19R,0.07X0.07*%
%ADD20C,0.0843701*%
%ADD21R,0.06X0.06*%
%ADD22C,0.06*%
%ADD23C,0.215*%
%ADD24C,0.16*%
%ADD25C,0.0393701*%
%ADD26C,0.02*%
%ADD27C,0.008*%
%ADD28C,0.027874*%
%ADD29C,0.0283465*%
%ADD30C,0.01*%
G04 APERTURE END LIST*
G54D10*
G54D11*
X73094Y-35239D02*
X73094Y-34648D01*
X72813Y-35239D02*
X72813Y-34648D01*
X72672Y-34648D01*
X72588Y-34676D01*
X72531Y-34732D01*
X72503Y-34789D01*
X72475Y-34901D01*
X72475Y-34985D01*
X72503Y-35098D01*
X72531Y-35154D01*
X72588Y-35210D01*
X72672Y-35239D01*
X72813Y-35239D01*
X72222Y-34929D02*
X72025Y-34929D01*
X71941Y-35239D02*
X72222Y-35239D01*
X72222Y-34648D01*
X71941Y-34648D01*
X71575Y-34648D02*
X71463Y-34648D01*
X71407Y-34676D01*
X71350Y-34732D01*
X71322Y-34845D01*
X71322Y-35042D01*
X71350Y-35154D01*
X71407Y-35210D01*
X71463Y-35239D01*
X71575Y-35239D01*
X71632Y-35210D01*
X71688Y-35154D01*
X71716Y-35042D01*
X71716Y-34845D01*
X71688Y-34732D01*
X71632Y-34676D01*
X71575Y-34648D01*
X71069Y-35239D02*
X71069Y-34648D01*
X70732Y-35239D01*
X70732Y-34648D01*
X70450Y-35239D02*
X70450Y-34648D01*
X69832Y-35182D02*
X69860Y-35210D01*
X69944Y-35239D01*
X70001Y-35239D01*
X70085Y-35210D01*
X70141Y-35154D01*
X70169Y-35098D01*
X70197Y-34985D01*
X70197Y-34901D01*
X70169Y-34789D01*
X70141Y-34732D01*
X70085Y-34676D01*
X70001Y-34648D01*
X69944Y-34648D01*
X69860Y-34676D01*
X69832Y-34704D01*
X69607Y-35210D02*
X69522Y-35239D01*
X69382Y-35239D01*
X69326Y-35210D01*
X69297Y-35182D01*
X69269Y-35126D01*
X69269Y-35070D01*
X69297Y-35014D01*
X69326Y-34985D01*
X69382Y-34957D01*
X69494Y-34929D01*
X69551Y-34901D01*
X69579Y-34873D01*
X69607Y-34817D01*
X69607Y-34760D01*
X69579Y-34704D01*
X69551Y-34676D01*
X69494Y-34648D01*
X69354Y-34648D01*
X69269Y-34676D01*
X68313Y-34845D02*
X68313Y-35239D01*
X68454Y-34620D02*
X68594Y-35042D01*
X68229Y-35042D01*
X68004Y-35239D02*
X68004Y-34648D01*
X67723Y-35239D02*
X67723Y-34648D01*
X67385Y-35239D01*
X67385Y-34648D01*
X66767Y-35182D02*
X66795Y-35210D01*
X66879Y-35239D01*
X66935Y-35239D01*
X67020Y-35210D01*
X67076Y-35154D01*
X67104Y-35098D01*
X67132Y-34985D01*
X67132Y-34901D01*
X67104Y-34789D01*
X67076Y-34732D01*
X67020Y-34676D01*
X66935Y-34648D01*
X66879Y-34648D01*
X66795Y-34676D01*
X66767Y-34704D01*
X66513Y-35239D02*
X66513Y-34648D01*
X66513Y-34929D02*
X66176Y-34929D01*
X66176Y-35239D02*
X66176Y-34648D01*
X65473Y-34704D02*
X65445Y-34676D01*
X65389Y-34648D01*
X65248Y-34648D01*
X65192Y-34676D01*
X65164Y-34704D01*
X65135Y-34760D01*
X65135Y-34817D01*
X65164Y-34901D01*
X65501Y-35239D01*
X65135Y-35239D01*
X64882Y-35239D02*
X64882Y-34648D01*
X64742Y-34648D01*
X64657Y-34676D01*
X64601Y-34732D01*
X64573Y-34789D01*
X64545Y-34901D01*
X64545Y-34985D01*
X64573Y-35098D01*
X64601Y-35154D01*
X64657Y-35210D01*
X64742Y-35239D01*
X64882Y-35239D01*
X64292Y-35239D02*
X64292Y-34648D01*
X63701Y-34676D02*
X63758Y-34648D01*
X63842Y-34648D01*
X63926Y-34676D01*
X63983Y-34732D01*
X64011Y-34789D01*
X64039Y-34901D01*
X64039Y-34985D01*
X64011Y-35098D01*
X63983Y-35154D01*
X63926Y-35210D01*
X63842Y-35239D01*
X63786Y-35239D01*
X63701Y-35210D01*
X63673Y-35182D01*
X63673Y-34985D01*
X63786Y-34985D01*
X63420Y-35239D02*
X63420Y-34648D01*
X63223Y-34648D02*
X62886Y-34648D01*
X63055Y-35239D02*
X63055Y-34648D01*
X62042Y-34929D02*
X61958Y-34957D01*
X61930Y-34985D01*
X61902Y-35042D01*
X61902Y-35126D01*
X61930Y-35182D01*
X61958Y-35210D01*
X62014Y-35239D01*
X62239Y-35239D01*
X62239Y-34648D01*
X62042Y-34648D01*
X61986Y-34676D01*
X61958Y-34704D01*
X61930Y-34760D01*
X61930Y-34817D01*
X61958Y-34873D01*
X61986Y-34901D01*
X62042Y-34929D01*
X62239Y-34929D01*
X61536Y-34648D02*
X61423Y-34648D01*
X61367Y-34676D01*
X61311Y-34732D01*
X61283Y-34845D01*
X61283Y-35042D01*
X61311Y-35154D01*
X61367Y-35210D01*
X61423Y-35239D01*
X61536Y-35239D01*
X61592Y-35210D01*
X61648Y-35154D01*
X61677Y-35042D01*
X61677Y-34845D01*
X61648Y-34732D01*
X61592Y-34676D01*
X61536Y-34648D01*
X61058Y-35070D02*
X60777Y-35070D01*
X61114Y-35239D02*
X60917Y-34648D01*
X60720Y-35239D01*
X60186Y-35239D02*
X60383Y-34957D01*
X60524Y-35239D02*
X60524Y-34648D01*
X60299Y-34648D01*
X60242Y-34676D01*
X60214Y-34704D01*
X60186Y-34760D01*
X60186Y-34845D01*
X60214Y-34901D01*
X60242Y-34929D01*
X60299Y-34957D01*
X60524Y-34957D01*
X59933Y-35239D02*
X59933Y-34648D01*
X59792Y-34648D01*
X59708Y-34676D01*
X59652Y-34732D01*
X59624Y-34789D01*
X59596Y-34901D01*
X59596Y-34985D01*
X59624Y-35098D01*
X59652Y-35154D01*
X59708Y-35210D01*
X59792Y-35239D01*
X59933Y-35239D01*
X58977Y-34648D02*
X58780Y-35239D01*
X58583Y-34648D01*
X58077Y-35239D02*
X58414Y-35239D01*
X58246Y-35239D02*
X58246Y-34648D01*
X58302Y-34732D01*
X58358Y-34789D01*
X58414Y-34817D01*
G54D12*
X76039Y-81444D03*
G54D13*
X78039Y-81444D03*
X80039Y-81444D03*
X82039Y-81444D03*
X82039Y-39318D03*
X80039Y-39318D03*
X78039Y-39318D03*
X76039Y-39318D03*
X84039Y-81444D03*
X84039Y-39318D03*
G54D12*
X40212Y-81444D03*
G54D13*
X42212Y-81444D03*
X44212Y-81444D03*
X46212Y-81444D03*
X46212Y-39318D03*
X44212Y-39318D03*
X42212Y-39318D03*
X40212Y-39318D03*
X48212Y-81444D03*
X48212Y-39318D03*
G54D14*
X43145Y-71925D03*
G54D15*
X44145Y-71925D03*
X45145Y-71925D03*
X46145Y-71925D03*
X47145Y-71925D03*
X48145Y-71925D03*
X49145Y-71925D03*
X50145Y-71925D03*
X51145Y-71925D03*
X51145Y-74925D03*
X50145Y-74925D03*
X49145Y-74925D03*
X48145Y-74925D03*
X47145Y-74925D03*
X46145Y-74925D03*
X45145Y-74925D03*
X44145Y-74925D03*
X43145Y-74925D03*
G54D16*
X81500Y-63000D03*
G54D17*
X81500Y-62000D03*
X81500Y-61000D03*
X81500Y-60000D03*
X81500Y-59000D03*
X81500Y-58000D03*
X81500Y-57000D03*
X81500Y-56000D03*
X84500Y-56000D03*
X84500Y-57000D03*
X84500Y-58000D03*
X84500Y-59000D03*
X84500Y-60000D03*
X84500Y-61000D03*
X84500Y-62000D03*
X84500Y-63000D03*
G54D18*
X31299Y-78429D03*
X31299Y-79429D03*
G54D19*
X31299Y-80429D03*
G54D18*
X94192Y-78429D03*
X94192Y-79429D03*
G54D19*
X94192Y-80429D03*
G54D17*
X59800Y-54000D03*
X59800Y-55000D03*
G54D20*
X35433Y-78393D03*
X35433Y-72393D03*
G54D21*
X87200Y-56100D03*
G54D22*
X87200Y-57100D03*
G54D20*
X40255Y-48374D03*
X40255Y-42374D03*
X89862Y-78393D03*
X89862Y-72393D03*
X85826Y-72393D03*
X85826Y-78393D03*
X42224Y-48374D03*
X42224Y-42374D03*
X73917Y-72393D03*
X73917Y-78393D03*
X78051Y-72393D03*
X78051Y-78393D03*
X82185Y-72393D03*
X82185Y-78393D03*
X48228Y-48374D03*
X48228Y-42374D03*
X46259Y-48374D03*
X46259Y-42374D03*
G54D21*
X54100Y-74300D03*
G54D22*
X54100Y-73300D03*
G54D21*
X67100Y-63000D03*
G54D22*
X68100Y-63000D03*
X67100Y-62000D03*
X68100Y-62000D03*
X67100Y-61000D03*
X68100Y-61000D03*
X67100Y-60000D03*
X68100Y-60000D03*
X67100Y-59000D03*
X68100Y-59000D03*
X67100Y-58000D03*
X68100Y-58000D03*
X67100Y-57000D03*
X68100Y-57000D03*
X67100Y-56000D03*
X68100Y-56000D03*
G54D21*
X53700Y-63000D03*
G54D22*
X54700Y-63000D03*
X53700Y-62000D03*
X54700Y-62000D03*
X53700Y-61000D03*
X54700Y-61000D03*
X53700Y-60000D03*
X54700Y-60000D03*
X53700Y-59000D03*
X54700Y-59000D03*
X53700Y-58000D03*
X54700Y-58000D03*
X53700Y-57000D03*
X54700Y-57000D03*
X53700Y-56000D03*
X54700Y-56000D03*
X53700Y-55000D03*
X54700Y-55000D03*
X53700Y-54000D03*
X54700Y-54000D03*
G54D23*
X54100Y-66500D03*
X54100Y-50500D03*
G54D24*
X28200Y-86000D03*
X96000Y-86000D03*
X96000Y-34800D03*
X28400Y-34800D03*
G54D25*
X43600Y-63300D03*
X44500Y-62200D03*
X45500Y-61100D03*
X46500Y-60000D03*
X47600Y-59200D03*
X48600Y-58000D03*
X49400Y-57100D03*
X50500Y-56100D03*
X73779Y-83169D03*
G54D26*
X43900Y-63000D02*
X53700Y-63000D01*
X43600Y-63300D02*
X43900Y-63000D01*
X44700Y-62000D02*
X53700Y-62000D01*
X44500Y-62200D02*
X44700Y-62000D01*
G54D27*
X44145Y-71925D02*
X44145Y-71897D01*
G54D26*
X45600Y-61000D02*
X53700Y-61000D01*
X45500Y-61100D02*
X45600Y-61000D01*
G54D27*
X45145Y-71925D02*
X45145Y-71891D01*
G54D26*
X46500Y-60000D02*
X53700Y-60000D01*
G54D27*
X46145Y-71925D02*
X46145Y-71777D01*
G54D28*
X68100Y-63000D02*
X81500Y-63000D01*
X68100Y-58000D02*
X68531Y-58000D01*
X68681Y-60000D02*
X68100Y-60000D01*
X69015Y-59665D02*
X68681Y-60000D01*
X69015Y-58484D02*
X69015Y-59665D01*
X68531Y-58000D02*
X69015Y-58484D01*
X68100Y-58000D02*
X68594Y-58000D01*
X68696Y-56000D02*
X68100Y-56000D01*
X68917Y-56220D02*
X68696Y-56000D01*
X68917Y-57677D02*
X68917Y-56220D01*
X68594Y-58000D02*
X68917Y-57677D01*
X68100Y-62000D02*
X81500Y-62000D01*
G54D26*
X47800Y-59000D02*
X53700Y-59000D01*
X47600Y-59200D02*
X47800Y-59000D01*
G54D27*
X47145Y-71925D02*
X47145Y-71919D01*
G54D26*
X48600Y-58000D02*
X53700Y-58000D01*
G54D27*
X48145Y-71925D02*
X48145Y-71795D01*
G54D26*
X49500Y-57000D02*
X53700Y-57000D01*
X49400Y-57100D02*
X49500Y-57000D01*
G54D27*
X49145Y-71925D02*
X49145Y-71818D01*
G54D26*
X50600Y-56000D02*
X53700Y-56000D01*
X50500Y-56100D02*
X50600Y-56000D01*
G54D27*
X50145Y-71925D02*
X50145Y-71675D01*
G54D26*
X46259Y-42374D02*
X46259Y-39366D01*
X46259Y-39366D02*
X46212Y-39318D01*
G54D29*
X46212Y-39318D02*
X46212Y-39122D01*
X82039Y-40204D02*
X82039Y-39318D01*
X80708Y-41535D02*
X82039Y-40204D01*
X74015Y-41535D02*
X80708Y-41535D01*
X70866Y-38385D02*
X74015Y-41535D01*
X46948Y-38385D02*
X70866Y-38385D01*
X46212Y-39122D02*
X46948Y-38385D01*
G54D26*
X48228Y-42374D02*
X48228Y-39334D01*
X48228Y-39334D02*
X48212Y-39318D01*
G54D29*
X48212Y-39318D02*
X69929Y-39318D01*
X84039Y-40173D02*
X84039Y-39318D01*
X81594Y-42618D02*
X84039Y-40173D01*
X73228Y-42618D02*
X81594Y-42618D01*
X69929Y-39318D02*
X73228Y-42618D01*
G54D26*
X42212Y-81444D02*
X42212Y-82625D01*
X42755Y-83169D02*
X73779Y-83169D01*
X42212Y-82625D02*
X42755Y-83169D01*
X73917Y-78393D02*
X73917Y-79322D01*
X73917Y-79322D02*
X76039Y-81444D01*
X40212Y-81444D02*
X40212Y-82614D01*
X76039Y-82228D02*
X76039Y-81444D01*
X74409Y-83858D02*
X76039Y-82228D01*
X41456Y-83858D02*
X74409Y-83858D01*
X40212Y-82614D02*
X41456Y-83858D01*
X42224Y-42374D02*
X42224Y-39330D01*
X42224Y-39330D02*
X42212Y-39318D01*
G54D29*
X42212Y-39318D02*
X42212Y-38889D01*
X78039Y-39874D02*
X78039Y-39318D01*
X77165Y-40748D02*
X78039Y-39874D01*
X75000Y-40748D02*
X77165Y-40748D01*
X71948Y-37696D02*
X75000Y-40748D01*
X43405Y-37696D02*
X71948Y-37696D01*
X42212Y-38889D02*
X43405Y-37696D01*
X40212Y-39318D02*
X40212Y-37838D01*
X76039Y-38244D02*
X76039Y-39318D01*
X74803Y-37007D02*
X76039Y-38244D01*
X41043Y-37007D02*
X74803Y-37007D01*
X40212Y-37838D02*
X41043Y-37007D01*
X40212Y-39318D02*
X40212Y-42330D01*
X40212Y-42330D02*
X40255Y-42374D01*
G54D26*
X84039Y-81444D02*
X84039Y-78192D01*
X68811Y-81444D02*
X48212Y-81444D01*
X72952Y-77303D02*
X68811Y-81444D01*
X83149Y-77303D02*
X72952Y-77303D01*
X84039Y-78192D02*
X83149Y-77303D01*
G54D28*
X53700Y-54000D02*
X54700Y-54000D01*
X54100Y-73300D02*
X42099Y-73300D01*
X44385Y-54000D02*
X53700Y-54000D01*
X40948Y-57437D02*
X44385Y-54000D01*
X40948Y-72149D02*
X40948Y-57437D01*
X42099Y-73300D02*
X40948Y-72149D01*
X59800Y-54000D02*
X86900Y-54000D01*
X87800Y-57100D02*
X87200Y-57100D01*
X88500Y-56400D02*
X87800Y-57100D01*
X88500Y-55600D02*
X88500Y-56400D01*
X86900Y-54000D02*
X88500Y-55600D01*
X54700Y-54000D02*
X59800Y-54000D01*
G54D26*
X89862Y-78393D02*
X94157Y-78393D01*
X94157Y-78393D02*
X94192Y-78429D01*
G54D28*
X43145Y-74925D02*
X40625Y-74925D01*
X44825Y-48374D02*
X46259Y-48374D01*
X39600Y-53600D02*
X44825Y-48374D01*
X39600Y-73900D02*
X39600Y-53600D01*
X40625Y-74925D02*
X39600Y-73900D01*
X44145Y-74925D02*
X44145Y-75754D01*
X47154Y-47300D02*
X48228Y-48374D01*
X44600Y-47300D02*
X47154Y-47300D01*
X37400Y-54500D02*
X44600Y-47300D01*
X37400Y-73700D02*
X37400Y-54500D01*
X39800Y-76100D02*
X37400Y-73700D01*
X43800Y-76100D02*
X39800Y-76100D01*
X44145Y-75754D02*
X43800Y-76100D01*
G54D26*
X45145Y-74925D02*
X45145Y-77862D01*
X78141Y-76437D02*
X82185Y-72393D01*
X72834Y-76437D02*
X78141Y-76437D01*
X68818Y-80452D02*
X72834Y-76437D01*
X47736Y-80452D02*
X68818Y-80452D01*
X45145Y-77862D02*
X47736Y-80452D01*
X46145Y-74925D02*
X46145Y-77681D01*
X74893Y-75551D02*
X78051Y-72393D01*
X72598Y-75551D02*
X74893Y-75551D01*
X68444Y-79704D02*
X72598Y-75551D01*
X48169Y-79704D02*
X68444Y-79704D01*
X46145Y-77681D02*
X48169Y-79704D01*
X50145Y-74925D02*
X50145Y-75578D01*
X84082Y-70649D02*
X85826Y-72393D01*
X73661Y-70649D02*
X84082Y-70649D01*
X68208Y-76102D02*
X73661Y-70649D01*
X50669Y-76102D02*
X68208Y-76102D01*
X50145Y-75578D02*
X50669Y-76102D01*
G54D28*
X54700Y-57000D02*
X67100Y-57000D01*
X54700Y-58000D02*
X67100Y-58000D01*
X54700Y-59000D02*
X67100Y-59000D01*
X54700Y-60000D02*
X67100Y-60000D01*
X67100Y-56000D02*
X54700Y-56000D01*
X54700Y-61000D02*
X67100Y-61000D01*
X54700Y-62000D02*
X67100Y-62000D01*
X54700Y-63000D02*
X67100Y-63000D01*
G54D26*
X31299Y-78429D02*
X35397Y-78429D01*
X35397Y-78429D02*
X35433Y-78393D01*
G54D28*
X84500Y-63000D02*
X86300Y-63000D01*
X89862Y-66562D02*
X89862Y-72393D01*
X86300Y-63000D02*
X89862Y-66562D01*
X84500Y-56000D02*
X87100Y-56000D01*
X87100Y-56000D02*
X87200Y-56100D01*
G54D26*
X80039Y-81444D02*
X80039Y-81938D01*
X92982Y-79429D02*
X94192Y-79429D01*
X89527Y-82883D02*
X92982Y-79429D01*
X80984Y-82883D02*
X89527Y-82883D01*
X80039Y-81938D02*
X80984Y-82883D01*
X31299Y-79429D02*
X42196Y-79429D01*
X42196Y-79429D02*
X44212Y-81444D01*
X47145Y-74925D02*
X47145Y-77519D01*
X67492Y-78818D02*
X73917Y-72393D01*
X48444Y-78818D02*
X67492Y-78818D01*
X47145Y-77519D02*
X48444Y-78818D01*
G54D28*
X51145Y-74925D02*
X53474Y-74925D01*
X53474Y-74925D02*
X54100Y-74300D01*
G54D10*
G36*
X97420Y-87352D02*
X97050Y-87352D01*
X97050Y-85792D01*
X97050Y-34592D01*
X96890Y-34206D01*
X96595Y-33910D01*
X96209Y-33750D01*
X95792Y-33749D01*
X95406Y-33909D01*
X95110Y-34204D01*
X94950Y-34590D01*
X94949Y-35007D01*
X95109Y-35394D01*
X95404Y-35689D01*
X95790Y-35849D01*
X96207Y-35850D01*
X96594Y-35690D01*
X96889Y-35395D01*
X97049Y-35009D01*
X97050Y-34592D01*
X97050Y-85792D01*
X96890Y-85406D01*
X96595Y-85110D01*
X96209Y-84950D01*
X95792Y-84949D01*
X95406Y-85109D01*
X95110Y-85404D01*
X94950Y-85790D01*
X94949Y-86207D01*
X95109Y-86594D01*
X95404Y-86889D01*
X95790Y-87049D01*
X96207Y-87050D01*
X96594Y-86890D01*
X96889Y-86595D01*
X97049Y-86209D01*
X97050Y-85792D01*
X97050Y-87352D01*
X94793Y-87352D01*
X94793Y-79310D01*
X94701Y-79089D01*
X94541Y-78929D01*
X94701Y-78769D01*
X94792Y-78549D01*
X94793Y-78310D01*
X94701Y-78089D01*
X94533Y-77920D01*
X94312Y-77829D01*
X94074Y-77829D01*
X93853Y-77920D01*
X93729Y-78043D01*
X90534Y-78043D01*
X90534Y-72260D01*
X90432Y-72013D01*
X90251Y-71832D01*
X90251Y-66562D01*
X90221Y-66413D01*
X90137Y-66286D01*
X90137Y-66286D01*
X86575Y-62724D01*
X86449Y-62640D01*
X86300Y-62610D01*
X86299Y-62610D01*
X84853Y-62610D01*
X84797Y-62555D01*
X84664Y-62499D01*
X84797Y-62445D01*
X84944Y-62297D01*
X85024Y-62104D01*
X85025Y-61896D01*
X84945Y-61703D01*
X84797Y-61555D01*
X84664Y-61499D01*
X84797Y-61445D01*
X84944Y-61297D01*
X85024Y-61104D01*
X85025Y-60896D01*
X84945Y-60703D01*
X84797Y-60555D01*
X84664Y-60499D01*
X84797Y-60445D01*
X84944Y-60297D01*
X85024Y-60104D01*
X85025Y-59896D01*
X84945Y-59703D01*
X84797Y-59555D01*
X84664Y-59499D01*
X84797Y-59445D01*
X84944Y-59297D01*
X85024Y-59104D01*
X85025Y-58896D01*
X84945Y-58703D01*
X84797Y-58555D01*
X84664Y-58499D01*
X84797Y-58445D01*
X84944Y-58297D01*
X85024Y-58104D01*
X85025Y-57896D01*
X84945Y-57703D01*
X84797Y-57555D01*
X84664Y-57499D01*
X84797Y-57445D01*
X84944Y-57297D01*
X85024Y-57104D01*
X85025Y-56896D01*
X84945Y-56703D01*
X84797Y-56555D01*
X84664Y-56499D01*
X84797Y-56445D01*
X84853Y-56389D01*
X86649Y-56389D01*
X86649Y-56449D01*
X86687Y-56541D01*
X86758Y-56611D01*
X86850Y-56649D01*
X86872Y-56649D01*
X86734Y-56788D01*
X86650Y-56990D01*
X86649Y-57208D01*
X86733Y-57411D01*
X86888Y-57565D01*
X87090Y-57649D01*
X87308Y-57650D01*
X87511Y-57566D01*
X87588Y-57489D01*
X87799Y-57489D01*
X87800Y-57489D01*
X87800Y-57489D01*
X87949Y-57459D01*
X88075Y-57375D01*
X88775Y-56675D01*
X88775Y-56675D01*
X88775Y-56675D01*
X88859Y-56549D01*
X88889Y-56400D01*
X88889Y-56400D01*
X88889Y-56400D01*
X88889Y-55600D01*
X88889Y-55599D01*
X88889Y-55599D01*
X88883Y-55570D01*
X88859Y-55450D01*
X88859Y-55450D01*
X88775Y-55324D01*
X88775Y-55324D01*
X87175Y-53724D01*
X87049Y-53640D01*
X86900Y-53610D01*
X86899Y-53610D01*
X84689Y-53610D01*
X84689Y-39190D01*
X84590Y-38951D01*
X84408Y-38768D01*
X84169Y-38669D01*
X83910Y-38668D01*
X83671Y-38767D01*
X83488Y-38950D01*
X83389Y-39189D01*
X83389Y-39447D01*
X83488Y-39686D01*
X83647Y-39846D01*
X83647Y-40010D01*
X81432Y-42226D01*
X73390Y-42226D01*
X70206Y-39041D01*
X70079Y-38956D01*
X69929Y-38927D01*
X48739Y-38927D01*
X48590Y-38777D01*
X70703Y-38777D01*
X73738Y-41812D01*
X73738Y-41812D01*
X73865Y-41897D01*
X74015Y-41927D01*
X80708Y-41927D01*
X80858Y-41897D01*
X80985Y-41812D01*
X82316Y-40481D01*
X82316Y-40481D01*
X82373Y-40396D01*
X82401Y-40354D01*
X82401Y-40354D01*
X82431Y-40204D01*
X82431Y-40204D01*
X82431Y-39846D01*
X82590Y-39687D01*
X82689Y-39448D01*
X82689Y-39190D01*
X82590Y-38951D01*
X82408Y-38768D01*
X82169Y-38669D01*
X81910Y-38668D01*
X81671Y-38767D01*
X81488Y-38950D01*
X81389Y-39189D01*
X81389Y-39447D01*
X81488Y-39686D01*
X81647Y-39846D01*
X81647Y-40042D01*
X80689Y-41000D01*
X80689Y-39190D01*
X80590Y-38951D01*
X80408Y-38768D01*
X80169Y-38669D01*
X79910Y-38668D01*
X79671Y-38767D01*
X79488Y-38950D01*
X79389Y-39189D01*
X79389Y-39447D01*
X79488Y-39686D01*
X79670Y-39869D01*
X79909Y-39968D01*
X80168Y-39969D01*
X80407Y-39870D01*
X80590Y-39687D01*
X80689Y-39448D01*
X80689Y-39190D01*
X80689Y-41000D01*
X80546Y-41143D01*
X74178Y-41143D01*
X71143Y-38108D01*
X71112Y-38088D01*
X71786Y-38088D01*
X74723Y-41025D01*
X74850Y-41109D01*
X75000Y-41139D01*
X77165Y-41139D01*
X77315Y-41109D01*
X77442Y-41025D01*
X78316Y-40151D01*
X78401Y-40023D01*
X78431Y-39874D01*
X78431Y-39846D01*
X78590Y-39687D01*
X78689Y-39448D01*
X78689Y-39190D01*
X78590Y-38951D01*
X78408Y-38768D01*
X78169Y-38669D01*
X77910Y-38668D01*
X77671Y-38767D01*
X77488Y-38950D01*
X77389Y-39189D01*
X77389Y-39447D01*
X77488Y-39686D01*
X77580Y-39779D01*
X77003Y-40356D01*
X75162Y-40356D01*
X72225Y-37419D01*
X72195Y-37399D01*
X74640Y-37399D01*
X75647Y-38406D01*
X75647Y-38791D01*
X75488Y-38950D01*
X75389Y-39189D01*
X75389Y-39447D01*
X75488Y-39686D01*
X75670Y-39869D01*
X75909Y-39968D01*
X76168Y-39969D01*
X76407Y-39870D01*
X76590Y-39687D01*
X76689Y-39448D01*
X76689Y-39190D01*
X76590Y-38951D01*
X76431Y-38791D01*
X76431Y-38244D01*
X76401Y-38094D01*
X76316Y-37967D01*
X76316Y-37967D01*
X75080Y-36730D01*
X74953Y-36645D01*
X74803Y-36616D01*
X73544Y-36616D01*
X73544Y-35722D01*
X73544Y-34159D01*
X57655Y-34159D01*
X57655Y-35722D01*
X73544Y-35722D01*
X73544Y-36616D01*
X41043Y-36616D01*
X40893Y-36645D01*
X40766Y-36730D01*
X39935Y-37561D01*
X39850Y-37688D01*
X39820Y-37838D01*
X39820Y-38791D01*
X39661Y-38950D01*
X39562Y-39189D01*
X39562Y-39447D01*
X39661Y-39686D01*
X39820Y-39846D01*
X39820Y-41858D01*
X39686Y-41992D01*
X39584Y-42239D01*
X39583Y-42507D01*
X39686Y-42754D01*
X39874Y-42943D01*
X40121Y-43045D01*
X40388Y-43045D01*
X40635Y-42943D01*
X40825Y-42755D01*
X40927Y-42508D01*
X40927Y-42240D01*
X40825Y-41993D01*
X40636Y-41804D01*
X40604Y-41791D01*
X40604Y-39846D01*
X40763Y-39687D01*
X40862Y-39448D01*
X40862Y-39190D01*
X40763Y-38951D01*
X40604Y-38791D01*
X40604Y-38000D01*
X41205Y-37399D01*
X43158Y-37399D01*
X43128Y-37419D01*
X41935Y-38612D01*
X41850Y-38739D01*
X41845Y-38767D01*
X41844Y-38767D01*
X41661Y-38950D01*
X41562Y-39189D01*
X41562Y-39447D01*
X41661Y-39686D01*
X41843Y-39869D01*
X41874Y-39882D01*
X41874Y-41791D01*
X41844Y-41804D01*
X41655Y-41992D01*
X41552Y-42239D01*
X41552Y-42507D01*
X41654Y-42754D01*
X41843Y-42943D01*
X42090Y-43045D01*
X42357Y-43045D01*
X42604Y-42943D01*
X42793Y-42755D01*
X42896Y-42508D01*
X42896Y-42240D01*
X42794Y-41993D01*
X42605Y-41804D01*
X42574Y-41791D01*
X42574Y-39872D01*
X42580Y-39870D01*
X42763Y-39687D01*
X42862Y-39448D01*
X42862Y-39190D01*
X42763Y-38951D01*
X42734Y-38921D01*
X43567Y-38088D01*
X46702Y-38088D01*
X46671Y-38108D01*
X46111Y-38668D01*
X46083Y-38668D01*
X45844Y-38767D01*
X45661Y-38950D01*
X45562Y-39189D01*
X45562Y-39447D01*
X45661Y-39686D01*
X45843Y-39869D01*
X45909Y-39896D01*
X45909Y-41791D01*
X45879Y-41804D01*
X45690Y-41992D01*
X45588Y-42239D01*
X45587Y-42507D01*
X45689Y-42754D01*
X45878Y-42943D01*
X46125Y-43045D01*
X46392Y-43045D01*
X46639Y-42943D01*
X46829Y-42755D01*
X46931Y-42508D01*
X46931Y-42240D01*
X46829Y-41993D01*
X46640Y-41804D01*
X46609Y-41791D01*
X46609Y-39840D01*
X46763Y-39687D01*
X46862Y-39448D01*
X46862Y-39190D01*
X46814Y-39073D01*
X47111Y-38777D01*
X47834Y-38777D01*
X47661Y-38950D01*
X47562Y-39189D01*
X47562Y-39447D01*
X47661Y-39686D01*
X47843Y-39869D01*
X47878Y-39883D01*
X47878Y-41791D01*
X47848Y-41804D01*
X47659Y-41992D01*
X47556Y-42239D01*
X47556Y-42507D01*
X47658Y-42754D01*
X47847Y-42943D01*
X48094Y-43045D01*
X48361Y-43045D01*
X48608Y-42943D01*
X48797Y-42755D01*
X48900Y-42508D01*
X48900Y-42240D01*
X48798Y-41993D01*
X48609Y-41804D01*
X48578Y-41791D01*
X48578Y-39871D01*
X48580Y-39870D01*
X48740Y-39710D01*
X69766Y-39710D01*
X72951Y-42895D01*
X72951Y-42895D01*
X73078Y-42980D01*
X73228Y-43009D01*
X81594Y-43009D01*
X81744Y-42980D01*
X81871Y-42895D01*
X84316Y-40450D01*
X84401Y-40323D01*
X84431Y-40173D01*
X84431Y-40173D01*
X84431Y-39846D01*
X84590Y-39687D01*
X84689Y-39448D01*
X84689Y-39190D01*
X84689Y-53610D01*
X60153Y-53610D01*
X60097Y-53555D01*
X59904Y-53475D01*
X59696Y-53474D01*
X59503Y-53554D01*
X59446Y-53610D01*
X55425Y-53610D01*
X55425Y-50237D01*
X55223Y-49750D01*
X54851Y-49377D01*
X54364Y-49175D01*
X53837Y-49174D01*
X53350Y-49376D01*
X52977Y-49748D01*
X52775Y-50235D01*
X52774Y-50762D01*
X52976Y-51249D01*
X53348Y-51622D01*
X53835Y-51824D01*
X54362Y-51825D01*
X54849Y-51623D01*
X55222Y-51251D01*
X55424Y-50764D01*
X55425Y-50237D01*
X55425Y-53610D01*
X55088Y-53610D01*
X55011Y-53534D01*
X54809Y-53450D01*
X54591Y-53449D01*
X54388Y-53533D01*
X54311Y-53610D01*
X54088Y-53610D01*
X54011Y-53534D01*
X53809Y-53450D01*
X53591Y-53449D01*
X53388Y-53533D01*
X53311Y-53610D01*
X44385Y-53610D01*
X44236Y-53640D01*
X44110Y-53724D01*
X44110Y-53724D01*
X40673Y-57161D01*
X40589Y-57288D01*
X40559Y-57437D01*
X40559Y-57437D01*
X40559Y-72149D01*
X40559Y-72149D01*
X40589Y-72298D01*
X40673Y-72424D01*
X41823Y-73575D01*
X41950Y-73659D01*
X42099Y-73689D01*
X42099Y-73689D01*
X42099Y-73689D01*
X53711Y-73689D01*
X53772Y-73749D01*
X53750Y-73749D01*
X53658Y-73787D01*
X53588Y-73858D01*
X53550Y-73950D01*
X53549Y-74049D01*
X53549Y-74299D01*
X53313Y-74535D01*
X51555Y-74535D01*
X51466Y-74446D01*
X51258Y-74360D01*
X51033Y-74360D01*
X50826Y-74445D01*
X50666Y-74604D01*
X50645Y-74655D01*
X50624Y-74605D01*
X50466Y-74446D01*
X50258Y-74360D01*
X50033Y-74360D01*
X49826Y-74445D01*
X49666Y-74604D01*
X49645Y-74655D01*
X49624Y-74605D01*
X49466Y-74446D01*
X49258Y-74360D01*
X49033Y-74360D01*
X48826Y-74445D01*
X48666Y-74604D01*
X48645Y-74655D01*
X48624Y-74605D01*
X48466Y-74446D01*
X48258Y-74360D01*
X48033Y-74360D01*
X47826Y-74445D01*
X47666Y-74604D01*
X47645Y-74655D01*
X47624Y-74605D01*
X47466Y-74446D01*
X47258Y-74360D01*
X47033Y-74360D01*
X46826Y-74445D01*
X46666Y-74604D01*
X46645Y-74655D01*
X46624Y-74605D01*
X46466Y-74446D01*
X46258Y-74360D01*
X46033Y-74360D01*
X45826Y-74445D01*
X45666Y-74604D01*
X45645Y-74655D01*
X45624Y-74605D01*
X45466Y-74446D01*
X45258Y-74360D01*
X45033Y-74360D01*
X44826Y-74445D01*
X44666Y-74604D01*
X44645Y-74655D01*
X44624Y-74605D01*
X44466Y-74446D01*
X44258Y-74360D01*
X44033Y-74360D01*
X43826Y-74445D01*
X43666Y-74604D01*
X43645Y-74655D01*
X43624Y-74605D01*
X43466Y-74446D01*
X43258Y-74360D01*
X43033Y-74360D01*
X42826Y-74445D01*
X42736Y-74535D01*
X40786Y-74535D01*
X39989Y-73738D01*
X39989Y-53761D01*
X44987Y-48763D01*
X45699Y-48763D01*
X45878Y-48943D01*
X46125Y-49045D01*
X46392Y-49045D01*
X46639Y-48943D01*
X46829Y-48755D01*
X46931Y-48508D01*
X46931Y-48240D01*
X46829Y-47993D01*
X46640Y-47804D01*
X46394Y-47702D01*
X46126Y-47702D01*
X45879Y-47804D01*
X45698Y-47984D01*
X44825Y-47984D01*
X44825Y-47984D01*
X44796Y-47990D01*
X44676Y-48014D01*
X44550Y-48098D01*
X44550Y-48098D01*
X39324Y-53324D01*
X39240Y-53450D01*
X39210Y-53600D01*
X39210Y-53600D01*
X39210Y-73899D01*
X39210Y-73900D01*
X39240Y-74049D01*
X39324Y-74175D01*
X40349Y-75200D01*
X40476Y-75284D01*
X40625Y-75314D01*
X42736Y-75314D01*
X42825Y-75403D01*
X43032Y-75490D01*
X43257Y-75490D01*
X43465Y-75404D01*
X43624Y-75245D01*
X43645Y-75194D01*
X43666Y-75244D01*
X43756Y-75334D01*
X43756Y-75593D01*
X43638Y-75710D01*
X39961Y-75710D01*
X37789Y-73538D01*
X37789Y-54661D01*
X44761Y-47689D01*
X46993Y-47689D01*
X47556Y-48252D01*
X47556Y-48507D01*
X47658Y-48754D01*
X47847Y-48943D01*
X48094Y-49045D01*
X48361Y-49045D01*
X48608Y-48943D01*
X48797Y-48755D01*
X48900Y-48508D01*
X48900Y-48240D01*
X48798Y-47993D01*
X48609Y-47804D01*
X48362Y-47702D01*
X48107Y-47702D01*
X47429Y-47024D01*
X47303Y-46940D01*
X47154Y-46910D01*
X47154Y-46910D01*
X44862Y-46910D01*
X44862Y-39190D01*
X44763Y-38951D01*
X44581Y-38768D01*
X44342Y-38669D01*
X44083Y-38668D01*
X43844Y-38767D01*
X43661Y-38950D01*
X43562Y-39189D01*
X43562Y-39447D01*
X43661Y-39686D01*
X43843Y-39869D01*
X44082Y-39968D01*
X44341Y-39969D01*
X44580Y-39870D01*
X44763Y-39687D01*
X44862Y-39448D01*
X44862Y-39190D01*
X44862Y-46910D01*
X44600Y-46910D01*
X44450Y-46940D01*
X44324Y-47024D01*
X44324Y-47024D01*
X42896Y-48453D01*
X42896Y-48240D01*
X42794Y-47993D01*
X42605Y-47804D01*
X42358Y-47702D01*
X42091Y-47702D01*
X41844Y-47804D01*
X41655Y-47992D01*
X41552Y-48239D01*
X41552Y-48507D01*
X41654Y-48754D01*
X41843Y-48943D01*
X42090Y-49045D01*
X42303Y-49045D01*
X40927Y-50421D01*
X40927Y-48240D01*
X40825Y-47993D01*
X40636Y-47804D01*
X40390Y-47702D01*
X40122Y-47702D01*
X39875Y-47804D01*
X39686Y-47992D01*
X39584Y-48239D01*
X39583Y-48507D01*
X39686Y-48754D01*
X39874Y-48943D01*
X40121Y-49045D01*
X40388Y-49045D01*
X40635Y-48943D01*
X40825Y-48755D01*
X40927Y-48508D01*
X40927Y-48240D01*
X40927Y-50421D01*
X37124Y-54224D01*
X37040Y-54350D01*
X37010Y-54500D01*
X37010Y-54500D01*
X37010Y-73699D01*
X37010Y-73700D01*
X37040Y-73849D01*
X37124Y-73975D01*
X39524Y-76375D01*
X39524Y-76375D01*
X39650Y-76459D01*
X39650Y-76459D01*
X39770Y-76483D01*
X39799Y-76489D01*
X39799Y-76489D01*
X39800Y-76489D01*
X43799Y-76489D01*
X43800Y-76489D01*
X43800Y-76489D01*
X43949Y-76459D01*
X44075Y-76375D01*
X44420Y-76029D01*
X44420Y-76029D01*
X44420Y-76029D01*
X44505Y-75903D01*
X44535Y-75754D01*
X44535Y-75334D01*
X44624Y-75245D01*
X44645Y-75194D01*
X44666Y-75244D01*
X44795Y-75374D01*
X44795Y-77862D01*
X44822Y-77996D01*
X44898Y-78109D01*
X47488Y-80700D01*
X47602Y-80776D01*
X47736Y-80802D01*
X48064Y-80802D01*
X47844Y-80893D01*
X47661Y-81076D01*
X47562Y-81315D01*
X47562Y-81573D01*
X47661Y-81812D01*
X47843Y-81995D01*
X48082Y-82094D01*
X48341Y-82094D01*
X48580Y-81996D01*
X48763Y-81813D01*
X48771Y-81794D01*
X68811Y-81794D01*
X68944Y-81768D01*
X68944Y-81768D01*
X69058Y-81692D01*
X73097Y-77653D01*
X83004Y-77653D01*
X83689Y-78337D01*
X83689Y-80886D01*
X83671Y-80893D01*
X83488Y-81076D01*
X83389Y-81315D01*
X83389Y-81573D01*
X83488Y-81812D01*
X83670Y-81995D01*
X83909Y-82094D01*
X84168Y-82094D01*
X84407Y-81996D01*
X84590Y-81813D01*
X84689Y-81574D01*
X84689Y-81316D01*
X84590Y-81077D01*
X84408Y-80894D01*
X84389Y-80886D01*
X84389Y-78192D01*
X84362Y-78058D01*
X84286Y-77945D01*
X84286Y-77945D01*
X83397Y-77055D01*
X83283Y-76979D01*
X83149Y-76953D01*
X72952Y-76953D01*
X72818Y-76979D01*
X72722Y-77044D01*
X72979Y-76787D01*
X78141Y-76787D01*
X78275Y-76760D01*
X78275Y-76760D01*
X78389Y-76684D01*
X82020Y-73052D01*
X82050Y-73065D01*
X82318Y-73065D01*
X82565Y-72963D01*
X82754Y-72774D01*
X82856Y-72527D01*
X82857Y-72260D01*
X82754Y-72013D01*
X82566Y-71824D01*
X82319Y-71721D01*
X82051Y-71721D01*
X81804Y-71823D01*
X81615Y-72012D01*
X81513Y-72259D01*
X81513Y-72526D01*
X81525Y-72557D01*
X77996Y-76087D01*
X72834Y-76087D01*
X72700Y-76113D01*
X72587Y-76189D01*
X68673Y-80102D01*
X47881Y-80102D01*
X45495Y-77717D01*
X45495Y-75374D01*
X45624Y-75245D01*
X45645Y-75194D01*
X45666Y-75244D01*
X45795Y-75374D01*
X45795Y-77681D01*
X45822Y-77815D01*
X45898Y-77928D01*
X47921Y-79952D01*
X47921Y-79952D01*
X48035Y-80028D01*
X48169Y-80054D01*
X48169Y-80054D01*
X48169Y-80054D01*
X68444Y-80054D01*
X68578Y-80028D01*
X68578Y-80028D01*
X68692Y-79952D01*
X72743Y-75901D01*
X74893Y-75901D01*
X75027Y-75874D01*
X75027Y-75874D01*
X75141Y-75798D01*
X77886Y-73052D01*
X77916Y-73065D01*
X78184Y-73065D01*
X78431Y-72963D01*
X78620Y-72774D01*
X78722Y-72527D01*
X78723Y-72260D01*
X78621Y-72013D01*
X78432Y-71824D01*
X78185Y-71721D01*
X77918Y-71721D01*
X77671Y-71823D01*
X77481Y-72012D01*
X77379Y-72259D01*
X77379Y-72526D01*
X77392Y-72557D01*
X74748Y-75201D01*
X72598Y-75201D01*
X72464Y-75227D01*
X72350Y-75303D01*
X68299Y-79354D01*
X48314Y-79354D01*
X46495Y-77536D01*
X46495Y-75374D01*
X46624Y-75245D01*
X46645Y-75194D01*
X46666Y-75244D01*
X46795Y-75374D01*
X46795Y-77519D01*
X46822Y-77653D01*
X46898Y-77767D01*
X48197Y-79066D01*
X48197Y-79066D01*
X48310Y-79142D01*
X48444Y-79168D01*
X48444Y-79168D01*
X48444Y-79168D01*
X67492Y-79168D01*
X67626Y-79142D01*
X67626Y-79142D01*
X67739Y-79066D01*
X73753Y-73052D01*
X73783Y-73065D01*
X74050Y-73065D01*
X74297Y-72963D01*
X74486Y-72774D01*
X74589Y-72527D01*
X74589Y-72260D01*
X74487Y-72013D01*
X74298Y-71824D01*
X74051Y-71721D01*
X73784Y-71721D01*
X73537Y-71823D01*
X73348Y-72012D01*
X73245Y-72259D01*
X73245Y-72526D01*
X73258Y-72557D01*
X67347Y-78468D01*
X48589Y-78468D01*
X47495Y-77374D01*
X47495Y-75374D01*
X47624Y-75245D01*
X47645Y-75194D01*
X47666Y-75244D01*
X47825Y-75403D01*
X48032Y-75490D01*
X48257Y-75490D01*
X48465Y-75404D01*
X48624Y-75245D01*
X48645Y-75194D01*
X48666Y-75244D01*
X48825Y-75403D01*
X49032Y-75490D01*
X49257Y-75490D01*
X49465Y-75404D01*
X49624Y-75245D01*
X49645Y-75194D01*
X49666Y-75244D01*
X49795Y-75374D01*
X49795Y-75578D01*
X49822Y-75712D01*
X49898Y-75826D01*
X50421Y-76349D01*
X50535Y-76425D01*
X50535Y-76425D01*
X50669Y-76452D01*
X68208Y-76452D01*
X68342Y-76425D01*
X68342Y-76425D01*
X68456Y-76349D01*
X73806Y-70999D01*
X83937Y-70999D01*
X85167Y-72229D01*
X85155Y-72259D01*
X85154Y-72526D01*
X85256Y-72773D01*
X85445Y-72962D01*
X85692Y-73065D01*
X85959Y-73065D01*
X86206Y-72963D01*
X86396Y-72774D01*
X86498Y-72527D01*
X86498Y-72260D01*
X86396Y-72013D01*
X86207Y-71824D01*
X85960Y-71721D01*
X85693Y-71721D01*
X85662Y-71734D01*
X84330Y-70402D01*
X84216Y-70326D01*
X84082Y-70299D01*
X82029Y-70299D01*
X82029Y-56075D01*
X82018Y-55867D01*
X81960Y-55727D01*
X81867Y-55702D01*
X81797Y-55773D01*
X81797Y-55632D01*
X81772Y-55539D01*
X81575Y-55470D01*
X81367Y-55481D01*
X81227Y-55539D01*
X81202Y-55632D01*
X81500Y-55929D01*
X81797Y-55632D01*
X81797Y-55773D01*
X81570Y-56000D01*
X81867Y-56297D01*
X81960Y-56272D01*
X82029Y-56075D01*
X82029Y-70299D01*
X82025Y-70299D01*
X82025Y-61896D01*
X81945Y-61703D01*
X81797Y-61555D01*
X81664Y-61499D01*
X81797Y-61445D01*
X81944Y-61297D01*
X82024Y-61104D01*
X82025Y-60896D01*
X81945Y-60703D01*
X81797Y-60555D01*
X81664Y-60499D01*
X81797Y-60445D01*
X81944Y-60297D01*
X82024Y-60104D01*
X82025Y-59896D01*
X81945Y-59703D01*
X81797Y-59555D01*
X81664Y-59499D01*
X81797Y-59445D01*
X81944Y-59297D01*
X82024Y-59104D01*
X82025Y-58896D01*
X81945Y-58703D01*
X81797Y-58555D01*
X81664Y-58499D01*
X81797Y-58445D01*
X81944Y-58297D01*
X82024Y-58104D01*
X82025Y-57896D01*
X81945Y-57703D01*
X81797Y-57555D01*
X81664Y-57499D01*
X81797Y-57445D01*
X81944Y-57297D01*
X82024Y-57104D01*
X82025Y-56896D01*
X81945Y-56703D01*
X81797Y-56555D01*
X81671Y-56502D01*
X81772Y-56460D01*
X81797Y-56367D01*
X81500Y-56070D01*
X81429Y-56141D01*
X81429Y-56000D01*
X81132Y-55702D01*
X81039Y-55727D01*
X80970Y-55924D01*
X80981Y-56132D01*
X81039Y-56272D01*
X81132Y-56297D01*
X81429Y-56000D01*
X81429Y-56141D01*
X81202Y-56367D01*
X81227Y-56460D01*
X81337Y-56499D01*
X81203Y-56554D01*
X81055Y-56702D01*
X80975Y-56895D01*
X80974Y-57103D01*
X81054Y-57297D01*
X81202Y-57444D01*
X81335Y-57500D01*
X81203Y-57554D01*
X81055Y-57702D01*
X80975Y-57895D01*
X80974Y-58103D01*
X81054Y-58297D01*
X81202Y-58444D01*
X81335Y-58500D01*
X81203Y-58554D01*
X81055Y-58702D01*
X80975Y-58895D01*
X80974Y-59103D01*
X81054Y-59297D01*
X81202Y-59444D01*
X81335Y-59500D01*
X81203Y-59554D01*
X81055Y-59702D01*
X80975Y-59895D01*
X80974Y-60103D01*
X81054Y-60297D01*
X81202Y-60444D01*
X81335Y-60500D01*
X81203Y-60554D01*
X81055Y-60702D01*
X80975Y-60895D01*
X80974Y-61103D01*
X81054Y-61297D01*
X81202Y-61444D01*
X81335Y-61500D01*
X81203Y-61554D01*
X81146Y-61610D01*
X68488Y-61610D01*
X68411Y-61534D01*
X68330Y-61500D01*
X68411Y-61466D01*
X68565Y-61311D01*
X68649Y-61109D01*
X68650Y-60891D01*
X68566Y-60688D01*
X68411Y-60534D01*
X68330Y-60500D01*
X68411Y-60466D01*
X68488Y-60389D01*
X68681Y-60389D01*
X68681Y-60389D01*
X68681Y-60389D01*
X68830Y-60359D01*
X68956Y-60275D01*
X69291Y-59940D01*
X69291Y-59940D01*
X69291Y-59940D01*
X69375Y-59814D01*
X69405Y-59665D01*
X69405Y-58484D01*
X69375Y-58335D01*
X69291Y-58208D01*
X69291Y-58208D01*
X69113Y-58031D01*
X69192Y-57952D01*
X69277Y-57826D01*
X69306Y-57677D01*
X69306Y-56220D01*
X69277Y-56071D01*
X69192Y-55945D01*
X69192Y-55945D01*
X68972Y-55724D01*
X68845Y-55640D01*
X68696Y-55610D01*
X68696Y-55610D01*
X68488Y-55610D01*
X68411Y-55534D01*
X68209Y-55450D01*
X67991Y-55449D01*
X67788Y-55533D01*
X67634Y-55688D01*
X67600Y-55769D01*
X67566Y-55688D01*
X67411Y-55534D01*
X67209Y-55450D01*
X66991Y-55449D01*
X66788Y-55533D01*
X66711Y-55610D01*
X60329Y-55610D01*
X60329Y-55075D01*
X60318Y-54867D01*
X60260Y-54727D01*
X60167Y-54702D01*
X59870Y-55000D01*
X60167Y-55297D01*
X60260Y-55272D01*
X60329Y-55075D01*
X60329Y-55610D01*
X60097Y-55610D01*
X60097Y-55367D01*
X59800Y-55070D01*
X59729Y-55141D01*
X59729Y-55000D01*
X59432Y-54702D01*
X59339Y-54727D01*
X59270Y-54924D01*
X59281Y-55132D01*
X59339Y-55272D01*
X59432Y-55297D01*
X59729Y-55000D01*
X59729Y-55141D01*
X59502Y-55367D01*
X59527Y-55460D01*
X59724Y-55529D01*
X59932Y-55518D01*
X60072Y-55460D01*
X60097Y-55367D01*
X60097Y-55610D01*
X55254Y-55610D01*
X55254Y-55081D01*
X55243Y-54863D01*
X55181Y-54712D01*
X55085Y-54684D01*
X54770Y-55000D01*
X55085Y-55315D01*
X55181Y-55287D01*
X55254Y-55081D01*
X55254Y-55610D01*
X55088Y-55610D01*
X55011Y-55534D01*
X54936Y-55502D01*
X54987Y-55481D01*
X55015Y-55385D01*
X54700Y-55070D01*
X54629Y-55141D01*
X54629Y-55000D01*
X54314Y-54684D01*
X54218Y-54712D01*
X54201Y-54760D01*
X54181Y-54712D01*
X54085Y-54684D01*
X53770Y-55000D01*
X54085Y-55315D01*
X54181Y-55287D01*
X54198Y-55239D01*
X54218Y-55287D01*
X54314Y-55315D01*
X54629Y-55000D01*
X54629Y-55141D01*
X54384Y-55385D01*
X54412Y-55481D01*
X54467Y-55500D01*
X54388Y-55533D01*
X54234Y-55688D01*
X54200Y-55769D01*
X54166Y-55688D01*
X54011Y-55534D01*
X53936Y-55502D01*
X53987Y-55481D01*
X54015Y-55385D01*
X53700Y-55070D01*
X53629Y-55141D01*
X53629Y-55000D01*
X53314Y-54684D01*
X53218Y-54712D01*
X53145Y-54918D01*
X53156Y-55136D01*
X53218Y-55287D01*
X53314Y-55315D01*
X53629Y-55000D01*
X53629Y-55141D01*
X53384Y-55385D01*
X53412Y-55481D01*
X53467Y-55500D01*
X53388Y-55533D01*
X53272Y-55650D01*
X50600Y-55650D01*
X50583Y-55653D01*
X50411Y-55653D01*
X50247Y-55720D01*
X50121Y-55846D01*
X50053Y-56010D01*
X50053Y-56188D01*
X50120Y-56352D01*
X50246Y-56478D01*
X50410Y-56546D01*
X50588Y-56546D01*
X50752Y-56479D01*
X50878Y-56353D01*
X50880Y-56350D01*
X53272Y-56350D01*
X53388Y-56465D01*
X53469Y-56499D01*
X53388Y-56533D01*
X53272Y-56650D01*
X49500Y-56650D01*
X49483Y-56653D01*
X49311Y-56653D01*
X49147Y-56720D01*
X49021Y-56846D01*
X48953Y-57010D01*
X48953Y-57188D01*
X49020Y-57352D01*
X49146Y-57478D01*
X49310Y-57546D01*
X49488Y-57546D01*
X49652Y-57479D01*
X49778Y-57353D01*
X49780Y-57350D01*
X53272Y-57350D01*
X53388Y-57465D01*
X53469Y-57499D01*
X53388Y-57533D01*
X53272Y-57650D01*
X48882Y-57650D01*
X48853Y-57621D01*
X48689Y-57553D01*
X48511Y-57553D01*
X48347Y-57620D01*
X48221Y-57746D01*
X48153Y-57910D01*
X48153Y-58088D01*
X48220Y-58252D01*
X48346Y-58378D01*
X48510Y-58446D01*
X48688Y-58446D01*
X48852Y-58379D01*
X48881Y-58350D01*
X53272Y-58350D01*
X53388Y-58465D01*
X53469Y-58499D01*
X53388Y-58533D01*
X53272Y-58650D01*
X47800Y-58650D01*
X47666Y-58676D01*
X47552Y-58752D01*
X47551Y-58753D01*
X47511Y-58753D01*
X47347Y-58820D01*
X47221Y-58946D01*
X47153Y-59110D01*
X47153Y-59288D01*
X47220Y-59452D01*
X47346Y-59578D01*
X47510Y-59646D01*
X47688Y-59646D01*
X47852Y-59579D01*
X47978Y-59453D01*
X48021Y-59350D01*
X53272Y-59350D01*
X53388Y-59465D01*
X53469Y-59499D01*
X53388Y-59533D01*
X53272Y-59650D01*
X46782Y-59650D01*
X46753Y-59621D01*
X46589Y-59553D01*
X46411Y-59553D01*
X46247Y-59620D01*
X46121Y-59746D01*
X46053Y-59910D01*
X46053Y-60088D01*
X46120Y-60252D01*
X46246Y-60378D01*
X46410Y-60446D01*
X46588Y-60446D01*
X46752Y-60379D01*
X46781Y-60350D01*
X53272Y-60350D01*
X53388Y-60465D01*
X53469Y-60499D01*
X53388Y-60533D01*
X53272Y-60650D01*
X45600Y-60650D01*
X45583Y-60653D01*
X45411Y-60653D01*
X45247Y-60720D01*
X45121Y-60846D01*
X45053Y-61010D01*
X45053Y-61188D01*
X45120Y-61352D01*
X45246Y-61478D01*
X45410Y-61546D01*
X45588Y-61546D01*
X45752Y-61479D01*
X45878Y-61353D01*
X45880Y-61350D01*
X53272Y-61350D01*
X53388Y-61465D01*
X53469Y-61499D01*
X53388Y-61533D01*
X53272Y-61650D01*
X44700Y-61650D01*
X44566Y-61676D01*
X44452Y-61752D01*
X44451Y-61753D01*
X44411Y-61753D01*
X44247Y-61820D01*
X44121Y-61946D01*
X44053Y-62110D01*
X44053Y-62288D01*
X44120Y-62452D01*
X44246Y-62578D01*
X44410Y-62646D01*
X44588Y-62646D01*
X44752Y-62579D01*
X44878Y-62453D01*
X44921Y-62350D01*
X53272Y-62350D01*
X53372Y-62449D01*
X53350Y-62449D01*
X53258Y-62487D01*
X53188Y-62558D01*
X53150Y-62650D01*
X43900Y-62650D01*
X43899Y-62650D01*
X43766Y-62676D01*
X43652Y-62752D01*
X43652Y-62752D01*
X43551Y-62853D01*
X43511Y-62853D01*
X43347Y-62920D01*
X43221Y-63046D01*
X43153Y-63210D01*
X43153Y-63388D01*
X43220Y-63552D01*
X43346Y-63678D01*
X43510Y-63746D01*
X43688Y-63746D01*
X43852Y-63679D01*
X43978Y-63553D01*
X44046Y-63389D01*
X44046Y-63350D01*
X53150Y-63350D01*
X53187Y-63441D01*
X53258Y-63511D01*
X53350Y-63549D01*
X53449Y-63550D01*
X54049Y-63550D01*
X54141Y-63512D01*
X54211Y-63441D01*
X54249Y-63349D01*
X54249Y-63327D01*
X54388Y-63465D01*
X54590Y-63549D01*
X54808Y-63550D01*
X55011Y-63466D01*
X55088Y-63389D01*
X66566Y-63389D01*
X66587Y-63441D01*
X66658Y-63511D01*
X66750Y-63549D01*
X66849Y-63550D01*
X67449Y-63550D01*
X67541Y-63512D01*
X67611Y-63441D01*
X67649Y-63349D01*
X67649Y-63327D01*
X67788Y-63465D01*
X67990Y-63549D01*
X68208Y-63550D01*
X68411Y-63466D01*
X68488Y-63389D01*
X81001Y-63389D01*
X81012Y-63416D01*
X81083Y-63486D01*
X81175Y-63524D01*
X81274Y-63525D01*
X81824Y-63525D01*
X81916Y-63487D01*
X81986Y-63416D01*
X82024Y-63324D01*
X82025Y-63225D01*
X82025Y-62675D01*
X81987Y-62583D01*
X81916Y-62513D01*
X81824Y-62475D01*
X81725Y-62474D01*
X81725Y-62474D01*
X81797Y-62445D01*
X81944Y-62297D01*
X82024Y-62104D01*
X82025Y-61896D01*
X82025Y-70299D01*
X73661Y-70299D01*
X73661Y-70299D01*
X73527Y-70326D01*
X73413Y-70402D01*
X73413Y-70402D01*
X73413Y-70402D01*
X68063Y-75752D01*
X55425Y-75752D01*
X55425Y-66237D01*
X55223Y-65750D01*
X54851Y-65377D01*
X54364Y-65175D01*
X53837Y-65174D01*
X53350Y-65376D01*
X52977Y-65748D01*
X52775Y-66235D01*
X52774Y-66762D01*
X52976Y-67249D01*
X53348Y-67622D01*
X53835Y-67824D01*
X54362Y-67825D01*
X54849Y-67623D01*
X55222Y-67251D01*
X55424Y-66764D01*
X55425Y-66237D01*
X55425Y-75752D01*
X50814Y-75752D01*
X50495Y-75433D01*
X50495Y-75374D01*
X50624Y-75245D01*
X50645Y-75194D01*
X50666Y-75244D01*
X50825Y-75403D01*
X51032Y-75490D01*
X51257Y-75490D01*
X51465Y-75404D01*
X51555Y-75314D01*
X53474Y-75314D01*
X53474Y-75314D01*
X53474Y-75314D01*
X53623Y-75284D01*
X53750Y-75200D01*
X54100Y-74850D01*
X54449Y-74850D01*
X54541Y-74812D01*
X54611Y-74741D01*
X54649Y-74649D01*
X54650Y-74550D01*
X54650Y-73950D01*
X54612Y-73858D01*
X54541Y-73788D01*
X54449Y-73750D01*
X54427Y-73750D01*
X54565Y-73611D01*
X54649Y-73409D01*
X54650Y-73191D01*
X54566Y-72988D01*
X54411Y-72834D01*
X54209Y-72750D01*
X53991Y-72749D01*
X53788Y-72833D01*
X53711Y-72910D01*
X51715Y-72910D01*
X51715Y-72010D01*
X51704Y-71786D01*
X51639Y-71628D01*
X51542Y-71599D01*
X51471Y-71669D01*
X51471Y-71528D01*
X51442Y-71431D01*
X51231Y-71355D01*
X51006Y-71366D01*
X50848Y-71431D01*
X50819Y-71528D01*
X51145Y-71854D01*
X51471Y-71528D01*
X51471Y-71669D01*
X51216Y-71925D01*
X51542Y-72251D01*
X51639Y-72222D01*
X51715Y-72010D01*
X51715Y-72910D01*
X51471Y-72910D01*
X51471Y-72321D01*
X51145Y-71995D01*
X51074Y-72066D01*
X51074Y-71925D01*
X50748Y-71599D01*
X50652Y-71628D01*
X50643Y-71651D01*
X50624Y-71605D01*
X50466Y-71446D01*
X50258Y-71360D01*
X50033Y-71360D01*
X49826Y-71445D01*
X49666Y-71604D01*
X49645Y-71655D01*
X49624Y-71605D01*
X49466Y-71446D01*
X49258Y-71360D01*
X49033Y-71360D01*
X48826Y-71445D01*
X48666Y-71604D01*
X48645Y-71655D01*
X48624Y-71605D01*
X48466Y-71446D01*
X48258Y-71360D01*
X48033Y-71360D01*
X47826Y-71445D01*
X47666Y-71604D01*
X47645Y-71655D01*
X47624Y-71605D01*
X47466Y-71446D01*
X47258Y-71360D01*
X47033Y-71360D01*
X46826Y-71445D01*
X46666Y-71604D01*
X46645Y-71655D01*
X46624Y-71605D01*
X46466Y-71446D01*
X46258Y-71360D01*
X46033Y-71360D01*
X45826Y-71445D01*
X45666Y-71604D01*
X45645Y-71655D01*
X45624Y-71605D01*
X45466Y-71446D01*
X45258Y-71360D01*
X45033Y-71360D01*
X44826Y-71445D01*
X44666Y-71604D01*
X44645Y-71655D01*
X44624Y-71605D01*
X44466Y-71446D01*
X44258Y-71360D01*
X44033Y-71360D01*
X43826Y-71445D01*
X43710Y-71561D01*
X43710Y-71560D01*
X43672Y-71468D01*
X43602Y-71398D01*
X43510Y-71360D01*
X43411Y-71360D01*
X42781Y-71360D01*
X42689Y-71398D01*
X42618Y-71468D01*
X42580Y-71560D01*
X42580Y-71659D01*
X42580Y-72289D01*
X42618Y-72381D01*
X42688Y-72451D01*
X42780Y-72490D01*
X42880Y-72490D01*
X43510Y-72490D01*
X43602Y-72452D01*
X43672Y-72381D01*
X43710Y-72290D01*
X43710Y-72289D01*
X43825Y-72403D01*
X44032Y-72490D01*
X44257Y-72490D01*
X44465Y-72404D01*
X44624Y-72245D01*
X44645Y-72194D01*
X44666Y-72244D01*
X44825Y-72403D01*
X45032Y-72490D01*
X45257Y-72490D01*
X45465Y-72404D01*
X45624Y-72245D01*
X45645Y-72194D01*
X45666Y-72244D01*
X45825Y-72403D01*
X46032Y-72490D01*
X46257Y-72490D01*
X46465Y-72404D01*
X46624Y-72245D01*
X46645Y-72194D01*
X46666Y-72244D01*
X46825Y-72403D01*
X47032Y-72490D01*
X47257Y-72490D01*
X47465Y-72404D01*
X47624Y-72245D01*
X47645Y-72194D01*
X47666Y-72244D01*
X47825Y-72403D01*
X48032Y-72490D01*
X48257Y-72490D01*
X48465Y-72404D01*
X48624Y-72245D01*
X48645Y-72194D01*
X48666Y-72244D01*
X48825Y-72403D01*
X49032Y-72490D01*
X49257Y-72490D01*
X49465Y-72404D01*
X49624Y-72245D01*
X49645Y-72194D01*
X49666Y-72244D01*
X49825Y-72403D01*
X50032Y-72490D01*
X50257Y-72490D01*
X50465Y-72404D01*
X50624Y-72245D01*
X50643Y-72200D01*
X50652Y-72222D01*
X50748Y-72251D01*
X51074Y-71925D01*
X51074Y-72066D01*
X50819Y-72321D01*
X50848Y-72418D01*
X51060Y-72494D01*
X51284Y-72484D01*
X51442Y-72418D01*
X51471Y-72321D01*
X51471Y-72910D01*
X42260Y-72910D01*
X41338Y-71988D01*
X41338Y-57598D01*
X44547Y-54389D01*
X53311Y-54389D01*
X53388Y-54465D01*
X53463Y-54497D01*
X53412Y-54518D01*
X53384Y-54614D01*
X53700Y-54929D01*
X54015Y-54614D01*
X53987Y-54518D01*
X53932Y-54499D01*
X54011Y-54466D01*
X54088Y-54389D01*
X54311Y-54389D01*
X54388Y-54465D01*
X54463Y-54497D01*
X54412Y-54518D01*
X54384Y-54614D01*
X54700Y-54929D01*
X55015Y-54614D01*
X54987Y-54518D01*
X54932Y-54499D01*
X55011Y-54466D01*
X55088Y-54389D01*
X59446Y-54389D01*
X59502Y-54444D01*
X59628Y-54497D01*
X59527Y-54539D01*
X59502Y-54632D01*
X59800Y-54929D01*
X60097Y-54632D01*
X60072Y-54539D01*
X59962Y-54500D01*
X60097Y-54445D01*
X60153Y-54389D01*
X86738Y-54389D01*
X88110Y-55761D01*
X88110Y-56238D01*
X87638Y-56710D01*
X87588Y-56710D01*
X87527Y-56650D01*
X87549Y-56650D01*
X87641Y-56612D01*
X87711Y-56541D01*
X87749Y-56449D01*
X87750Y-56350D01*
X87750Y-55750D01*
X87712Y-55658D01*
X87641Y-55588D01*
X87549Y-55550D01*
X87450Y-55549D01*
X86850Y-55549D01*
X86758Y-55587D01*
X86735Y-55610D01*
X84853Y-55610D01*
X84797Y-55555D01*
X84604Y-55475D01*
X84396Y-55474D01*
X84203Y-55554D01*
X84055Y-55702D01*
X83975Y-55895D01*
X83974Y-56103D01*
X84054Y-56297D01*
X84202Y-56444D01*
X84335Y-56500D01*
X84203Y-56554D01*
X84055Y-56702D01*
X83975Y-56895D01*
X83974Y-57103D01*
X84054Y-57297D01*
X84202Y-57444D01*
X84335Y-57500D01*
X84203Y-57554D01*
X84055Y-57702D01*
X83975Y-57895D01*
X83974Y-58103D01*
X84054Y-58297D01*
X84202Y-58444D01*
X84335Y-58500D01*
X84203Y-58554D01*
X84055Y-58702D01*
X83975Y-58895D01*
X83974Y-59103D01*
X84054Y-59297D01*
X84202Y-59444D01*
X84335Y-59500D01*
X84203Y-59554D01*
X84055Y-59702D01*
X83975Y-59895D01*
X83974Y-60103D01*
X84054Y-60297D01*
X84202Y-60444D01*
X84335Y-60500D01*
X84203Y-60554D01*
X84055Y-60702D01*
X83975Y-60895D01*
X83974Y-61103D01*
X84054Y-61297D01*
X84202Y-61444D01*
X84335Y-61500D01*
X84203Y-61554D01*
X84055Y-61702D01*
X83975Y-61895D01*
X83974Y-62103D01*
X84054Y-62297D01*
X84202Y-62444D01*
X84335Y-62500D01*
X84203Y-62554D01*
X84055Y-62702D01*
X83975Y-62895D01*
X83974Y-63103D01*
X84054Y-63297D01*
X84202Y-63444D01*
X84395Y-63524D01*
X84603Y-63525D01*
X84797Y-63445D01*
X84853Y-63389D01*
X86138Y-63389D01*
X89472Y-66723D01*
X89472Y-71833D01*
X89292Y-72012D01*
X89190Y-72259D01*
X89190Y-72526D01*
X89292Y-72773D01*
X89481Y-72962D01*
X89727Y-73065D01*
X89995Y-73065D01*
X90242Y-72963D01*
X90431Y-72774D01*
X90533Y-72527D01*
X90534Y-72260D01*
X90534Y-78043D01*
X90444Y-78043D01*
X90432Y-78013D01*
X90243Y-77824D01*
X89996Y-77721D01*
X89729Y-77721D01*
X89482Y-77823D01*
X89292Y-78012D01*
X89190Y-78259D01*
X89190Y-78526D01*
X89292Y-78773D01*
X89481Y-78962D01*
X89727Y-79065D01*
X89995Y-79065D01*
X90242Y-78963D01*
X90431Y-78774D01*
X90444Y-78743D01*
X93673Y-78743D01*
X93683Y-78768D01*
X93844Y-78929D01*
X93694Y-79079D01*
X92982Y-79079D01*
X92848Y-79105D01*
X92734Y-79181D01*
X89382Y-82533D01*
X86498Y-82533D01*
X86498Y-78260D01*
X86396Y-78013D01*
X86207Y-77824D01*
X85960Y-77721D01*
X85693Y-77721D01*
X85446Y-77823D01*
X85257Y-78012D01*
X85155Y-78259D01*
X85154Y-78526D01*
X85256Y-78773D01*
X85445Y-78962D01*
X85692Y-79065D01*
X85959Y-79065D01*
X86206Y-78963D01*
X86396Y-78774D01*
X86498Y-78527D01*
X86498Y-78260D01*
X86498Y-82533D01*
X82857Y-82533D01*
X82857Y-78260D01*
X82754Y-78013D01*
X82566Y-77824D01*
X82319Y-77721D01*
X82051Y-77721D01*
X81804Y-77823D01*
X81615Y-78012D01*
X81513Y-78259D01*
X81513Y-78526D01*
X81615Y-78773D01*
X81803Y-78962D01*
X82050Y-79065D01*
X82318Y-79065D01*
X82565Y-78963D01*
X82754Y-78774D01*
X82856Y-78527D01*
X82857Y-78260D01*
X82857Y-82533D01*
X82689Y-82533D01*
X82689Y-81316D01*
X82590Y-81077D01*
X82408Y-80894D01*
X82169Y-80794D01*
X81910Y-80794D01*
X81671Y-80893D01*
X81488Y-81076D01*
X81389Y-81315D01*
X81389Y-81573D01*
X81488Y-81812D01*
X81670Y-81995D01*
X81909Y-82094D01*
X82168Y-82094D01*
X82407Y-81996D01*
X82590Y-81813D01*
X82689Y-81574D01*
X82689Y-81316D01*
X82689Y-82533D01*
X81129Y-82533D01*
X80499Y-81904D01*
X80590Y-81813D01*
X80689Y-81574D01*
X80689Y-81316D01*
X80590Y-81077D01*
X80408Y-80894D01*
X80169Y-80794D01*
X79910Y-80794D01*
X79671Y-80893D01*
X79488Y-81076D01*
X79389Y-81315D01*
X79389Y-81573D01*
X79488Y-81812D01*
X79670Y-81995D01*
X79703Y-82009D01*
X79703Y-82009D01*
X79716Y-82072D01*
X79791Y-82186D01*
X80736Y-83131D01*
X80850Y-83207D01*
X80984Y-83233D01*
X89527Y-83233D01*
X89661Y-83207D01*
X89661Y-83207D01*
X89775Y-83131D01*
X93127Y-79779D01*
X93694Y-79779D01*
X93758Y-79843D01*
X93701Y-79867D01*
X93631Y-79937D01*
X93592Y-80029D01*
X93592Y-80128D01*
X93592Y-80828D01*
X93630Y-80920D01*
X93701Y-80990D01*
X93792Y-81029D01*
X93892Y-81029D01*
X94592Y-81029D01*
X94684Y-80991D01*
X94754Y-80920D01*
X94792Y-80829D01*
X94792Y-80729D01*
X94792Y-80029D01*
X94754Y-79937D01*
X94684Y-79867D01*
X94627Y-79843D01*
X94701Y-79769D01*
X94792Y-79549D01*
X94793Y-79310D01*
X94793Y-87352D01*
X78723Y-87352D01*
X78723Y-78260D01*
X78621Y-78013D01*
X78432Y-77824D01*
X78185Y-77721D01*
X77918Y-77721D01*
X77671Y-77823D01*
X77481Y-78012D01*
X77379Y-78259D01*
X77379Y-78526D01*
X77481Y-78773D01*
X77670Y-78962D01*
X77916Y-79065D01*
X78184Y-79065D01*
X78431Y-78963D01*
X78620Y-78774D01*
X78722Y-78527D01*
X78723Y-78260D01*
X78723Y-87352D01*
X78689Y-87352D01*
X78689Y-81316D01*
X78590Y-81077D01*
X78408Y-80894D01*
X78169Y-80794D01*
X77910Y-80794D01*
X77671Y-80893D01*
X77488Y-81076D01*
X77389Y-81315D01*
X77389Y-81573D01*
X77488Y-81812D01*
X77670Y-81995D01*
X77909Y-82094D01*
X78168Y-82094D01*
X78407Y-81996D01*
X78590Y-81813D01*
X78689Y-81574D01*
X78689Y-81316D01*
X78689Y-87352D01*
X76689Y-87352D01*
X76689Y-81795D01*
X76689Y-80995D01*
X76651Y-80903D01*
X76581Y-80833D01*
X76489Y-80794D01*
X76389Y-80794D01*
X75884Y-80794D01*
X74267Y-79177D01*
X74267Y-78976D01*
X74297Y-78963D01*
X74486Y-78774D01*
X74589Y-78527D01*
X74589Y-78260D01*
X74487Y-78013D01*
X74298Y-77824D01*
X74051Y-77721D01*
X73784Y-77721D01*
X73537Y-77823D01*
X73348Y-78012D01*
X73245Y-78259D01*
X73245Y-78526D01*
X73347Y-78773D01*
X73536Y-78962D01*
X73567Y-78975D01*
X73567Y-79322D01*
X73593Y-79456D01*
X73669Y-79570D01*
X75389Y-81289D01*
X75389Y-81894D01*
X75427Y-81986D01*
X75497Y-82056D01*
X75589Y-82094D01*
X75677Y-82094D01*
X74264Y-83508D01*
X74072Y-83508D01*
X74158Y-83422D01*
X74226Y-83258D01*
X74226Y-83080D01*
X74158Y-82916D01*
X74032Y-82790D01*
X73868Y-82722D01*
X73691Y-82722D01*
X73526Y-82790D01*
X73497Y-82819D01*
X46862Y-82819D01*
X46862Y-81316D01*
X46763Y-81077D01*
X46581Y-80894D01*
X46342Y-80794D01*
X46083Y-80794D01*
X45844Y-80893D01*
X45661Y-81076D01*
X45562Y-81315D01*
X45562Y-81573D01*
X45661Y-81812D01*
X45843Y-81995D01*
X46082Y-82094D01*
X46341Y-82094D01*
X46580Y-81996D01*
X46763Y-81813D01*
X46862Y-81574D01*
X46862Y-81316D01*
X46862Y-82819D01*
X44862Y-82819D01*
X44862Y-81316D01*
X44763Y-81077D01*
X44581Y-80894D01*
X44342Y-80794D01*
X44083Y-80794D01*
X44065Y-80802D01*
X42444Y-79181D01*
X42330Y-79105D01*
X42196Y-79079D01*
X31797Y-79079D01*
X31647Y-78929D01*
X31797Y-78779D01*
X34868Y-78779D01*
X35052Y-78962D01*
X35298Y-79065D01*
X35566Y-79065D01*
X35813Y-78963D01*
X36002Y-78774D01*
X36104Y-78527D01*
X36105Y-78260D01*
X36105Y-72260D01*
X36002Y-72013D01*
X35814Y-71824D01*
X35567Y-71721D01*
X35300Y-71721D01*
X35052Y-71823D01*
X34863Y-72012D01*
X34761Y-72259D01*
X34761Y-72526D01*
X34863Y-72773D01*
X35052Y-72962D01*
X35298Y-73065D01*
X35566Y-73065D01*
X35813Y-72963D01*
X36002Y-72774D01*
X36104Y-72527D01*
X36105Y-72260D01*
X36105Y-78260D01*
X36002Y-78013D01*
X35814Y-77824D01*
X35567Y-77721D01*
X35300Y-77721D01*
X35052Y-77823D01*
X34863Y-78012D01*
X34836Y-78079D01*
X31797Y-78079D01*
X31639Y-77920D01*
X31419Y-77829D01*
X31180Y-77829D01*
X30959Y-77920D01*
X30790Y-78088D01*
X30699Y-78309D01*
X30699Y-78547D01*
X30790Y-78768D01*
X30950Y-78929D01*
X30790Y-79088D01*
X30699Y-79309D01*
X30699Y-79547D01*
X30790Y-79768D01*
X30864Y-79843D01*
X30807Y-79867D01*
X30737Y-79937D01*
X30699Y-80029D01*
X30699Y-80128D01*
X30699Y-80828D01*
X30737Y-80920D01*
X30807Y-80990D01*
X30899Y-81029D01*
X30998Y-81029D01*
X31698Y-81029D01*
X31790Y-80991D01*
X31861Y-80920D01*
X31899Y-80829D01*
X31899Y-80729D01*
X31899Y-80029D01*
X31861Y-79937D01*
X31791Y-79867D01*
X31733Y-79843D01*
X31797Y-79779D01*
X42051Y-79779D01*
X43570Y-81297D01*
X43562Y-81315D01*
X43562Y-81573D01*
X43661Y-81812D01*
X43843Y-81995D01*
X44082Y-82094D01*
X44341Y-82094D01*
X44580Y-81996D01*
X44763Y-81813D01*
X44862Y-81574D01*
X44862Y-81316D01*
X44862Y-82819D01*
X42900Y-82819D01*
X42562Y-82481D01*
X42562Y-82003D01*
X42580Y-81996D01*
X42763Y-81813D01*
X42862Y-81574D01*
X42862Y-81316D01*
X42763Y-81077D01*
X42581Y-80894D01*
X42342Y-80794D01*
X42083Y-80794D01*
X41844Y-80893D01*
X41661Y-81076D01*
X41562Y-81315D01*
X41562Y-81573D01*
X41661Y-81812D01*
X41843Y-81995D01*
X41862Y-82003D01*
X41862Y-82625D01*
X41889Y-82759D01*
X41965Y-82873D01*
X42508Y-83416D01*
X42508Y-83416D01*
X42621Y-83492D01*
X42700Y-83508D01*
X41601Y-83508D01*
X40562Y-82469D01*
X40562Y-82094D01*
X40662Y-82094D01*
X40754Y-82056D01*
X40824Y-81986D01*
X40862Y-81894D01*
X40862Y-81795D01*
X40862Y-80995D01*
X40824Y-80903D01*
X40754Y-80833D01*
X40662Y-80794D01*
X40563Y-80794D01*
X39763Y-80794D01*
X39671Y-80832D01*
X39600Y-80903D01*
X39562Y-80994D01*
X39562Y-81094D01*
X39562Y-81894D01*
X39600Y-81986D01*
X39670Y-82056D01*
X39762Y-82094D01*
X39862Y-82094D01*
X39862Y-82094D01*
X39862Y-82614D01*
X39889Y-82748D01*
X39965Y-82861D01*
X41209Y-84105D01*
X41209Y-84105D01*
X41322Y-84181D01*
X41456Y-84208D01*
X41456Y-84208D01*
X74409Y-84208D01*
X74543Y-84181D01*
X74543Y-84181D01*
X74656Y-84105D01*
X76286Y-82475D01*
X76362Y-82362D01*
X76362Y-82362D01*
X76389Y-82228D01*
X76389Y-82094D01*
X76488Y-82094D01*
X76580Y-82056D01*
X76651Y-81986D01*
X76689Y-81894D01*
X76689Y-81795D01*
X76689Y-87352D01*
X31645Y-87352D01*
X31641Y-87352D01*
X29450Y-87352D01*
X29450Y-34592D01*
X29290Y-34206D01*
X28995Y-33910D01*
X28609Y-33750D01*
X28192Y-33749D01*
X27806Y-33909D01*
X27510Y-34204D01*
X27350Y-34590D01*
X27349Y-35007D01*
X27509Y-35394D01*
X27804Y-35689D01*
X28190Y-35849D01*
X28607Y-35850D01*
X28994Y-35690D01*
X29289Y-35395D01*
X29449Y-35009D01*
X29450Y-34592D01*
X29450Y-87352D01*
X29250Y-87352D01*
X29250Y-85792D01*
X29090Y-85406D01*
X28795Y-85110D01*
X28409Y-84950D01*
X27992Y-84949D01*
X27606Y-85109D01*
X27310Y-85404D01*
X27150Y-85790D01*
X27149Y-86207D01*
X27309Y-86594D01*
X27604Y-86889D01*
X27990Y-87049D01*
X28407Y-87050D01*
X28794Y-86890D01*
X29089Y-86595D01*
X29249Y-86209D01*
X29250Y-85792D01*
X29250Y-87352D01*
X26820Y-87352D01*
X26820Y-36401D01*
X26820Y-33446D01*
X97420Y-33446D01*
X97420Y-87352D01*
X97420Y-87352D01*
G37*
G54D30*
X97420Y-87352D02*
X97050Y-87352D01*
X97050Y-85792D01*
X97050Y-34592D01*
X96890Y-34206D01*
X96595Y-33910D01*
X96209Y-33750D01*
X95792Y-33749D01*
X95406Y-33909D01*
X95110Y-34204D01*
X94950Y-34590D01*
X94949Y-35007D01*
X95109Y-35394D01*
X95404Y-35689D01*
X95790Y-35849D01*
X96207Y-35850D01*
X96594Y-35690D01*
X96889Y-35395D01*
X97049Y-35009D01*
X97050Y-34592D01*
X97050Y-85792D01*
X96890Y-85406D01*
X96595Y-85110D01*
X96209Y-84950D01*
X95792Y-84949D01*
X95406Y-85109D01*
X95110Y-85404D01*
X94950Y-85790D01*
X94949Y-86207D01*
X95109Y-86594D01*
X95404Y-86889D01*
X95790Y-87049D01*
X96207Y-87050D01*
X96594Y-86890D01*
X96889Y-86595D01*
X97049Y-86209D01*
X97050Y-85792D01*
X97050Y-87352D01*
X94793Y-87352D01*
X94793Y-79310D01*
X94701Y-79089D01*
X94541Y-78929D01*
X94701Y-78769D01*
X94792Y-78549D01*
X94793Y-78310D01*
X94701Y-78089D01*
X94533Y-77920D01*
X94312Y-77829D01*
X94074Y-77829D01*
X93853Y-77920D01*
X93729Y-78043D01*
X90534Y-78043D01*
X90534Y-72260D01*
X90432Y-72013D01*
X90251Y-71832D01*
X90251Y-66562D01*
X90221Y-66413D01*
X90137Y-66286D01*
X90137Y-66286D01*
X86575Y-62724D01*
X86449Y-62640D01*
X86300Y-62610D01*
X86299Y-62610D01*
X84853Y-62610D01*
X84797Y-62555D01*
X84664Y-62499D01*
X84797Y-62445D01*
X84944Y-62297D01*
X85024Y-62104D01*
X85025Y-61896D01*
X84945Y-61703D01*
X84797Y-61555D01*
X84664Y-61499D01*
X84797Y-61445D01*
X84944Y-61297D01*
X85024Y-61104D01*
X85025Y-60896D01*
X84945Y-60703D01*
X84797Y-60555D01*
X84664Y-60499D01*
X84797Y-60445D01*
X84944Y-60297D01*
X85024Y-60104D01*
X85025Y-59896D01*
X84945Y-59703D01*
X84797Y-59555D01*
X84664Y-59499D01*
X84797Y-59445D01*
X84944Y-59297D01*
X85024Y-59104D01*
X85025Y-58896D01*
X84945Y-58703D01*
X84797Y-58555D01*
X84664Y-58499D01*
X84797Y-58445D01*
X84944Y-58297D01*
X85024Y-58104D01*
X85025Y-57896D01*
X84945Y-57703D01*
X84797Y-57555D01*
X84664Y-57499D01*
X84797Y-57445D01*
X84944Y-57297D01*
X85024Y-57104D01*
X85025Y-56896D01*
X84945Y-56703D01*
X84797Y-56555D01*
X84664Y-56499D01*
X84797Y-56445D01*
X84853Y-56389D01*
X86649Y-56389D01*
X86649Y-56449D01*
X86687Y-56541D01*
X86758Y-56611D01*
X86850Y-56649D01*
X86872Y-56649D01*
X86734Y-56788D01*
X86650Y-56990D01*
X86649Y-57208D01*
X86733Y-57411D01*
X86888Y-57565D01*
X87090Y-57649D01*
X87308Y-57650D01*
X87511Y-57566D01*
X87588Y-57489D01*
X87799Y-57489D01*
X87800Y-57489D01*
X87800Y-57489D01*
X87949Y-57459D01*
X88075Y-57375D01*
X88775Y-56675D01*
X88775Y-56675D01*
X88775Y-56675D01*
X88859Y-56549D01*
X88889Y-56400D01*
X88889Y-56400D01*
X88889Y-56400D01*
X88889Y-55600D01*
X88889Y-55599D01*
X88889Y-55599D01*
X88883Y-55570D01*
X88859Y-55450D01*
X88859Y-55450D01*
X88775Y-55324D01*
X88775Y-55324D01*
X87175Y-53724D01*
X87049Y-53640D01*
X86900Y-53610D01*
X86899Y-53610D01*
X84689Y-53610D01*
X84689Y-39190D01*
X84590Y-38951D01*
X84408Y-38768D01*
X84169Y-38669D01*
X83910Y-38668D01*
X83671Y-38767D01*
X83488Y-38950D01*
X83389Y-39189D01*
X83389Y-39447D01*
X83488Y-39686D01*
X83647Y-39846D01*
X83647Y-40010D01*
X81432Y-42226D01*
X73390Y-42226D01*
X70206Y-39041D01*
X70079Y-38956D01*
X69929Y-38927D01*
X48739Y-38927D01*
X48590Y-38777D01*
X70703Y-38777D01*
X73738Y-41812D01*
X73738Y-41812D01*
X73865Y-41897D01*
X74015Y-41927D01*
X80708Y-41927D01*
X80858Y-41897D01*
X80985Y-41812D01*
X82316Y-40481D01*
X82316Y-40481D01*
X82373Y-40396D01*
X82401Y-40354D01*
X82401Y-40354D01*
X82431Y-40204D01*
X82431Y-40204D01*
X82431Y-39846D01*
X82590Y-39687D01*
X82689Y-39448D01*
X82689Y-39190D01*
X82590Y-38951D01*
X82408Y-38768D01*
X82169Y-38669D01*
X81910Y-38668D01*
X81671Y-38767D01*
X81488Y-38950D01*
X81389Y-39189D01*
X81389Y-39447D01*
X81488Y-39686D01*
X81647Y-39846D01*
X81647Y-40042D01*
X80689Y-41000D01*
X80689Y-39190D01*
X80590Y-38951D01*
X80408Y-38768D01*
X80169Y-38669D01*
X79910Y-38668D01*
X79671Y-38767D01*
X79488Y-38950D01*
X79389Y-39189D01*
X79389Y-39447D01*
X79488Y-39686D01*
X79670Y-39869D01*
X79909Y-39968D01*
X80168Y-39969D01*
X80407Y-39870D01*
X80590Y-39687D01*
X80689Y-39448D01*
X80689Y-39190D01*
X80689Y-41000D01*
X80546Y-41143D01*
X74178Y-41143D01*
X71143Y-38108D01*
X71112Y-38088D01*
X71786Y-38088D01*
X74723Y-41025D01*
X74850Y-41109D01*
X75000Y-41139D01*
X77165Y-41139D01*
X77315Y-41109D01*
X77442Y-41025D01*
X78316Y-40151D01*
X78401Y-40023D01*
X78431Y-39874D01*
X78431Y-39846D01*
X78590Y-39687D01*
X78689Y-39448D01*
X78689Y-39190D01*
X78590Y-38951D01*
X78408Y-38768D01*
X78169Y-38669D01*
X77910Y-38668D01*
X77671Y-38767D01*
X77488Y-38950D01*
X77389Y-39189D01*
X77389Y-39447D01*
X77488Y-39686D01*
X77580Y-39779D01*
X77003Y-40356D01*
X75162Y-40356D01*
X72225Y-37419D01*
X72195Y-37399D01*
X74640Y-37399D01*
X75647Y-38406D01*
X75647Y-38791D01*
X75488Y-38950D01*
X75389Y-39189D01*
X75389Y-39447D01*
X75488Y-39686D01*
X75670Y-39869D01*
X75909Y-39968D01*
X76168Y-39969D01*
X76407Y-39870D01*
X76590Y-39687D01*
X76689Y-39448D01*
X76689Y-39190D01*
X76590Y-38951D01*
X76431Y-38791D01*
X76431Y-38244D01*
X76401Y-38094D01*
X76316Y-37967D01*
X76316Y-37967D01*
X75080Y-36730D01*
X74953Y-36645D01*
X74803Y-36616D01*
X73544Y-36616D01*
X73544Y-35722D01*
X73544Y-34159D01*
X57655Y-34159D01*
X57655Y-35722D01*
X73544Y-35722D01*
X73544Y-36616D01*
X41043Y-36616D01*
X40893Y-36645D01*
X40766Y-36730D01*
X39935Y-37561D01*
X39850Y-37688D01*
X39820Y-37838D01*
X39820Y-38791D01*
X39661Y-38950D01*
X39562Y-39189D01*
X39562Y-39447D01*
X39661Y-39686D01*
X39820Y-39846D01*
X39820Y-41858D01*
X39686Y-41992D01*
X39584Y-42239D01*
X39583Y-42507D01*
X39686Y-42754D01*
X39874Y-42943D01*
X40121Y-43045D01*
X40388Y-43045D01*
X40635Y-42943D01*
X40825Y-42755D01*
X40927Y-42508D01*
X40927Y-42240D01*
X40825Y-41993D01*
X40636Y-41804D01*
X40604Y-41791D01*
X40604Y-39846D01*
X40763Y-39687D01*
X40862Y-39448D01*
X40862Y-39190D01*
X40763Y-38951D01*
X40604Y-38791D01*
X40604Y-38000D01*
X41205Y-37399D01*
X43158Y-37399D01*
X43128Y-37419D01*
X41935Y-38612D01*
X41850Y-38739D01*
X41845Y-38767D01*
X41844Y-38767D01*
X41661Y-38950D01*
X41562Y-39189D01*
X41562Y-39447D01*
X41661Y-39686D01*
X41843Y-39869D01*
X41874Y-39882D01*
X41874Y-41791D01*
X41844Y-41804D01*
X41655Y-41992D01*
X41552Y-42239D01*
X41552Y-42507D01*
X41654Y-42754D01*
X41843Y-42943D01*
X42090Y-43045D01*
X42357Y-43045D01*
X42604Y-42943D01*
X42793Y-42755D01*
X42896Y-42508D01*
X42896Y-42240D01*
X42794Y-41993D01*
X42605Y-41804D01*
X42574Y-41791D01*
X42574Y-39872D01*
X42580Y-39870D01*
X42763Y-39687D01*
X42862Y-39448D01*
X42862Y-39190D01*
X42763Y-38951D01*
X42734Y-38921D01*
X43567Y-38088D01*
X46702Y-38088D01*
X46671Y-38108D01*
X46111Y-38668D01*
X46083Y-38668D01*
X45844Y-38767D01*
X45661Y-38950D01*
X45562Y-39189D01*
X45562Y-39447D01*
X45661Y-39686D01*
X45843Y-39869D01*
X45909Y-39896D01*
X45909Y-41791D01*
X45879Y-41804D01*
X45690Y-41992D01*
X45588Y-42239D01*
X45587Y-42507D01*
X45689Y-42754D01*
X45878Y-42943D01*
X46125Y-43045D01*
X46392Y-43045D01*
X46639Y-42943D01*
X46829Y-42755D01*
X46931Y-42508D01*
X46931Y-42240D01*
X46829Y-41993D01*
X46640Y-41804D01*
X46609Y-41791D01*
X46609Y-39840D01*
X46763Y-39687D01*
X46862Y-39448D01*
X46862Y-39190D01*
X46814Y-39073D01*
X47111Y-38777D01*
X47834Y-38777D01*
X47661Y-38950D01*
X47562Y-39189D01*
X47562Y-39447D01*
X47661Y-39686D01*
X47843Y-39869D01*
X47878Y-39883D01*
X47878Y-41791D01*
X47848Y-41804D01*
X47659Y-41992D01*
X47556Y-42239D01*
X47556Y-42507D01*
X47658Y-42754D01*
X47847Y-42943D01*
X48094Y-43045D01*
X48361Y-43045D01*
X48608Y-42943D01*
X48797Y-42755D01*
X48900Y-42508D01*
X48900Y-42240D01*
X48798Y-41993D01*
X48609Y-41804D01*
X48578Y-41791D01*
X48578Y-39871D01*
X48580Y-39870D01*
X48740Y-39710D01*
X69766Y-39710D01*
X72951Y-42895D01*
X72951Y-42895D01*
X73078Y-42980D01*
X73228Y-43009D01*
X81594Y-43009D01*
X81744Y-42980D01*
X81871Y-42895D01*
X84316Y-40450D01*
X84401Y-40323D01*
X84431Y-40173D01*
X84431Y-40173D01*
X84431Y-39846D01*
X84590Y-39687D01*
X84689Y-39448D01*
X84689Y-39190D01*
X84689Y-53610D01*
X60153Y-53610D01*
X60097Y-53555D01*
X59904Y-53475D01*
X59696Y-53474D01*
X59503Y-53554D01*
X59446Y-53610D01*
X55425Y-53610D01*
X55425Y-50237D01*
X55223Y-49750D01*
X54851Y-49377D01*
X54364Y-49175D01*
X53837Y-49174D01*
X53350Y-49376D01*
X52977Y-49748D01*
X52775Y-50235D01*
X52774Y-50762D01*
X52976Y-51249D01*
X53348Y-51622D01*
X53835Y-51824D01*
X54362Y-51825D01*
X54849Y-51623D01*
X55222Y-51251D01*
X55424Y-50764D01*
X55425Y-50237D01*
X55425Y-53610D01*
X55088Y-53610D01*
X55011Y-53534D01*
X54809Y-53450D01*
X54591Y-53449D01*
X54388Y-53533D01*
X54311Y-53610D01*
X54088Y-53610D01*
X54011Y-53534D01*
X53809Y-53450D01*
X53591Y-53449D01*
X53388Y-53533D01*
X53311Y-53610D01*
X44385Y-53610D01*
X44236Y-53640D01*
X44110Y-53724D01*
X44110Y-53724D01*
X40673Y-57161D01*
X40589Y-57288D01*
X40559Y-57437D01*
X40559Y-57437D01*
X40559Y-72149D01*
X40559Y-72149D01*
X40589Y-72298D01*
X40673Y-72424D01*
X41823Y-73575D01*
X41950Y-73659D01*
X42099Y-73689D01*
X42099Y-73689D01*
X42099Y-73689D01*
X53711Y-73689D01*
X53772Y-73749D01*
X53750Y-73749D01*
X53658Y-73787D01*
X53588Y-73858D01*
X53550Y-73950D01*
X53549Y-74049D01*
X53549Y-74299D01*
X53313Y-74535D01*
X51555Y-74535D01*
X51466Y-74446D01*
X51258Y-74360D01*
X51033Y-74360D01*
X50826Y-74445D01*
X50666Y-74604D01*
X50645Y-74655D01*
X50624Y-74605D01*
X50466Y-74446D01*
X50258Y-74360D01*
X50033Y-74360D01*
X49826Y-74445D01*
X49666Y-74604D01*
X49645Y-74655D01*
X49624Y-74605D01*
X49466Y-74446D01*
X49258Y-74360D01*
X49033Y-74360D01*
X48826Y-74445D01*
X48666Y-74604D01*
X48645Y-74655D01*
X48624Y-74605D01*
X48466Y-74446D01*
X48258Y-74360D01*
X48033Y-74360D01*
X47826Y-74445D01*
X47666Y-74604D01*
X47645Y-74655D01*
X47624Y-74605D01*
X47466Y-74446D01*
X47258Y-74360D01*
X47033Y-74360D01*
X46826Y-74445D01*
X46666Y-74604D01*
X46645Y-74655D01*
X46624Y-74605D01*
X46466Y-74446D01*
X46258Y-74360D01*
X46033Y-74360D01*
X45826Y-74445D01*
X45666Y-74604D01*
X45645Y-74655D01*
X45624Y-74605D01*
X45466Y-74446D01*
X45258Y-74360D01*
X45033Y-74360D01*
X44826Y-74445D01*
X44666Y-74604D01*
X44645Y-74655D01*
X44624Y-74605D01*
X44466Y-74446D01*
X44258Y-74360D01*
X44033Y-74360D01*
X43826Y-74445D01*
X43666Y-74604D01*
X43645Y-74655D01*
X43624Y-74605D01*
X43466Y-74446D01*
X43258Y-74360D01*
X43033Y-74360D01*
X42826Y-74445D01*
X42736Y-74535D01*
X40786Y-74535D01*
X39989Y-73738D01*
X39989Y-53761D01*
X44987Y-48763D01*
X45699Y-48763D01*
X45878Y-48943D01*
X46125Y-49045D01*
X46392Y-49045D01*
X46639Y-48943D01*
X46829Y-48755D01*
X46931Y-48508D01*
X46931Y-48240D01*
X46829Y-47993D01*
X46640Y-47804D01*
X46394Y-47702D01*
X46126Y-47702D01*
X45879Y-47804D01*
X45698Y-47984D01*
X44825Y-47984D01*
X44825Y-47984D01*
X44796Y-47990D01*
X44676Y-48014D01*
X44550Y-48098D01*
X44550Y-48098D01*
X39324Y-53324D01*
X39240Y-53450D01*
X39210Y-53600D01*
X39210Y-53600D01*
X39210Y-73899D01*
X39210Y-73900D01*
X39240Y-74049D01*
X39324Y-74175D01*
X40349Y-75200D01*
X40476Y-75284D01*
X40625Y-75314D01*
X42736Y-75314D01*
X42825Y-75403D01*
X43032Y-75490D01*
X43257Y-75490D01*
X43465Y-75404D01*
X43624Y-75245D01*
X43645Y-75194D01*
X43666Y-75244D01*
X43756Y-75334D01*
X43756Y-75593D01*
X43638Y-75710D01*
X39961Y-75710D01*
X37789Y-73538D01*
X37789Y-54661D01*
X44761Y-47689D01*
X46993Y-47689D01*
X47556Y-48252D01*
X47556Y-48507D01*
X47658Y-48754D01*
X47847Y-48943D01*
X48094Y-49045D01*
X48361Y-49045D01*
X48608Y-48943D01*
X48797Y-48755D01*
X48900Y-48508D01*
X48900Y-48240D01*
X48798Y-47993D01*
X48609Y-47804D01*
X48362Y-47702D01*
X48107Y-47702D01*
X47429Y-47024D01*
X47303Y-46940D01*
X47154Y-46910D01*
X47154Y-46910D01*
X44862Y-46910D01*
X44862Y-39190D01*
X44763Y-38951D01*
X44581Y-38768D01*
X44342Y-38669D01*
X44083Y-38668D01*
X43844Y-38767D01*
X43661Y-38950D01*
X43562Y-39189D01*
X43562Y-39447D01*
X43661Y-39686D01*
X43843Y-39869D01*
X44082Y-39968D01*
X44341Y-39969D01*
X44580Y-39870D01*
X44763Y-39687D01*
X44862Y-39448D01*
X44862Y-39190D01*
X44862Y-46910D01*
X44600Y-46910D01*
X44450Y-46940D01*
X44324Y-47024D01*
X44324Y-47024D01*
X42896Y-48453D01*
X42896Y-48240D01*
X42794Y-47993D01*
X42605Y-47804D01*
X42358Y-47702D01*
X42091Y-47702D01*
X41844Y-47804D01*
X41655Y-47992D01*
X41552Y-48239D01*
X41552Y-48507D01*
X41654Y-48754D01*
X41843Y-48943D01*
X42090Y-49045D01*
X42303Y-49045D01*
X40927Y-50421D01*
X40927Y-48240D01*
X40825Y-47993D01*
X40636Y-47804D01*
X40390Y-47702D01*
X40122Y-47702D01*
X39875Y-47804D01*
X39686Y-47992D01*
X39584Y-48239D01*
X39583Y-48507D01*
X39686Y-48754D01*
X39874Y-48943D01*
X40121Y-49045D01*
X40388Y-49045D01*
X40635Y-48943D01*
X40825Y-48755D01*
X40927Y-48508D01*
X40927Y-48240D01*
X40927Y-50421D01*
X37124Y-54224D01*
X37040Y-54350D01*
X37010Y-54500D01*
X37010Y-54500D01*
X37010Y-73699D01*
X37010Y-73700D01*
X37040Y-73849D01*
X37124Y-73975D01*
X39524Y-76375D01*
X39524Y-76375D01*
X39650Y-76459D01*
X39650Y-76459D01*
X39770Y-76483D01*
X39799Y-76489D01*
X39799Y-76489D01*
X39800Y-76489D01*
X43799Y-76489D01*
X43800Y-76489D01*
X43800Y-76489D01*
X43949Y-76459D01*
X44075Y-76375D01*
X44420Y-76029D01*
X44420Y-76029D01*
X44420Y-76029D01*
X44505Y-75903D01*
X44535Y-75754D01*
X44535Y-75334D01*
X44624Y-75245D01*
X44645Y-75194D01*
X44666Y-75244D01*
X44795Y-75374D01*
X44795Y-77862D01*
X44822Y-77996D01*
X44898Y-78109D01*
X47488Y-80700D01*
X47602Y-80776D01*
X47736Y-80802D01*
X48064Y-80802D01*
X47844Y-80893D01*
X47661Y-81076D01*
X47562Y-81315D01*
X47562Y-81573D01*
X47661Y-81812D01*
X47843Y-81995D01*
X48082Y-82094D01*
X48341Y-82094D01*
X48580Y-81996D01*
X48763Y-81813D01*
X48771Y-81794D01*
X68811Y-81794D01*
X68944Y-81768D01*
X68944Y-81768D01*
X69058Y-81692D01*
X73097Y-77653D01*
X83004Y-77653D01*
X83689Y-78337D01*
X83689Y-80886D01*
X83671Y-80893D01*
X83488Y-81076D01*
X83389Y-81315D01*
X83389Y-81573D01*
X83488Y-81812D01*
X83670Y-81995D01*
X83909Y-82094D01*
X84168Y-82094D01*
X84407Y-81996D01*
X84590Y-81813D01*
X84689Y-81574D01*
X84689Y-81316D01*
X84590Y-81077D01*
X84408Y-80894D01*
X84389Y-80886D01*
X84389Y-78192D01*
X84362Y-78058D01*
X84286Y-77945D01*
X84286Y-77945D01*
X83397Y-77055D01*
X83283Y-76979D01*
X83149Y-76953D01*
X72952Y-76953D01*
X72818Y-76979D01*
X72722Y-77044D01*
X72979Y-76787D01*
X78141Y-76787D01*
X78275Y-76760D01*
X78275Y-76760D01*
X78389Y-76684D01*
X82020Y-73052D01*
X82050Y-73065D01*
X82318Y-73065D01*
X82565Y-72963D01*
X82754Y-72774D01*
X82856Y-72527D01*
X82857Y-72260D01*
X82754Y-72013D01*
X82566Y-71824D01*
X82319Y-71721D01*
X82051Y-71721D01*
X81804Y-71823D01*
X81615Y-72012D01*
X81513Y-72259D01*
X81513Y-72526D01*
X81525Y-72557D01*
X77996Y-76087D01*
X72834Y-76087D01*
X72700Y-76113D01*
X72587Y-76189D01*
X68673Y-80102D01*
X47881Y-80102D01*
X45495Y-77717D01*
X45495Y-75374D01*
X45624Y-75245D01*
X45645Y-75194D01*
X45666Y-75244D01*
X45795Y-75374D01*
X45795Y-77681D01*
X45822Y-77815D01*
X45898Y-77928D01*
X47921Y-79952D01*
X47921Y-79952D01*
X48035Y-80028D01*
X48169Y-80054D01*
X48169Y-80054D01*
X48169Y-80054D01*
X68444Y-80054D01*
X68578Y-80028D01*
X68578Y-80028D01*
X68692Y-79952D01*
X72743Y-75901D01*
X74893Y-75901D01*
X75027Y-75874D01*
X75027Y-75874D01*
X75141Y-75798D01*
X77886Y-73052D01*
X77916Y-73065D01*
X78184Y-73065D01*
X78431Y-72963D01*
X78620Y-72774D01*
X78722Y-72527D01*
X78723Y-72260D01*
X78621Y-72013D01*
X78432Y-71824D01*
X78185Y-71721D01*
X77918Y-71721D01*
X77671Y-71823D01*
X77481Y-72012D01*
X77379Y-72259D01*
X77379Y-72526D01*
X77392Y-72557D01*
X74748Y-75201D01*
X72598Y-75201D01*
X72464Y-75227D01*
X72350Y-75303D01*
X68299Y-79354D01*
X48314Y-79354D01*
X46495Y-77536D01*
X46495Y-75374D01*
X46624Y-75245D01*
X46645Y-75194D01*
X46666Y-75244D01*
X46795Y-75374D01*
X46795Y-77519D01*
X46822Y-77653D01*
X46898Y-77767D01*
X48197Y-79066D01*
X48197Y-79066D01*
X48310Y-79142D01*
X48444Y-79168D01*
X48444Y-79168D01*
X48444Y-79168D01*
X67492Y-79168D01*
X67626Y-79142D01*
X67626Y-79142D01*
X67739Y-79066D01*
X73753Y-73052D01*
X73783Y-73065D01*
X74050Y-73065D01*
X74297Y-72963D01*
X74486Y-72774D01*
X74589Y-72527D01*
X74589Y-72260D01*
X74487Y-72013D01*
X74298Y-71824D01*
X74051Y-71721D01*
X73784Y-71721D01*
X73537Y-71823D01*
X73348Y-72012D01*
X73245Y-72259D01*
X73245Y-72526D01*
X73258Y-72557D01*
X67347Y-78468D01*
X48589Y-78468D01*
X47495Y-77374D01*
X47495Y-75374D01*
X47624Y-75245D01*
X47645Y-75194D01*
X47666Y-75244D01*
X47825Y-75403D01*
X48032Y-75490D01*
X48257Y-75490D01*
X48465Y-75404D01*
X48624Y-75245D01*
X48645Y-75194D01*
X48666Y-75244D01*
X48825Y-75403D01*
X49032Y-75490D01*
X49257Y-75490D01*
X49465Y-75404D01*
X49624Y-75245D01*
X49645Y-75194D01*
X49666Y-75244D01*
X49795Y-75374D01*
X49795Y-75578D01*
X49822Y-75712D01*
X49898Y-75826D01*
X50421Y-76349D01*
X50535Y-76425D01*
X50535Y-76425D01*
X50669Y-76452D01*
X68208Y-76452D01*
X68342Y-76425D01*
X68342Y-76425D01*
X68456Y-76349D01*
X73806Y-70999D01*
X83937Y-70999D01*
X85167Y-72229D01*
X85155Y-72259D01*
X85154Y-72526D01*
X85256Y-72773D01*
X85445Y-72962D01*
X85692Y-73065D01*
X85959Y-73065D01*
X86206Y-72963D01*
X86396Y-72774D01*
X86498Y-72527D01*
X86498Y-72260D01*
X86396Y-72013D01*
X86207Y-71824D01*
X85960Y-71721D01*
X85693Y-71721D01*
X85662Y-71734D01*
X84330Y-70402D01*
X84216Y-70326D01*
X84082Y-70299D01*
X82029Y-70299D01*
X82029Y-56075D01*
X82018Y-55867D01*
X81960Y-55727D01*
X81867Y-55702D01*
X81797Y-55773D01*
X81797Y-55632D01*
X81772Y-55539D01*
X81575Y-55470D01*
X81367Y-55481D01*
X81227Y-55539D01*
X81202Y-55632D01*
X81500Y-55929D01*
X81797Y-55632D01*
X81797Y-55773D01*
X81570Y-56000D01*
X81867Y-56297D01*
X81960Y-56272D01*
X82029Y-56075D01*
X82029Y-70299D01*
X82025Y-70299D01*
X82025Y-61896D01*
X81945Y-61703D01*
X81797Y-61555D01*
X81664Y-61499D01*
X81797Y-61445D01*
X81944Y-61297D01*
X82024Y-61104D01*
X82025Y-60896D01*
X81945Y-60703D01*
X81797Y-60555D01*
X81664Y-60499D01*
X81797Y-60445D01*
X81944Y-60297D01*
X82024Y-60104D01*
X82025Y-59896D01*
X81945Y-59703D01*
X81797Y-59555D01*
X81664Y-59499D01*
X81797Y-59445D01*
X81944Y-59297D01*
X82024Y-59104D01*
X82025Y-58896D01*
X81945Y-58703D01*
X81797Y-58555D01*
X81664Y-58499D01*
X81797Y-58445D01*
X81944Y-58297D01*
X82024Y-58104D01*
X82025Y-57896D01*
X81945Y-57703D01*
X81797Y-57555D01*
X81664Y-57499D01*
X81797Y-57445D01*
X81944Y-57297D01*
X82024Y-57104D01*
X82025Y-56896D01*
X81945Y-56703D01*
X81797Y-56555D01*
X81671Y-56502D01*
X81772Y-56460D01*
X81797Y-56367D01*
X81500Y-56070D01*
X81429Y-56141D01*
X81429Y-56000D01*
X81132Y-55702D01*
X81039Y-55727D01*
X80970Y-55924D01*
X80981Y-56132D01*
X81039Y-56272D01*
X81132Y-56297D01*
X81429Y-56000D01*
X81429Y-56141D01*
X81202Y-56367D01*
X81227Y-56460D01*
X81337Y-56499D01*
X81203Y-56554D01*
X81055Y-56702D01*
X80975Y-56895D01*
X80974Y-57103D01*
X81054Y-57297D01*
X81202Y-57444D01*
X81335Y-57500D01*
X81203Y-57554D01*
X81055Y-57702D01*
X80975Y-57895D01*
X80974Y-58103D01*
X81054Y-58297D01*
X81202Y-58444D01*
X81335Y-58500D01*
X81203Y-58554D01*
X81055Y-58702D01*
X80975Y-58895D01*
X80974Y-59103D01*
X81054Y-59297D01*
X81202Y-59444D01*
X81335Y-59500D01*
X81203Y-59554D01*
X81055Y-59702D01*
X80975Y-59895D01*
X80974Y-60103D01*
X81054Y-60297D01*
X81202Y-60444D01*
X81335Y-60500D01*
X81203Y-60554D01*
X81055Y-60702D01*
X80975Y-60895D01*
X80974Y-61103D01*
X81054Y-61297D01*
X81202Y-61444D01*
X81335Y-61500D01*
X81203Y-61554D01*
X81146Y-61610D01*
X68488Y-61610D01*
X68411Y-61534D01*
X68330Y-61500D01*
X68411Y-61466D01*
X68565Y-61311D01*
X68649Y-61109D01*
X68650Y-60891D01*
X68566Y-60688D01*
X68411Y-60534D01*
X68330Y-60500D01*
X68411Y-60466D01*
X68488Y-60389D01*
X68681Y-60389D01*
X68681Y-60389D01*
X68681Y-60389D01*
X68830Y-60359D01*
X68956Y-60275D01*
X69291Y-59940D01*
X69291Y-59940D01*
X69291Y-59940D01*
X69375Y-59814D01*
X69405Y-59665D01*
X69405Y-58484D01*
X69375Y-58335D01*
X69291Y-58208D01*
X69291Y-58208D01*
X69113Y-58031D01*
X69192Y-57952D01*
X69277Y-57826D01*
X69306Y-57677D01*
X69306Y-56220D01*
X69277Y-56071D01*
X69192Y-55945D01*
X69192Y-55945D01*
X68972Y-55724D01*
X68845Y-55640D01*
X68696Y-55610D01*
X68696Y-55610D01*
X68488Y-55610D01*
X68411Y-55534D01*
X68209Y-55450D01*
X67991Y-55449D01*
X67788Y-55533D01*
X67634Y-55688D01*
X67600Y-55769D01*
X67566Y-55688D01*
X67411Y-55534D01*
X67209Y-55450D01*
X66991Y-55449D01*
X66788Y-55533D01*
X66711Y-55610D01*
X60329Y-55610D01*
X60329Y-55075D01*
X60318Y-54867D01*
X60260Y-54727D01*
X60167Y-54702D01*
X59870Y-55000D01*
X60167Y-55297D01*
X60260Y-55272D01*
X60329Y-55075D01*
X60329Y-55610D01*
X60097Y-55610D01*
X60097Y-55367D01*
X59800Y-55070D01*
X59729Y-55141D01*
X59729Y-55000D01*
X59432Y-54702D01*
X59339Y-54727D01*
X59270Y-54924D01*
X59281Y-55132D01*
X59339Y-55272D01*
X59432Y-55297D01*
X59729Y-55000D01*
X59729Y-55141D01*
X59502Y-55367D01*
X59527Y-55460D01*
X59724Y-55529D01*
X59932Y-55518D01*
X60072Y-55460D01*
X60097Y-55367D01*
X60097Y-55610D01*
X55254Y-55610D01*
X55254Y-55081D01*
X55243Y-54863D01*
X55181Y-54712D01*
X55085Y-54684D01*
X54770Y-55000D01*
X55085Y-55315D01*
X55181Y-55287D01*
X55254Y-55081D01*
X55254Y-55610D01*
X55088Y-55610D01*
X55011Y-55534D01*
X54936Y-55502D01*
X54987Y-55481D01*
X55015Y-55385D01*
X54700Y-55070D01*
X54629Y-55141D01*
X54629Y-55000D01*
X54314Y-54684D01*
X54218Y-54712D01*
X54201Y-54760D01*
X54181Y-54712D01*
X54085Y-54684D01*
X53770Y-55000D01*
X54085Y-55315D01*
X54181Y-55287D01*
X54198Y-55239D01*
X54218Y-55287D01*
X54314Y-55315D01*
X54629Y-55000D01*
X54629Y-55141D01*
X54384Y-55385D01*
X54412Y-55481D01*
X54467Y-55500D01*
X54388Y-55533D01*
X54234Y-55688D01*
X54200Y-55769D01*
X54166Y-55688D01*
X54011Y-55534D01*
X53936Y-55502D01*
X53987Y-55481D01*
X54015Y-55385D01*
X53700Y-55070D01*
X53629Y-55141D01*
X53629Y-55000D01*
X53314Y-54684D01*
X53218Y-54712D01*
X53145Y-54918D01*
X53156Y-55136D01*
X53218Y-55287D01*
X53314Y-55315D01*
X53629Y-55000D01*
X53629Y-55141D01*
X53384Y-55385D01*
X53412Y-55481D01*
X53467Y-55500D01*
X53388Y-55533D01*
X53272Y-55650D01*
X50600Y-55650D01*
X50583Y-55653D01*
X50411Y-55653D01*
X50247Y-55720D01*
X50121Y-55846D01*
X50053Y-56010D01*
X50053Y-56188D01*
X50120Y-56352D01*
X50246Y-56478D01*
X50410Y-56546D01*
X50588Y-56546D01*
X50752Y-56479D01*
X50878Y-56353D01*
X50880Y-56350D01*
X53272Y-56350D01*
X53388Y-56465D01*
X53469Y-56499D01*
X53388Y-56533D01*
X53272Y-56650D01*
X49500Y-56650D01*
X49483Y-56653D01*
X49311Y-56653D01*
X49147Y-56720D01*
X49021Y-56846D01*
X48953Y-57010D01*
X48953Y-57188D01*
X49020Y-57352D01*
X49146Y-57478D01*
X49310Y-57546D01*
X49488Y-57546D01*
X49652Y-57479D01*
X49778Y-57353D01*
X49780Y-57350D01*
X53272Y-57350D01*
X53388Y-57465D01*
X53469Y-57499D01*
X53388Y-57533D01*
X53272Y-57650D01*
X48882Y-57650D01*
X48853Y-57621D01*
X48689Y-57553D01*
X48511Y-57553D01*
X48347Y-57620D01*
X48221Y-57746D01*
X48153Y-57910D01*
X48153Y-58088D01*
X48220Y-58252D01*
X48346Y-58378D01*
X48510Y-58446D01*
X48688Y-58446D01*
X48852Y-58379D01*
X48881Y-58350D01*
X53272Y-58350D01*
X53388Y-58465D01*
X53469Y-58499D01*
X53388Y-58533D01*
X53272Y-58650D01*
X47800Y-58650D01*
X47666Y-58676D01*
X47552Y-58752D01*
X47551Y-58753D01*
X47511Y-58753D01*
X47347Y-58820D01*
X47221Y-58946D01*
X47153Y-59110D01*
X47153Y-59288D01*
X47220Y-59452D01*
X47346Y-59578D01*
X47510Y-59646D01*
X47688Y-59646D01*
X47852Y-59579D01*
X47978Y-59453D01*
X48021Y-59350D01*
X53272Y-59350D01*
X53388Y-59465D01*
X53469Y-59499D01*
X53388Y-59533D01*
X53272Y-59650D01*
X46782Y-59650D01*
X46753Y-59621D01*
X46589Y-59553D01*
X46411Y-59553D01*
X46247Y-59620D01*
X46121Y-59746D01*
X46053Y-59910D01*
X46053Y-60088D01*
X46120Y-60252D01*
X46246Y-60378D01*
X46410Y-60446D01*
X46588Y-60446D01*
X46752Y-60379D01*
X46781Y-60350D01*
X53272Y-60350D01*
X53388Y-60465D01*
X53469Y-60499D01*
X53388Y-60533D01*
X53272Y-60650D01*
X45600Y-60650D01*
X45583Y-60653D01*
X45411Y-60653D01*
X45247Y-60720D01*
X45121Y-60846D01*
X45053Y-61010D01*
X45053Y-61188D01*
X45120Y-61352D01*
X45246Y-61478D01*
X45410Y-61546D01*
X45588Y-61546D01*
X45752Y-61479D01*
X45878Y-61353D01*
X45880Y-61350D01*
X53272Y-61350D01*
X53388Y-61465D01*
X53469Y-61499D01*
X53388Y-61533D01*
X53272Y-61650D01*
X44700Y-61650D01*
X44566Y-61676D01*
X44452Y-61752D01*
X44451Y-61753D01*
X44411Y-61753D01*
X44247Y-61820D01*
X44121Y-61946D01*
X44053Y-62110D01*
X44053Y-62288D01*
X44120Y-62452D01*
X44246Y-62578D01*
X44410Y-62646D01*
X44588Y-62646D01*
X44752Y-62579D01*
X44878Y-62453D01*
X44921Y-62350D01*
X53272Y-62350D01*
X53372Y-62449D01*
X53350Y-62449D01*
X53258Y-62487D01*
X53188Y-62558D01*
X53150Y-62650D01*
X43900Y-62650D01*
X43899Y-62650D01*
X43766Y-62676D01*
X43652Y-62752D01*
X43652Y-62752D01*
X43551Y-62853D01*
X43511Y-62853D01*
X43347Y-62920D01*
X43221Y-63046D01*
X43153Y-63210D01*
X43153Y-63388D01*
X43220Y-63552D01*
X43346Y-63678D01*
X43510Y-63746D01*
X43688Y-63746D01*
X43852Y-63679D01*
X43978Y-63553D01*
X44046Y-63389D01*
X44046Y-63350D01*
X53150Y-63350D01*
X53187Y-63441D01*
X53258Y-63511D01*
X53350Y-63549D01*
X53449Y-63550D01*
X54049Y-63550D01*
X54141Y-63512D01*
X54211Y-63441D01*
X54249Y-63349D01*
X54249Y-63327D01*
X54388Y-63465D01*
X54590Y-63549D01*
X54808Y-63550D01*
X55011Y-63466D01*
X55088Y-63389D01*
X66566Y-63389D01*
X66587Y-63441D01*
X66658Y-63511D01*
X66750Y-63549D01*
X66849Y-63550D01*
X67449Y-63550D01*
X67541Y-63512D01*
X67611Y-63441D01*
X67649Y-63349D01*
X67649Y-63327D01*
X67788Y-63465D01*
X67990Y-63549D01*
X68208Y-63550D01*
X68411Y-63466D01*
X68488Y-63389D01*
X81001Y-63389D01*
X81012Y-63416D01*
X81083Y-63486D01*
X81175Y-63524D01*
X81274Y-63525D01*
X81824Y-63525D01*
X81916Y-63487D01*
X81986Y-63416D01*
X82024Y-63324D01*
X82025Y-63225D01*
X82025Y-62675D01*
X81987Y-62583D01*
X81916Y-62513D01*
X81824Y-62475D01*
X81725Y-62474D01*
X81725Y-62474D01*
X81797Y-62445D01*
X81944Y-62297D01*
X82024Y-62104D01*
X82025Y-61896D01*
X82025Y-70299D01*
X73661Y-70299D01*
X73661Y-70299D01*
X73527Y-70326D01*
X73413Y-70402D01*
X73413Y-70402D01*
X73413Y-70402D01*
X68063Y-75752D01*
X55425Y-75752D01*
X55425Y-66237D01*
X55223Y-65750D01*
X54851Y-65377D01*
X54364Y-65175D01*
X53837Y-65174D01*
X53350Y-65376D01*
X52977Y-65748D01*
X52775Y-66235D01*
X52774Y-66762D01*
X52976Y-67249D01*
X53348Y-67622D01*
X53835Y-67824D01*
X54362Y-67825D01*
X54849Y-67623D01*
X55222Y-67251D01*
X55424Y-66764D01*
X55425Y-66237D01*
X55425Y-75752D01*
X50814Y-75752D01*
X50495Y-75433D01*
X50495Y-75374D01*
X50624Y-75245D01*
X50645Y-75194D01*
X50666Y-75244D01*
X50825Y-75403D01*
X51032Y-75490D01*
X51257Y-75490D01*
X51465Y-75404D01*
X51555Y-75314D01*
X53474Y-75314D01*
X53474Y-75314D01*
X53474Y-75314D01*
X53623Y-75284D01*
X53750Y-75200D01*
X54100Y-74850D01*
X54449Y-74850D01*
X54541Y-74812D01*
X54611Y-74741D01*
X54649Y-74649D01*
X54650Y-74550D01*
X54650Y-73950D01*
X54612Y-73858D01*
X54541Y-73788D01*
X54449Y-73750D01*
X54427Y-73750D01*
X54565Y-73611D01*
X54649Y-73409D01*
X54650Y-73191D01*
X54566Y-72988D01*
X54411Y-72834D01*
X54209Y-72750D01*
X53991Y-72749D01*
X53788Y-72833D01*
X53711Y-72910D01*
X51715Y-72910D01*
X51715Y-72010D01*
X51704Y-71786D01*
X51639Y-71628D01*
X51542Y-71599D01*
X51471Y-71669D01*
X51471Y-71528D01*
X51442Y-71431D01*
X51231Y-71355D01*
X51006Y-71366D01*
X50848Y-71431D01*
X50819Y-71528D01*
X51145Y-71854D01*
X51471Y-71528D01*
X51471Y-71669D01*
X51216Y-71925D01*
X51542Y-72251D01*
X51639Y-72222D01*
X51715Y-72010D01*
X51715Y-72910D01*
X51471Y-72910D01*
X51471Y-72321D01*
X51145Y-71995D01*
X51074Y-72066D01*
X51074Y-71925D01*
X50748Y-71599D01*
X50652Y-71628D01*
X50643Y-71651D01*
X50624Y-71605D01*
X50466Y-71446D01*
X50258Y-71360D01*
X50033Y-71360D01*
X49826Y-71445D01*
X49666Y-71604D01*
X49645Y-71655D01*
X49624Y-71605D01*
X49466Y-71446D01*
X49258Y-71360D01*
X49033Y-71360D01*
X48826Y-71445D01*
X48666Y-71604D01*
X48645Y-71655D01*
X48624Y-71605D01*
X48466Y-71446D01*
X48258Y-71360D01*
X48033Y-71360D01*
X47826Y-71445D01*
X47666Y-71604D01*
X47645Y-71655D01*
X47624Y-71605D01*
X47466Y-71446D01*
X47258Y-71360D01*
X47033Y-71360D01*
X46826Y-71445D01*
X46666Y-71604D01*
X46645Y-71655D01*
X46624Y-71605D01*
X46466Y-71446D01*
X46258Y-71360D01*
X46033Y-71360D01*
X45826Y-71445D01*
X45666Y-71604D01*
X45645Y-71655D01*
X45624Y-71605D01*
X45466Y-71446D01*
X45258Y-71360D01*
X45033Y-71360D01*
X44826Y-71445D01*
X44666Y-71604D01*
X44645Y-71655D01*
X44624Y-71605D01*
X44466Y-71446D01*
X44258Y-71360D01*
X44033Y-71360D01*
X43826Y-71445D01*
X43710Y-71561D01*
X43710Y-71560D01*
X43672Y-71468D01*
X43602Y-71398D01*
X43510Y-71360D01*
X43411Y-71360D01*
X42781Y-71360D01*
X42689Y-71398D01*
X42618Y-71468D01*
X42580Y-71560D01*
X42580Y-71659D01*
X42580Y-72289D01*
X42618Y-72381D01*
X42688Y-72451D01*
X42780Y-72490D01*
X42880Y-72490D01*
X43510Y-72490D01*
X43602Y-72452D01*
X43672Y-72381D01*
X43710Y-72290D01*
X43710Y-72289D01*
X43825Y-72403D01*
X44032Y-72490D01*
X44257Y-72490D01*
X44465Y-72404D01*
X44624Y-72245D01*
X44645Y-72194D01*
X44666Y-72244D01*
X44825Y-72403D01*
X45032Y-72490D01*
X45257Y-72490D01*
X45465Y-72404D01*
X45624Y-72245D01*
X45645Y-72194D01*
X45666Y-72244D01*
X45825Y-72403D01*
X46032Y-72490D01*
X46257Y-72490D01*
X46465Y-72404D01*
X46624Y-72245D01*
X46645Y-72194D01*
X46666Y-72244D01*
X46825Y-72403D01*
X47032Y-72490D01*
X47257Y-72490D01*
X47465Y-72404D01*
X47624Y-72245D01*
X47645Y-72194D01*
X47666Y-72244D01*
X47825Y-72403D01*
X48032Y-72490D01*
X48257Y-72490D01*
X48465Y-72404D01*
X48624Y-72245D01*
X48645Y-72194D01*
X48666Y-72244D01*
X48825Y-72403D01*
X49032Y-72490D01*
X49257Y-72490D01*
X49465Y-72404D01*
X49624Y-72245D01*
X49645Y-72194D01*
X49666Y-72244D01*
X49825Y-72403D01*
X50032Y-72490D01*
X50257Y-72490D01*
X50465Y-72404D01*
X50624Y-72245D01*
X50643Y-72200D01*
X50652Y-72222D01*
X50748Y-72251D01*
X51074Y-71925D01*
X51074Y-72066D01*
X50819Y-72321D01*
X50848Y-72418D01*
X51060Y-72494D01*
X51284Y-72484D01*
X51442Y-72418D01*
X51471Y-72321D01*
X51471Y-72910D01*
X42260Y-72910D01*
X41338Y-71988D01*
X41338Y-57598D01*
X44547Y-54389D01*
X53311Y-54389D01*
X53388Y-54465D01*
X53463Y-54497D01*
X53412Y-54518D01*
X53384Y-54614D01*
X53700Y-54929D01*
X54015Y-54614D01*
X53987Y-54518D01*
X53932Y-54499D01*
X54011Y-54466D01*
X54088Y-54389D01*
X54311Y-54389D01*
X54388Y-54465D01*
X54463Y-54497D01*
X54412Y-54518D01*
X54384Y-54614D01*
X54700Y-54929D01*
X55015Y-54614D01*
X54987Y-54518D01*
X54932Y-54499D01*
X55011Y-54466D01*
X55088Y-54389D01*
X59446Y-54389D01*
X59502Y-54444D01*
X59628Y-54497D01*
X59527Y-54539D01*
X59502Y-54632D01*
X59800Y-54929D01*
X60097Y-54632D01*
X60072Y-54539D01*
X59962Y-54500D01*
X60097Y-54445D01*
X60153Y-54389D01*
X86738Y-54389D01*
X88110Y-55761D01*
X88110Y-56238D01*
X87638Y-56710D01*
X87588Y-56710D01*
X87527Y-56650D01*
X87549Y-56650D01*
X87641Y-56612D01*
X87711Y-56541D01*
X87749Y-56449D01*
X87750Y-56350D01*
X87750Y-55750D01*
X87712Y-55658D01*
X87641Y-55588D01*
X87549Y-55550D01*
X87450Y-55549D01*
X86850Y-55549D01*
X86758Y-55587D01*
X86735Y-55610D01*
X84853Y-55610D01*
X84797Y-55555D01*
X84604Y-55475D01*
X84396Y-55474D01*
X84203Y-55554D01*
X84055Y-55702D01*
X83975Y-55895D01*
X83974Y-56103D01*
X84054Y-56297D01*
X84202Y-56444D01*
X84335Y-56500D01*
X84203Y-56554D01*
X84055Y-56702D01*
X83975Y-56895D01*
X83974Y-57103D01*
X84054Y-57297D01*
X84202Y-57444D01*
X84335Y-57500D01*
X84203Y-57554D01*
X84055Y-57702D01*
X83975Y-57895D01*
X83974Y-58103D01*
X84054Y-58297D01*
X84202Y-58444D01*
X84335Y-58500D01*
X84203Y-58554D01*
X84055Y-58702D01*
X83975Y-58895D01*
X83974Y-59103D01*
X84054Y-59297D01*
X84202Y-59444D01*
X84335Y-59500D01*
X84203Y-59554D01*
X84055Y-59702D01*
X83975Y-59895D01*
X83974Y-60103D01*
X84054Y-60297D01*
X84202Y-60444D01*
X84335Y-60500D01*
X84203Y-60554D01*
X84055Y-60702D01*
X83975Y-60895D01*
X83974Y-61103D01*
X84054Y-61297D01*
X84202Y-61444D01*
X84335Y-61500D01*
X84203Y-61554D01*
X84055Y-61702D01*
X83975Y-61895D01*
X83974Y-62103D01*
X84054Y-62297D01*
X84202Y-62444D01*
X84335Y-62500D01*
X84203Y-62554D01*
X84055Y-62702D01*
X83975Y-62895D01*
X83974Y-63103D01*
X84054Y-63297D01*
X84202Y-63444D01*
X84395Y-63524D01*
X84603Y-63525D01*
X84797Y-63445D01*
X84853Y-63389D01*
X86138Y-63389D01*
X89472Y-66723D01*
X89472Y-71833D01*
X89292Y-72012D01*
X89190Y-72259D01*
X89190Y-72526D01*
X89292Y-72773D01*
X89481Y-72962D01*
X89727Y-73065D01*
X89995Y-73065D01*
X90242Y-72963D01*
X90431Y-72774D01*
X90533Y-72527D01*
X90534Y-72260D01*
X90534Y-78043D01*
X90444Y-78043D01*
X90432Y-78013D01*
X90243Y-77824D01*
X89996Y-77721D01*
X89729Y-77721D01*
X89482Y-77823D01*
X89292Y-78012D01*
X89190Y-78259D01*
X89190Y-78526D01*
X89292Y-78773D01*
X89481Y-78962D01*
X89727Y-79065D01*
X89995Y-79065D01*
X90242Y-78963D01*
X90431Y-78774D01*
X90444Y-78743D01*
X93673Y-78743D01*
X93683Y-78768D01*
X93844Y-78929D01*
X93694Y-79079D01*
X92982Y-79079D01*
X92848Y-79105D01*
X92734Y-79181D01*
X89382Y-82533D01*
X86498Y-82533D01*
X86498Y-78260D01*
X86396Y-78013D01*
X86207Y-77824D01*
X85960Y-77721D01*
X85693Y-77721D01*
X85446Y-77823D01*
X85257Y-78012D01*
X85155Y-78259D01*
X85154Y-78526D01*
X85256Y-78773D01*
X85445Y-78962D01*
X85692Y-79065D01*
X85959Y-79065D01*
X86206Y-78963D01*
X86396Y-78774D01*
X86498Y-78527D01*
X86498Y-78260D01*
X86498Y-82533D01*
X82857Y-82533D01*
X82857Y-78260D01*
X82754Y-78013D01*
X82566Y-77824D01*
X82319Y-77721D01*
X82051Y-77721D01*
X81804Y-77823D01*
X81615Y-78012D01*
X81513Y-78259D01*
X81513Y-78526D01*
X81615Y-78773D01*
X81803Y-78962D01*
X82050Y-79065D01*
X82318Y-79065D01*
X82565Y-78963D01*
X82754Y-78774D01*
X82856Y-78527D01*
X82857Y-78260D01*
X82857Y-82533D01*
X82689Y-82533D01*
X82689Y-81316D01*
X82590Y-81077D01*
X82408Y-80894D01*
X82169Y-80794D01*
X81910Y-80794D01*
X81671Y-80893D01*
X81488Y-81076D01*
X81389Y-81315D01*
X81389Y-81573D01*
X81488Y-81812D01*
X81670Y-81995D01*
X81909Y-82094D01*
X82168Y-82094D01*
X82407Y-81996D01*
X82590Y-81813D01*
X82689Y-81574D01*
X82689Y-81316D01*
X82689Y-82533D01*
X81129Y-82533D01*
X80499Y-81904D01*
X80590Y-81813D01*
X80689Y-81574D01*
X80689Y-81316D01*
X80590Y-81077D01*
X80408Y-80894D01*
X80169Y-80794D01*
X79910Y-80794D01*
X79671Y-80893D01*
X79488Y-81076D01*
X79389Y-81315D01*
X79389Y-81573D01*
X79488Y-81812D01*
X79670Y-81995D01*
X79703Y-82009D01*
X79703Y-82009D01*
X79716Y-82072D01*
X79791Y-82186D01*
X80736Y-83131D01*
X80850Y-83207D01*
X80984Y-83233D01*
X89527Y-83233D01*
X89661Y-83207D01*
X89661Y-83207D01*
X89775Y-83131D01*
X93127Y-79779D01*
X93694Y-79779D01*
X93758Y-79843D01*
X93701Y-79867D01*
X93631Y-79937D01*
X93592Y-80029D01*
X93592Y-80128D01*
X93592Y-80828D01*
X93630Y-80920D01*
X93701Y-80990D01*
X93792Y-81029D01*
X93892Y-81029D01*
X94592Y-81029D01*
X94684Y-80991D01*
X94754Y-80920D01*
X94792Y-80829D01*
X94792Y-80729D01*
X94792Y-80029D01*
X94754Y-79937D01*
X94684Y-79867D01*
X94627Y-79843D01*
X94701Y-79769D01*
X94792Y-79549D01*
X94793Y-79310D01*
X94793Y-87352D01*
X78723Y-87352D01*
X78723Y-78260D01*
X78621Y-78013D01*
X78432Y-77824D01*
X78185Y-77721D01*
X77918Y-77721D01*
X77671Y-77823D01*
X77481Y-78012D01*
X77379Y-78259D01*
X77379Y-78526D01*
X77481Y-78773D01*
X77670Y-78962D01*
X77916Y-79065D01*
X78184Y-79065D01*
X78431Y-78963D01*
X78620Y-78774D01*
X78722Y-78527D01*
X78723Y-78260D01*
X78723Y-87352D01*
X78689Y-87352D01*
X78689Y-81316D01*
X78590Y-81077D01*
X78408Y-80894D01*
X78169Y-80794D01*
X77910Y-80794D01*
X77671Y-80893D01*
X77488Y-81076D01*
X77389Y-81315D01*
X77389Y-81573D01*
X77488Y-81812D01*
X77670Y-81995D01*
X77909Y-82094D01*
X78168Y-82094D01*
X78407Y-81996D01*
X78590Y-81813D01*
X78689Y-81574D01*
X78689Y-81316D01*
X78689Y-87352D01*
X76689Y-87352D01*
X76689Y-81795D01*
X76689Y-80995D01*
X76651Y-80903D01*
X76581Y-80833D01*
X76489Y-80794D01*
X76389Y-80794D01*
X75884Y-80794D01*
X74267Y-79177D01*
X74267Y-78976D01*
X74297Y-78963D01*
X74486Y-78774D01*
X74589Y-78527D01*
X74589Y-78260D01*
X74487Y-78013D01*
X74298Y-77824D01*
X74051Y-77721D01*
X73784Y-77721D01*
X73537Y-77823D01*
X73348Y-78012D01*
X73245Y-78259D01*
X73245Y-78526D01*
X73347Y-78773D01*
X73536Y-78962D01*
X73567Y-78975D01*
X73567Y-79322D01*
X73593Y-79456D01*
X73669Y-79570D01*
X75389Y-81289D01*
X75389Y-81894D01*
X75427Y-81986D01*
X75497Y-82056D01*
X75589Y-82094D01*
X75677Y-82094D01*
X74264Y-83508D01*
X74072Y-83508D01*
X74158Y-83422D01*
X74226Y-83258D01*
X74226Y-83080D01*
X74158Y-82916D01*
X74032Y-82790D01*
X73868Y-82722D01*
X73691Y-82722D01*
X73526Y-82790D01*
X73497Y-82819D01*
X46862Y-82819D01*
X46862Y-81316D01*
X46763Y-81077D01*
X46581Y-80894D01*
X46342Y-80794D01*
X46083Y-80794D01*
X45844Y-80893D01*
X45661Y-81076D01*
X45562Y-81315D01*
X45562Y-81573D01*
X45661Y-81812D01*
X45843Y-81995D01*
X46082Y-82094D01*
X46341Y-82094D01*
X46580Y-81996D01*
X46763Y-81813D01*
X46862Y-81574D01*
X46862Y-81316D01*
X46862Y-82819D01*
X44862Y-82819D01*
X44862Y-81316D01*
X44763Y-81077D01*
X44581Y-80894D01*
X44342Y-80794D01*
X44083Y-80794D01*
X44065Y-80802D01*
X42444Y-79181D01*
X42330Y-79105D01*
X42196Y-79079D01*
X31797Y-79079D01*
X31647Y-78929D01*
X31797Y-78779D01*
X34868Y-78779D01*
X35052Y-78962D01*
X35298Y-79065D01*
X35566Y-79065D01*
X35813Y-78963D01*
X36002Y-78774D01*
X36104Y-78527D01*
X36105Y-78260D01*
X36105Y-72260D01*
X36002Y-72013D01*
X35814Y-71824D01*
X35567Y-71721D01*
X35300Y-71721D01*
X35052Y-71823D01*
X34863Y-72012D01*
X34761Y-72259D01*
X34761Y-72526D01*
X34863Y-72773D01*
X35052Y-72962D01*
X35298Y-73065D01*
X35566Y-73065D01*
X35813Y-72963D01*
X36002Y-72774D01*
X36104Y-72527D01*
X36105Y-72260D01*
X36105Y-78260D01*
X36002Y-78013D01*
X35814Y-77824D01*
X35567Y-77721D01*
X35300Y-77721D01*
X35052Y-77823D01*
X34863Y-78012D01*
X34836Y-78079D01*
X31797Y-78079D01*
X31639Y-77920D01*
X31419Y-77829D01*
X31180Y-77829D01*
X30959Y-77920D01*
X30790Y-78088D01*
X30699Y-78309D01*
X30699Y-78547D01*
X30790Y-78768D01*
X30950Y-78929D01*
X30790Y-79088D01*
X30699Y-79309D01*
X30699Y-79547D01*
X30790Y-79768D01*
X30864Y-79843D01*
X30807Y-79867D01*
X30737Y-79937D01*
X30699Y-80029D01*
X30699Y-80128D01*
X30699Y-80828D01*
X30737Y-80920D01*
X30807Y-80990D01*
X30899Y-81029D01*
X30998Y-81029D01*
X31698Y-81029D01*
X31790Y-80991D01*
X31861Y-80920D01*
X31899Y-80829D01*
X31899Y-80729D01*
X31899Y-80029D01*
X31861Y-79937D01*
X31791Y-79867D01*
X31733Y-79843D01*
X31797Y-79779D01*
X42051Y-79779D01*
X43570Y-81297D01*
X43562Y-81315D01*
X43562Y-81573D01*
X43661Y-81812D01*
X43843Y-81995D01*
X44082Y-82094D01*
X44341Y-82094D01*
X44580Y-81996D01*
X44763Y-81813D01*
X44862Y-81574D01*
X44862Y-81316D01*
X44862Y-82819D01*
X42900Y-82819D01*
X42562Y-82481D01*
X42562Y-82003D01*
X42580Y-81996D01*
X42763Y-81813D01*
X42862Y-81574D01*
X42862Y-81316D01*
X42763Y-81077D01*
X42581Y-80894D01*
X42342Y-80794D01*
X42083Y-80794D01*
X41844Y-80893D01*
X41661Y-81076D01*
X41562Y-81315D01*
X41562Y-81573D01*
X41661Y-81812D01*
X41843Y-81995D01*
X41862Y-82003D01*
X41862Y-82625D01*
X41889Y-82759D01*
X41965Y-82873D01*
X42508Y-83416D01*
X42508Y-83416D01*
X42621Y-83492D01*
X42700Y-83508D01*
X41601Y-83508D01*
X40562Y-82469D01*
X40562Y-82094D01*
X40662Y-82094D01*
X40754Y-82056D01*
X40824Y-81986D01*
X40862Y-81894D01*
X40862Y-81795D01*
X40862Y-80995D01*
X40824Y-80903D01*
X40754Y-80833D01*
X40662Y-80794D01*
X40563Y-80794D01*
X39763Y-80794D01*
X39671Y-80832D01*
X39600Y-80903D01*
X39562Y-80994D01*
X39562Y-81094D01*
X39562Y-81894D01*
X39600Y-81986D01*
X39670Y-82056D01*
X39762Y-82094D01*
X39862Y-82094D01*
X39862Y-82094D01*
X39862Y-82614D01*
X39889Y-82748D01*
X39965Y-82861D01*
X41209Y-84105D01*
X41209Y-84105D01*
X41322Y-84181D01*
X41456Y-84208D01*
X41456Y-84208D01*
X74409Y-84208D01*
X74543Y-84181D01*
X74543Y-84181D01*
X74656Y-84105D01*
X76286Y-82475D01*
X76362Y-82362D01*
X76362Y-82362D01*
X76389Y-82228D01*
X76389Y-82094D01*
X76488Y-82094D01*
X76580Y-82056D01*
X76651Y-81986D01*
X76689Y-81894D01*
X76689Y-81795D01*
X76689Y-87352D01*
X31645Y-87352D01*
X31641Y-87352D01*
X29450Y-87352D01*
X29450Y-34592D01*
X29290Y-34206D01*
X28995Y-33910D01*
X28609Y-33750D01*
X28192Y-33749D01*
X27806Y-33909D01*
X27510Y-34204D01*
X27350Y-34590D01*
X27349Y-35007D01*
X27509Y-35394D01*
X27804Y-35689D01*
X28190Y-35849D01*
X28607Y-35850D01*
X28994Y-35690D01*
X29289Y-35395D01*
X29449Y-35009D01*
X29450Y-34592D01*
X29450Y-87352D01*
X29250Y-87352D01*
X29250Y-85792D01*
X29090Y-85406D01*
X28795Y-85110D01*
X28409Y-84950D01*
X27992Y-84949D01*
X27606Y-85109D01*
X27310Y-85404D01*
X27150Y-85790D01*
X27149Y-86207D01*
X27309Y-86594D01*
X27604Y-86889D01*
X27990Y-87049D01*
X28407Y-87050D01*
X28794Y-86890D01*
X29089Y-86595D01*
X29249Y-86209D01*
X29250Y-85792D01*
X29250Y-87352D01*
X26820Y-87352D01*
X26820Y-36401D01*
X26820Y-33446D01*
X97420Y-33446D01*
X97420Y-87352D01*
M02*
