G04 (created by PCBNEW (2013-07-07 BZR 4022)-stable) date 3/3/2015 12:02:33 PM*
%MOIN*%
G04 Gerber Fmt 3.4, Leading zero omitted, Abs format*
%FSLAX34Y34*%
G01*
G70*
G90*
G04 APERTURE LIST*
%ADD10C,0.005*%
%ADD11C,0.00393701*%
%ADD12C,0.00787402*%
%ADD13C,0.011811*%
G04 APERTURE END LIST*
G54D10*
G54D11*
X31645Y-87622D02*
X26559Y-87622D01*
X97692Y-87622D02*
X97681Y-87622D01*
X97692Y-33173D02*
X97692Y-87622D01*
X97681Y-87622D02*
X97681Y-87618D01*
X31641Y-87622D02*
X97681Y-87622D01*
X26551Y-36401D02*
X26551Y-87622D01*
X26551Y-33177D02*
X97688Y-33177D01*
X26551Y-33291D02*
X26551Y-33177D01*
X26551Y-36401D02*
X26551Y-33291D01*
G54D12*
X49323Y-51292D02*
X49573Y-51542D01*
X49573Y-51292D02*
X49323Y-51542D01*
X49402Y-52237D02*
X49652Y-52487D01*
X49652Y-52237D02*
X49402Y-52487D01*
X49560Y-53339D02*
X49810Y-53589D01*
X49810Y-53339D02*
X49560Y-53589D01*
X51961Y-54245D02*
X52211Y-54495D01*
X52211Y-54245D02*
X51961Y-54495D01*
X52079Y-55386D02*
X52329Y-55636D01*
X52329Y-55386D02*
X52079Y-55636D01*
X53812Y-71213D02*
X54062Y-71463D01*
X54062Y-71213D02*
X53812Y-71463D01*
X54638Y-71449D02*
X54888Y-71699D01*
X54888Y-71449D02*
X54638Y-71699D01*
X61617Y-70504D02*
X61867Y-70754D01*
X61867Y-70504D02*
X61617Y-70754D01*
X62788Y-70081D02*
X63038Y-70331D01*
X63038Y-70081D02*
X62788Y-70331D01*
X63989Y-69687D02*
X64239Y-69937D01*
X64239Y-69687D02*
X63989Y-69937D01*
X65239Y-69205D02*
X65489Y-69455D01*
X65489Y-69205D02*
X65239Y-69455D01*
X66676Y-68674D02*
X66926Y-68924D01*
X66926Y-68674D02*
X66676Y-68924D01*
X68437Y-68142D02*
X68687Y-68392D01*
X68687Y-68142D02*
X68437Y-68392D01*
X70288Y-67552D02*
X70538Y-67802D01*
X70538Y-67552D02*
X70288Y-67802D01*
X73654Y-83044D02*
X73904Y-83294D01*
X73904Y-83044D02*
X73654Y-83294D01*
X34530Y-38980D02*
G75*
G03X34530Y-38980I-160J0D01*
G74*
G01*
X34530Y-39980D02*
G75*
G03X34530Y-39980I-160J0D01*
G74*
G01*
X43305Y-71925D02*
G75*
G03X43305Y-71925I-160J0D01*
G74*
G01*
X43305Y-74925D02*
G75*
G03X43305Y-74925I-160J0D01*
G74*
G01*
X44305Y-71925D02*
G75*
G03X44305Y-71925I-160J0D01*
G74*
G01*
X44305Y-74925D02*
G75*
G03X44305Y-74925I-160J0D01*
G74*
G01*
X45305Y-71925D02*
G75*
G03X45305Y-71925I-160J0D01*
G74*
G01*
X45305Y-74925D02*
G75*
G03X45305Y-74925I-160J0D01*
G74*
G01*
X46305Y-71925D02*
G75*
G03X46305Y-71925I-160J0D01*
G74*
G01*
X46305Y-74925D02*
G75*
G03X46305Y-74925I-160J0D01*
G74*
G01*
X47305Y-71925D02*
G75*
G03X47305Y-71925I-160J0D01*
G74*
G01*
X47305Y-74925D02*
G75*
G03X47305Y-74925I-160J0D01*
G74*
G01*
X48305Y-71925D02*
G75*
G03X48305Y-71925I-160J0D01*
G74*
G01*
X48305Y-74925D02*
G75*
G03X48305Y-74925I-160J0D01*
G74*
G01*
X49305Y-71925D02*
G75*
G03X49305Y-71925I-160J0D01*
G74*
G01*
X49305Y-74925D02*
G75*
G03X49305Y-74925I-160J0D01*
G74*
G01*
X50305Y-71925D02*
G75*
G03X50305Y-71925I-160J0D01*
G74*
G01*
X50305Y-74925D02*
G75*
G03X50305Y-74925I-160J0D01*
G74*
G01*
X51305Y-71925D02*
G75*
G03X51305Y-71925I-160J0D01*
G74*
G01*
X51305Y-74925D02*
G75*
G03X51305Y-74925I-160J0D01*
G74*
G01*
X59848Y-71925D02*
G75*
G03X59848Y-71925I-160J0D01*
G74*
G01*
X59848Y-74925D02*
G75*
G03X59848Y-74925I-160J0D01*
G74*
G01*
X60848Y-71925D02*
G75*
G03X60848Y-71925I-160J0D01*
G74*
G01*
X60848Y-74925D02*
G75*
G03X60848Y-74925I-160J0D01*
G74*
G01*
X61848Y-71925D02*
G75*
G03X61848Y-71925I-160J0D01*
G74*
G01*
X61848Y-74925D02*
G75*
G03X61848Y-74925I-160J0D01*
G74*
G01*
X62848Y-71925D02*
G75*
G03X62848Y-71925I-160J0D01*
G74*
G01*
X62848Y-74925D02*
G75*
G03X62848Y-74925I-160J0D01*
G74*
G01*
X63848Y-71925D02*
G75*
G03X63848Y-71925I-160J0D01*
G74*
G01*
X63848Y-74925D02*
G75*
G03X63848Y-74925I-160J0D01*
G74*
G01*
X64848Y-71925D02*
G75*
G03X64848Y-71925I-160J0D01*
G74*
G01*
X64848Y-74925D02*
G75*
G03X64848Y-74925I-160J0D01*
G74*
G01*
X65848Y-71925D02*
G75*
G03X65848Y-71925I-160J0D01*
G74*
G01*
X65848Y-74925D02*
G75*
G03X65848Y-74925I-160J0D01*
G74*
G01*
X66848Y-71925D02*
G75*
G03X66848Y-71925I-160J0D01*
G74*
G01*
X66848Y-74925D02*
G75*
G03X66848Y-74925I-160J0D01*
G74*
G01*
X90612Y-38574D02*
G75*
G03X90612Y-38574I-160J0D01*
G74*
G01*
X90612Y-39574D02*
G75*
G03X90612Y-39574I-160J0D01*
G74*
G01*
X63377Y-50718D02*
X63377Y-51076D01*
X63198Y-50897D02*
X63557Y-50897D01*
X63377Y-51718D02*
X63377Y-52076D01*
X63198Y-51897D02*
X63557Y-51897D01*
X63377Y-52718D02*
X63377Y-53076D01*
X63198Y-52897D02*
X63557Y-52897D01*
X63377Y-53718D02*
X63377Y-54076D01*
X63198Y-53897D02*
X63557Y-53897D01*
X63377Y-54718D02*
X63377Y-55076D01*
X63198Y-54897D02*
X63557Y-54897D01*
X63377Y-55718D02*
X63377Y-56076D01*
X63198Y-55897D02*
X63557Y-55897D01*
X63377Y-56718D02*
X63377Y-57076D01*
X63198Y-56897D02*
X63557Y-56897D01*
X63377Y-57718D02*
X63377Y-58076D01*
X63198Y-57897D02*
X63557Y-57897D01*
X63377Y-58718D02*
X63377Y-59076D01*
X63198Y-58897D02*
X63557Y-58897D01*
X63377Y-59718D02*
X63377Y-60076D01*
X63198Y-59897D02*
X63557Y-59897D01*
X63377Y-60718D02*
X63377Y-61076D01*
X63198Y-60897D02*
X63557Y-60897D01*
X63377Y-61718D02*
X63377Y-62076D01*
X63198Y-61897D02*
X63557Y-61897D01*
X63377Y-62718D02*
X63377Y-63076D01*
X63198Y-62897D02*
X63557Y-62897D01*
X63377Y-63718D02*
X63377Y-64076D01*
X63198Y-63897D02*
X63557Y-63897D01*
X63377Y-64718D02*
X63377Y-65076D01*
X63198Y-64897D02*
X63557Y-64897D01*
X63377Y-65718D02*
X63377Y-66076D01*
X63198Y-65897D02*
X63557Y-65897D01*
X64377Y-50718D02*
X64377Y-51076D01*
X64198Y-50897D02*
X64557Y-50897D01*
X64377Y-51718D02*
X64377Y-52076D01*
X64198Y-51897D02*
X64557Y-51897D01*
X64377Y-52718D02*
X64377Y-53076D01*
X64198Y-52897D02*
X64557Y-52897D01*
X64377Y-53718D02*
X64377Y-54076D01*
X64198Y-53897D02*
X64557Y-53897D01*
X64377Y-54718D02*
X64377Y-55076D01*
X64198Y-54897D02*
X64557Y-54897D01*
X64377Y-55718D02*
X64377Y-56076D01*
X64198Y-55897D02*
X64557Y-55897D01*
X64377Y-56718D02*
X64377Y-57076D01*
X64198Y-56897D02*
X64557Y-56897D01*
X64377Y-57718D02*
X64377Y-58076D01*
X64198Y-57897D02*
X64557Y-57897D01*
X64377Y-58718D02*
X64377Y-59076D01*
X64198Y-58897D02*
X64557Y-58897D01*
X64377Y-59718D02*
X64377Y-60076D01*
X64198Y-59897D02*
X64557Y-59897D01*
X64377Y-60718D02*
X64377Y-61076D01*
X64198Y-60897D02*
X64557Y-60897D01*
X64377Y-61718D02*
X64377Y-62076D01*
X64198Y-61897D02*
X64557Y-61897D01*
X64377Y-62718D02*
X64377Y-63076D01*
X64198Y-62897D02*
X64557Y-62897D01*
X64377Y-63718D02*
X64377Y-64076D01*
X64198Y-63897D02*
X64557Y-63897D01*
X64377Y-64718D02*
X64377Y-65076D01*
X64198Y-64897D02*
X64557Y-64897D01*
X64377Y-65718D02*
X64377Y-66076D01*
X64198Y-65897D02*
X64557Y-65897D01*
X29154Y-50001D02*
X29154Y-49746D01*
X28900Y-49746D01*
X28900Y-50001D01*
X29154Y-50001D01*
X29154Y-51001D02*
X29154Y-50746D01*
X28900Y-50746D01*
X28900Y-51001D01*
X29154Y-51001D01*
X29154Y-52001D02*
X29154Y-51746D01*
X28900Y-51746D01*
X28900Y-52001D01*
X29154Y-52001D01*
X29154Y-53001D02*
X29154Y-52746D01*
X28900Y-52746D01*
X28900Y-53001D01*
X29154Y-53001D01*
X29154Y-54001D02*
X29154Y-53746D01*
X28900Y-53746D01*
X28900Y-54001D01*
X29154Y-54001D01*
X29154Y-55001D02*
X29154Y-54746D01*
X28900Y-54746D01*
X28900Y-55001D01*
X29154Y-55001D01*
X29154Y-56001D02*
X29154Y-55746D01*
X28900Y-55746D01*
X28900Y-56001D01*
X29154Y-56001D01*
X29154Y-57001D02*
X29154Y-56746D01*
X28900Y-56746D01*
X28900Y-57001D01*
X29154Y-57001D01*
X29154Y-58001D02*
X29154Y-57746D01*
X28900Y-57746D01*
X28900Y-58001D01*
X29154Y-58001D01*
X29154Y-59001D02*
X29154Y-58746D01*
X28900Y-58746D01*
X28900Y-59001D01*
X29154Y-59001D01*
X29154Y-60001D02*
X29154Y-59746D01*
X28900Y-59746D01*
X28900Y-60001D01*
X29154Y-60001D01*
X29154Y-61001D02*
X29154Y-60746D01*
X28900Y-60746D01*
X28900Y-61001D01*
X29154Y-61001D01*
X29154Y-62001D02*
X29154Y-61746D01*
X28900Y-61746D01*
X28900Y-62001D01*
X29154Y-62001D01*
X29154Y-63001D02*
X29154Y-62746D01*
X28900Y-62746D01*
X28900Y-63001D01*
X29154Y-63001D01*
X29154Y-64001D02*
X29154Y-63746D01*
X28900Y-63746D01*
X28900Y-64001D01*
X29154Y-64001D01*
X29154Y-65001D02*
X29154Y-64746D01*
X28900Y-64746D01*
X28900Y-65001D01*
X29154Y-65001D01*
X29154Y-66001D02*
X29154Y-65746D01*
X28900Y-65746D01*
X28900Y-66001D01*
X29154Y-66001D01*
X30154Y-50001D02*
X30154Y-49746D01*
X29900Y-49746D01*
X29900Y-50001D01*
X30154Y-50001D01*
X30154Y-51001D02*
X30154Y-50746D01*
X29900Y-50746D01*
X29900Y-51001D01*
X30154Y-51001D01*
X30154Y-52001D02*
X30154Y-51746D01*
X29900Y-51746D01*
X29900Y-52001D01*
X30154Y-52001D01*
X30154Y-53001D02*
X30154Y-52746D01*
X29900Y-52746D01*
X29900Y-53001D01*
X30154Y-53001D01*
X30154Y-54001D02*
X30154Y-53746D01*
X29900Y-53746D01*
X29900Y-54001D01*
X30154Y-54001D01*
X30154Y-55001D02*
X30154Y-54746D01*
X29900Y-54746D01*
X29900Y-55001D01*
X30154Y-55001D01*
X30154Y-56001D02*
X30154Y-55746D01*
X29900Y-55746D01*
X29900Y-56001D01*
X30154Y-56001D01*
X30154Y-57001D02*
X30154Y-56746D01*
X29900Y-56746D01*
X29900Y-57001D01*
X30154Y-57001D01*
X30154Y-58001D02*
X30154Y-57746D01*
X29900Y-57746D01*
X29900Y-58001D01*
X30154Y-58001D01*
X30154Y-59001D02*
X30154Y-58746D01*
X29900Y-58746D01*
X29900Y-59001D01*
X30154Y-59001D01*
X30154Y-60001D02*
X30154Y-59746D01*
X29900Y-59746D01*
X29900Y-60001D01*
X30154Y-60001D01*
X30154Y-61001D02*
X30154Y-60746D01*
X29900Y-60746D01*
X29900Y-61001D01*
X30154Y-61001D01*
X30154Y-62001D02*
X30154Y-61746D01*
X29900Y-61746D01*
X29900Y-62001D01*
X30154Y-62001D01*
X30154Y-63001D02*
X30154Y-62746D01*
X29900Y-62746D01*
X29900Y-63001D01*
X30154Y-63001D01*
X30154Y-64001D02*
X30154Y-63746D01*
X29900Y-63746D01*
X29900Y-64001D01*
X30154Y-64001D01*
X30154Y-65001D02*
X30154Y-64746D01*
X29900Y-64746D01*
X29900Y-65001D01*
X30154Y-65001D01*
X30154Y-66001D02*
X30154Y-65746D01*
X29900Y-65746D01*
X29900Y-66001D01*
X30154Y-66001D01*
X40339Y-39446D02*
X40339Y-39191D01*
X40085Y-39191D01*
X40085Y-39446D01*
X40339Y-39446D01*
X40339Y-81572D02*
X40339Y-81317D01*
X40085Y-81317D01*
X40085Y-81572D01*
X40339Y-81572D01*
X42339Y-39446D02*
X42339Y-39191D01*
X42085Y-39191D01*
X42085Y-39446D01*
X42339Y-39446D01*
X42339Y-81572D02*
X42339Y-81317D01*
X42085Y-81317D01*
X42085Y-81572D01*
X42339Y-81572D01*
X44339Y-39446D02*
X44339Y-39191D01*
X44085Y-39191D01*
X44085Y-39446D01*
X44339Y-39446D01*
X44339Y-81572D02*
X44339Y-81317D01*
X44085Y-81317D01*
X44085Y-81572D01*
X44339Y-81572D01*
X46339Y-39446D02*
X46339Y-39191D01*
X46085Y-39191D01*
X46085Y-39446D01*
X46339Y-39446D01*
X46339Y-81572D02*
X46339Y-81317D01*
X46085Y-81317D01*
X46085Y-81572D01*
X46339Y-81572D01*
X48339Y-39446D02*
X48339Y-39191D01*
X48085Y-39191D01*
X48085Y-39446D01*
X48339Y-39446D01*
X48339Y-81572D02*
X48339Y-81317D01*
X48085Y-81317D01*
X48085Y-81572D01*
X48339Y-81572D01*
X76166Y-39446D02*
X76166Y-39191D01*
X75912Y-39191D01*
X75912Y-39446D01*
X76166Y-39446D01*
X76166Y-81572D02*
X76166Y-81317D01*
X75912Y-81317D01*
X75912Y-81572D01*
X76166Y-81572D01*
X78166Y-39446D02*
X78166Y-39191D01*
X77912Y-39191D01*
X77912Y-39446D01*
X78166Y-39446D01*
X78166Y-81572D02*
X78166Y-81317D01*
X77912Y-81317D01*
X77912Y-81572D01*
X78166Y-81572D01*
X80166Y-39446D02*
X80166Y-39191D01*
X79912Y-39191D01*
X79912Y-39446D01*
X80166Y-39446D01*
X80166Y-81572D02*
X80166Y-81317D01*
X79912Y-81317D01*
X79912Y-81572D01*
X80166Y-81572D01*
X82166Y-39446D02*
X82166Y-39191D01*
X81912Y-39191D01*
X81912Y-39446D01*
X82166Y-39446D01*
X82166Y-81572D02*
X82166Y-81317D01*
X81912Y-81317D01*
X81912Y-81572D01*
X82166Y-81572D01*
X84166Y-39446D02*
X84166Y-39191D01*
X83912Y-39191D01*
X83912Y-39446D01*
X84166Y-39446D01*
X84166Y-81572D02*
X84166Y-81317D01*
X83912Y-81317D01*
X83912Y-81572D01*
X84166Y-81572D01*
X94115Y-50001D02*
X94115Y-49746D01*
X93860Y-49746D01*
X93860Y-50001D01*
X94115Y-50001D01*
X94115Y-51001D02*
X94115Y-50746D01*
X93860Y-50746D01*
X93860Y-51001D01*
X94115Y-51001D01*
X94115Y-52001D02*
X94115Y-51746D01*
X93860Y-51746D01*
X93860Y-52001D01*
X94115Y-52001D01*
X94115Y-53001D02*
X94115Y-52746D01*
X93860Y-52746D01*
X93860Y-53001D01*
X94115Y-53001D01*
X94115Y-54001D02*
X94115Y-53746D01*
X93860Y-53746D01*
X93860Y-54001D01*
X94115Y-54001D01*
X94115Y-55001D02*
X94115Y-54746D01*
X93860Y-54746D01*
X93860Y-55001D01*
X94115Y-55001D01*
X94115Y-56001D02*
X94115Y-55746D01*
X93860Y-55746D01*
X93860Y-56001D01*
X94115Y-56001D01*
X94115Y-57001D02*
X94115Y-56746D01*
X93860Y-56746D01*
X93860Y-57001D01*
X94115Y-57001D01*
X94115Y-58001D02*
X94115Y-57746D01*
X93860Y-57746D01*
X93860Y-58001D01*
X94115Y-58001D01*
X94115Y-59001D02*
X94115Y-58746D01*
X93860Y-58746D01*
X93860Y-59001D01*
X94115Y-59001D01*
X94115Y-60001D02*
X94115Y-59746D01*
X93860Y-59746D01*
X93860Y-60001D01*
X94115Y-60001D01*
X94115Y-61001D02*
X94115Y-60746D01*
X93860Y-60746D01*
X93860Y-61001D01*
X94115Y-61001D01*
X94115Y-62001D02*
X94115Y-61746D01*
X93860Y-61746D01*
X93860Y-62001D01*
X94115Y-62001D01*
X94115Y-63001D02*
X94115Y-62746D01*
X93860Y-62746D01*
X93860Y-63001D01*
X94115Y-63001D01*
X94115Y-64001D02*
X94115Y-63746D01*
X93860Y-63746D01*
X93860Y-64001D01*
X94115Y-64001D01*
X94115Y-65001D02*
X94115Y-64746D01*
X93860Y-64746D01*
X93860Y-65001D01*
X94115Y-65001D01*
X94115Y-66001D02*
X94115Y-65746D01*
X93860Y-65746D01*
X93860Y-66001D01*
X94115Y-66001D01*
X95115Y-50001D02*
X95115Y-49746D01*
X94860Y-49746D01*
X94860Y-50001D01*
X95115Y-50001D01*
X95115Y-51001D02*
X95115Y-50746D01*
X94860Y-50746D01*
X94860Y-51001D01*
X95115Y-51001D01*
X95115Y-52001D02*
X95115Y-51746D01*
X94860Y-51746D01*
X94860Y-52001D01*
X95115Y-52001D01*
X95115Y-53001D02*
X95115Y-52746D01*
X94860Y-52746D01*
X94860Y-53001D01*
X95115Y-53001D01*
X95115Y-54001D02*
X95115Y-53746D01*
X94860Y-53746D01*
X94860Y-54001D01*
X95115Y-54001D01*
X95115Y-55001D02*
X95115Y-54746D01*
X94860Y-54746D01*
X94860Y-55001D01*
X95115Y-55001D01*
X95115Y-56001D02*
X95115Y-55746D01*
X94860Y-55746D01*
X94860Y-56001D01*
X95115Y-56001D01*
X95115Y-57001D02*
X95115Y-56746D01*
X94860Y-56746D01*
X94860Y-57001D01*
X95115Y-57001D01*
X95115Y-58001D02*
X95115Y-57746D01*
X94860Y-57746D01*
X94860Y-58001D01*
X95115Y-58001D01*
X95115Y-59001D02*
X95115Y-58746D01*
X94860Y-58746D01*
X94860Y-59001D01*
X95115Y-59001D01*
X95115Y-60001D02*
X95115Y-59746D01*
X94860Y-59746D01*
X94860Y-60001D01*
X95115Y-60001D01*
X95115Y-61001D02*
X95115Y-60746D01*
X94860Y-60746D01*
X94860Y-61001D01*
X95115Y-61001D01*
X95115Y-62001D02*
X95115Y-61746D01*
X94860Y-61746D01*
X94860Y-62001D01*
X95115Y-62001D01*
X95115Y-63001D02*
X95115Y-62746D01*
X94860Y-62746D01*
X94860Y-63001D01*
X95115Y-63001D01*
X95115Y-64001D02*
X95115Y-63746D01*
X94860Y-63746D01*
X94860Y-64001D01*
X95115Y-64001D01*
X95115Y-65001D02*
X95115Y-64746D01*
X94860Y-64746D01*
X94860Y-65001D01*
X95115Y-65001D01*
X95115Y-66001D02*
X95115Y-65746D01*
X94860Y-65746D01*
X94860Y-66001D01*
X95115Y-66001D01*
X31299Y-78629D02*
X31499Y-78429D01*
X31299Y-78229D01*
X31099Y-78429D01*
X31299Y-78629D01*
X31299Y-79629D02*
X31499Y-79429D01*
X31299Y-79229D01*
X31099Y-79429D01*
X31299Y-79629D01*
X31299Y-80629D02*
X31499Y-80429D01*
X31299Y-80229D01*
X31099Y-80429D01*
X31299Y-80629D01*
X50188Y-77562D02*
X50388Y-77362D01*
X50188Y-77162D01*
X49988Y-77362D01*
X50188Y-77562D01*
X51188Y-77562D02*
X51388Y-77362D01*
X51188Y-77162D01*
X50988Y-77362D01*
X51188Y-77562D01*
X65740Y-77759D02*
X65940Y-77559D01*
X65740Y-77359D01*
X65540Y-77559D01*
X65740Y-77759D01*
X66740Y-77759D02*
X66940Y-77559D01*
X66740Y-77359D01*
X66540Y-77559D01*
X66740Y-77759D01*
X94192Y-78629D02*
X94392Y-78429D01*
X94192Y-78229D01*
X93992Y-78429D01*
X94192Y-78629D01*
X94192Y-79629D02*
X94392Y-79429D01*
X94192Y-79229D01*
X93992Y-79429D01*
X94192Y-79629D01*
X94192Y-80629D02*
X94392Y-80429D01*
X94192Y-80229D01*
X93992Y-80429D01*
X94192Y-80629D01*
X35208Y-72168D02*
X35658Y-72618D01*
X35658Y-72168D02*
X35208Y-72618D01*
X35658Y-72393D02*
G75*
G03X35658Y-72393I-225J0D01*
G74*
G01*
X35208Y-78168D02*
X35658Y-78618D01*
X35658Y-78168D02*
X35208Y-78618D01*
X35658Y-78393D02*
G75*
G03X35658Y-78393I-225J0D01*
G74*
G01*
X40030Y-42149D02*
X40480Y-42599D01*
X40480Y-42149D02*
X40030Y-42599D01*
X40480Y-42374D02*
G75*
G03X40480Y-42374I-225J0D01*
G74*
G01*
X40030Y-48149D02*
X40480Y-48599D01*
X40480Y-48149D02*
X40030Y-48599D01*
X40480Y-48374D02*
G75*
G03X40480Y-48374I-225J0D01*
G74*
G01*
X41999Y-42149D02*
X42449Y-42599D01*
X42449Y-42149D02*
X41999Y-42599D01*
X42449Y-42374D02*
G75*
G03X42449Y-42374I-225J0D01*
G74*
G01*
X41999Y-48149D02*
X42449Y-48599D01*
X42449Y-48149D02*
X41999Y-48599D01*
X42449Y-48374D02*
G75*
G03X42449Y-48374I-225J0D01*
G74*
G01*
X46034Y-42149D02*
X46484Y-42599D01*
X46484Y-42149D02*
X46034Y-42599D01*
X46484Y-42374D02*
G75*
G03X46484Y-42374I-225J0D01*
G74*
G01*
X46034Y-48149D02*
X46484Y-48599D01*
X46484Y-48149D02*
X46034Y-48599D01*
X46484Y-48374D02*
G75*
G03X46484Y-48374I-225J0D01*
G74*
G01*
X48003Y-42149D02*
X48453Y-42599D01*
X48453Y-42149D02*
X48003Y-42599D01*
X48453Y-42374D02*
G75*
G03X48453Y-42374I-225J0D01*
G74*
G01*
X48003Y-48149D02*
X48453Y-48599D01*
X48453Y-48149D02*
X48003Y-48599D01*
X48453Y-48374D02*
G75*
G03X48453Y-48374I-225J0D01*
G74*
G01*
X73692Y-72168D02*
X74142Y-72618D01*
X74142Y-72168D02*
X73692Y-72618D01*
X74142Y-72393D02*
G75*
G03X74142Y-72393I-225J0D01*
G74*
G01*
X73692Y-78168D02*
X74142Y-78618D01*
X74142Y-78168D02*
X73692Y-78618D01*
X74142Y-78393D02*
G75*
G03X74142Y-78393I-225J0D01*
G74*
G01*
X77826Y-72168D02*
X78276Y-72618D01*
X78276Y-72168D02*
X77826Y-72618D01*
X78276Y-72393D02*
G75*
G03X78276Y-72393I-225J0D01*
G74*
G01*
X77826Y-78168D02*
X78276Y-78618D01*
X78276Y-78168D02*
X77826Y-78618D01*
X78276Y-78393D02*
G75*
G03X78276Y-78393I-225J0D01*
G74*
G01*
X81960Y-72168D02*
X82410Y-72618D01*
X82410Y-72168D02*
X81960Y-72618D01*
X82410Y-72393D02*
G75*
G03X82410Y-72393I-225J0D01*
G74*
G01*
X81960Y-78168D02*
X82410Y-78618D01*
X82410Y-78168D02*
X81960Y-78618D01*
X82410Y-78393D02*
G75*
G03X82410Y-78393I-225J0D01*
G74*
G01*
X85601Y-72168D02*
X86051Y-72618D01*
X86051Y-72168D02*
X85601Y-72618D01*
X86051Y-72393D02*
G75*
G03X86051Y-72393I-225J0D01*
G74*
G01*
X85601Y-78168D02*
X86051Y-78618D01*
X86051Y-78168D02*
X85601Y-78618D01*
X86051Y-78393D02*
G75*
G03X86051Y-78393I-225J0D01*
G74*
G01*
X89637Y-72168D02*
X90087Y-72618D01*
X90087Y-72168D02*
X89637Y-72618D01*
X90087Y-72393D02*
G75*
G03X90087Y-72393I-225J0D01*
G74*
G01*
X89637Y-78168D02*
X90087Y-78618D01*
X90087Y-78168D02*
X89637Y-78618D01*
X90087Y-78393D02*
G75*
G03X90087Y-78393I-225J0D01*
G74*
G01*
X28848Y-38124D02*
X29340Y-38616D01*
X29340Y-38124D02*
X28848Y-38616D01*
X29094Y-38124D02*
X29094Y-38616D01*
X28848Y-38370D02*
X29340Y-38370D01*
X28848Y-40124D02*
X29340Y-40616D01*
X29340Y-40124D02*
X28848Y-40616D01*
X29094Y-40124D02*
X29094Y-40616D01*
X28848Y-40370D02*
X29340Y-40370D01*
X94990Y-38124D02*
X95482Y-38616D01*
X95482Y-38124D02*
X94990Y-38616D01*
X95236Y-38124D02*
X95236Y-38616D01*
X94990Y-38370D02*
X95482Y-38370D01*
X94990Y-40124D02*
X95482Y-40616D01*
X95482Y-40124D02*
X94990Y-40616D01*
X95236Y-40124D02*
X95236Y-40616D01*
X94990Y-40370D02*
X95482Y-40370D01*
X28897Y-45844D02*
X29957Y-46904D01*
X29957Y-45844D02*
X28897Y-46904D01*
X29802Y-46748D02*
X29802Y-45999D01*
X29052Y-45999D01*
X29052Y-46748D01*
X29802Y-46748D01*
X28897Y-68844D02*
X29957Y-69904D01*
X29957Y-68844D02*
X28897Y-69904D01*
X29802Y-69748D02*
X29802Y-68999D01*
X29052Y-68999D01*
X29052Y-69748D01*
X29802Y-69748D01*
X93858Y-45844D02*
X94918Y-46904D01*
X94918Y-45844D02*
X93858Y-46904D01*
X94762Y-46748D02*
X94762Y-45999D01*
X94013Y-45999D01*
X94013Y-46748D01*
X94762Y-46748D01*
X93858Y-68844D02*
X94918Y-69904D01*
X94918Y-68844D02*
X93858Y-69904D01*
X94762Y-69748D02*
X94762Y-68999D01*
X94013Y-68999D01*
X94013Y-69748D01*
X94762Y-69748D01*
X28653Y-33783D02*
X30228Y-35358D01*
X30228Y-33783D02*
X28653Y-35358D01*
X29440Y-35358D02*
X30228Y-34570D01*
X29440Y-33783D01*
X28653Y-34570D01*
X29440Y-35358D01*
X28692Y-85409D02*
X30267Y-86984D01*
X30267Y-85409D02*
X28692Y-86984D01*
X29480Y-86984D02*
X30267Y-86196D01*
X29480Y-85409D01*
X28692Y-86196D01*
X29480Y-86984D01*
X93968Y-85417D02*
X95543Y-86992D01*
X95543Y-85417D02*
X93968Y-86992D01*
X94755Y-86992D02*
X95543Y-86204D01*
X94755Y-85417D01*
X93968Y-86204D01*
X94755Y-86992D01*
X93976Y-33984D02*
X95551Y-35559D01*
X95551Y-33984D02*
X93976Y-35559D01*
X94763Y-35559D02*
X95551Y-34771D01*
X94763Y-33984D01*
X93976Y-34771D01*
X94763Y-35559D01*
G54D13*
X27600Y-89419D02*
X27600Y-88237D01*
X27881Y-88237D01*
X28050Y-88294D01*
X28162Y-88406D01*
X28218Y-88519D01*
X28275Y-88744D01*
X28275Y-88912D01*
X28218Y-89137D01*
X28162Y-89250D01*
X28050Y-89362D01*
X27881Y-89419D01*
X27600Y-89419D01*
X28781Y-89419D02*
X28781Y-88631D01*
X28781Y-88856D02*
X28837Y-88744D01*
X28893Y-88687D01*
X29006Y-88631D01*
X29118Y-88631D01*
X29512Y-89419D02*
X29512Y-88631D01*
X29512Y-88237D02*
X29456Y-88294D01*
X29512Y-88350D01*
X29568Y-88294D01*
X29512Y-88237D01*
X29512Y-88350D01*
X30243Y-89419D02*
X30131Y-89362D01*
X30074Y-89250D01*
X30074Y-88237D01*
X30862Y-89419D02*
X30749Y-89362D01*
X30693Y-89250D01*
X30693Y-88237D01*
X32212Y-89419D02*
X32212Y-88237D01*
X32605Y-89081D01*
X32999Y-88237D01*
X32999Y-89419D01*
X34068Y-89419D02*
X34068Y-88800D01*
X34011Y-88687D01*
X33899Y-88631D01*
X33674Y-88631D01*
X33561Y-88687D01*
X34068Y-89362D02*
X33955Y-89419D01*
X33674Y-89419D01*
X33561Y-89362D01*
X33505Y-89250D01*
X33505Y-89137D01*
X33561Y-89025D01*
X33674Y-88969D01*
X33955Y-88969D01*
X34068Y-88912D01*
X34630Y-88631D02*
X34630Y-89812D01*
X34630Y-88687D02*
X34742Y-88631D01*
X34967Y-88631D01*
X35080Y-88687D01*
X35136Y-88744D01*
X35192Y-88856D01*
X35192Y-89194D01*
X35136Y-89306D01*
X35080Y-89362D01*
X34967Y-89419D01*
X34742Y-89419D01*
X34630Y-89362D01*
X35699Y-89306D02*
X35755Y-89362D01*
X35699Y-89419D01*
X35642Y-89362D01*
X35699Y-89306D01*
X35699Y-89419D01*
X35699Y-88687D02*
X35755Y-88744D01*
X35699Y-88800D01*
X35642Y-88744D01*
X35699Y-88687D01*
X35699Y-88800D01*
X26281Y-91296D02*
X26531Y-91546D01*
X26531Y-91296D02*
X26281Y-91546D01*
X27825Y-90718D02*
X27937Y-90718D01*
X28050Y-90774D01*
X28106Y-90830D01*
X28162Y-90943D01*
X28218Y-91168D01*
X28218Y-91449D01*
X28162Y-91674D01*
X28106Y-91786D01*
X28050Y-91843D01*
X27937Y-91899D01*
X27825Y-91899D01*
X27712Y-91843D01*
X27656Y-91786D01*
X27600Y-91674D01*
X27543Y-91449D01*
X27543Y-91168D01*
X27600Y-90943D01*
X27656Y-90830D01*
X27712Y-90774D01*
X27825Y-90718D01*
X28724Y-91786D02*
X28781Y-91843D01*
X28724Y-91899D01*
X28668Y-91843D01*
X28724Y-91786D01*
X28724Y-91899D01*
X29793Y-90718D02*
X29568Y-90718D01*
X29456Y-90774D01*
X29399Y-90830D01*
X29287Y-90999D01*
X29231Y-91224D01*
X29231Y-91674D01*
X29287Y-91786D01*
X29343Y-91843D01*
X29456Y-91899D01*
X29681Y-91899D01*
X29793Y-91843D01*
X29849Y-91786D01*
X29906Y-91674D01*
X29906Y-91393D01*
X29849Y-91280D01*
X29793Y-91224D01*
X29681Y-91168D01*
X29456Y-91168D01*
X29343Y-91224D01*
X29287Y-91280D01*
X29231Y-91393D01*
X30918Y-91111D02*
X30918Y-91899D01*
X30637Y-90661D02*
X30356Y-91505D01*
X31087Y-91505D01*
X31537Y-91899D02*
X31537Y-91111D01*
X31537Y-91224D02*
X31593Y-91168D01*
X31705Y-91111D01*
X31874Y-91111D01*
X31987Y-91168D01*
X32043Y-91280D01*
X32043Y-91899D01*
X32043Y-91280D02*
X32099Y-91168D01*
X32212Y-91111D01*
X32380Y-91111D01*
X32493Y-91168D01*
X32549Y-91280D01*
X32549Y-91899D01*
X33111Y-91899D02*
X33111Y-91111D01*
X33111Y-91224D02*
X33168Y-91168D01*
X33280Y-91111D01*
X33449Y-91111D01*
X33561Y-91168D01*
X33618Y-91280D01*
X33618Y-91899D01*
X33618Y-91280D02*
X33674Y-91168D01*
X33786Y-91111D01*
X33955Y-91111D01*
X34068Y-91168D01*
X34124Y-91280D01*
X34124Y-91899D01*
X36430Y-90661D02*
X35417Y-92180D01*
X37948Y-90718D02*
X38061Y-90718D01*
X38173Y-90774D01*
X38230Y-90830D01*
X38286Y-90943D01*
X38342Y-91168D01*
X38342Y-91449D01*
X38286Y-91674D01*
X38230Y-91786D01*
X38173Y-91843D01*
X38061Y-91899D01*
X37948Y-91899D01*
X37836Y-91843D01*
X37780Y-91786D01*
X37723Y-91674D01*
X37667Y-91449D01*
X37667Y-91168D01*
X37723Y-90943D01*
X37780Y-90830D01*
X37836Y-90774D01*
X37948Y-90718D01*
X38848Y-91786D02*
X38904Y-91843D01*
X38848Y-91899D01*
X38792Y-91843D01*
X38848Y-91786D01*
X38848Y-91899D01*
X39636Y-90718D02*
X39748Y-90718D01*
X39861Y-90774D01*
X39917Y-90830D01*
X39973Y-90943D01*
X40029Y-91168D01*
X40029Y-91449D01*
X39973Y-91674D01*
X39917Y-91786D01*
X39861Y-91843D01*
X39748Y-91899D01*
X39636Y-91899D01*
X39523Y-91843D01*
X39467Y-91786D01*
X39411Y-91674D01*
X39354Y-91449D01*
X39354Y-91168D01*
X39411Y-90943D01*
X39467Y-90830D01*
X39523Y-90774D01*
X39636Y-90718D01*
X40479Y-90830D02*
X40535Y-90774D01*
X40648Y-90718D01*
X40929Y-90718D01*
X41042Y-90774D01*
X41098Y-90830D01*
X41154Y-90943D01*
X41154Y-91055D01*
X41098Y-91224D01*
X40423Y-91899D01*
X41154Y-91899D01*
X42223Y-90718D02*
X41660Y-90718D01*
X41604Y-91280D01*
X41660Y-91224D01*
X41773Y-91168D01*
X42054Y-91168D01*
X42167Y-91224D01*
X42223Y-91280D01*
X42279Y-91393D01*
X42279Y-91674D01*
X42223Y-91786D01*
X42167Y-91843D01*
X42054Y-91899D01*
X41773Y-91899D01*
X41660Y-91843D01*
X41604Y-91786D01*
X42729Y-90718D02*
X42729Y-90943D01*
X43179Y-90718D02*
X43179Y-90943D01*
X44922Y-92349D02*
X44866Y-92293D01*
X44754Y-92124D01*
X44697Y-92011D01*
X44641Y-91843D01*
X44585Y-91561D01*
X44585Y-91336D01*
X44641Y-91055D01*
X44697Y-90886D01*
X44754Y-90774D01*
X44866Y-90605D01*
X44922Y-90549D01*
X45991Y-91899D02*
X45316Y-91899D01*
X45654Y-91899D02*
X45654Y-90718D01*
X45541Y-90886D01*
X45429Y-90999D01*
X45316Y-91055D01*
X47060Y-90718D02*
X46497Y-90718D01*
X46441Y-91280D01*
X46497Y-91224D01*
X46610Y-91168D01*
X46891Y-91168D01*
X47003Y-91224D01*
X47060Y-91280D01*
X47116Y-91393D01*
X47116Y-91674D01*
X47060Y-91786D01*
X47003Y-91843D01*
X46891Y-91899D01*
X46610Y-91899D01*
X46497Y-91843D01*
X46441Y-91786D01*
X48522Y-91899D02*
X48522Y-90718D01*
X49028Y-91899D02*
X49028Y-91280D01*
X48972Y-91168D01*
X48859Y-91111D01*
X48691Y-91111D01*
X48578Y-91168D01*
X48522Y-91224D01*
X49759Y-91899D02*
X49647Y-91843D01*
X49591Y-91786D01*
X49534Y-91674D01*
X49534Y-91336D01*
X49591Y-91224D01*
X49647Y-91168D01*
X49759Y-91111D01*
X49928Y-91111D01*
X50041Y-91168D01*
X50097Y-91224D01*
X50153Y-91336D01*
X50153Y-91674D01*
X50097Y-91786D01*
X50041Y-91843D01*
X49928Y-91899D01*
X49759Y-91899D01*
X50828Y-91899D02*
X50715Y-91843D01*
X50659Y-91730D01*
X50659Y-90718D01*
X51728Y-91843D02*
X51615Y-91899D01*
X51390Y-91899D01*
X51278Y-91843D01*
X51222Y-91730D01*
X51222Y-91280D01*
X51278Y-91168D01*
X51390Y-91111D01*
X51615Y-91111D01*
X51728Y-91168D01*
X51784Y-91280D01*
X51784Y-91393D01*
X51222Y-91505D01*
X52234Y-91843D02*
X52347Y-91899D01*
X52571Y-91899D01*
X52684Y-91843D01*
X52740Y-91730D01*
X52740Y-91674D01*
X52684Y-91561D01*
X52571Y-91505D01*
X52403Y-91505D01*
X52290Y-91449D01*
X52234Y-91336D01*
X52234Y-91280D01*
X52290Y-91168D01*
X52403Y-91111D01*
X52571Y-91111D01*
X52684Y-91168D01*
X53134Y-92349D02*
X53190Y-92293D01*
X53303Y-92124D01*
X53359Y-92011D01*
X53415Y-91843D01*
X53471Y-91561D01*
X53471Y-91336D01*
X53415Y-91055D01*
X53359Y-90886D01*
X53303Y-90774D01*
X53190Y-90605D01*
X53134Y-90549D01*
G54D12*
X26531Y-92980D02*
G75*
G03X26531Y-92980I-160J0D01*
G74*
G01*
G54D13*
X27825Y-92277D02*
X27937Y-92277D01*
X28050Y-92333D01*
X28106Y-92389D01*
X28162Y-92502D01*
X28218Y-92727D01*
X28218Y-93008D01*
X28162Y-93233D01*
X28106Y-93345D01*
X28050Y-93402D01*
X27937Y-93458D01*
X27825Y-93458D01*
X27712Y-93402D01*
X27656Y-93345D01*
X27600Y-93233D01*
X27543Y-93008D01*
X27543Y-92727D01*
X27600Y-92502D01*
X27656Y-92389D01*
X27712Y-92333D01*
X27825Y-92277D01*
X28724Y-93345D02*
X28781Y-93402D01*
X28724Y-93458D01*
X28668Y-93402D01*
X28724Y-93345D01*
X28724Y-93458D01*
X29456Y-92783D02*
X29343Y-92727D01*
X29287Y-92670D01*
X29231Y-92558D01*
X29231Y-92502D01*
X29287Y-92389D01*
X29343Y-92333D01*
X29456Y-92277D01*
X29681Y-92277D01*
X29793Y-92333D01*
X29849Y-92389D01*
X29906Y-92502D01*
X29906Y-92558D01*
X29849Y-92670D01*
X29793Y-92727D01*
X29681Y-92783D01*
X29456Y-92783D01*
X29343Y-92839D01*
X29287Y-92895D01*
X29231Y-93008D01*
X29231Y-93233D01*
X29287Y-93345D01*
X29343Y-93402D01*
X29456Y-93458D01*
X29681Y-93458D01*
X29793Y-93402D01*
X29849Y-93345D01*
X29906Y-93233D01*
X29906Y-93008D01*
X29849Y-92895D01*
X29793Y-92839D01*
X29681Y-92783D01*
X31030Y-93458D02*
X30356Y-93458D01*
X30693Y-93458D02*
X30693Y-92277D01*
X30580Y-92446D01*
X30468Y-92558D01*
X30356Y-92614D01*
X31537Y-93458D02*
X31537Y-92670D01*
X31537Y-92783D02*
X31593Y-92727D01*
X31705Y-92670D01*
X31874Y-92670D01*
X31987Y-92727D01*
X32043Y-92839D01*
X32043Y-93458D01*
X32043Y-92839D02*
X32099Y-92727D01*
X32212Y-92670D01*
X32380Y-92670D01*
X32493Y-92727D01*
X32549Y-92839D01*
X32549Y-93458D01*
X33111Y-93458D02*
X33111Y-92670D01*
X33111Y-92783D02*
X33168Y-92727D01*
X33280Y-92670D01*
X33449Y-92670D01*
X33561Y-92727D01*
X33618Y-92839D01*
X33618Y-93458D01*
X33618Y-92839D02*
X33674Y-92727D01*
X33786Y-92670D01*
X33955Y-92670D01*
X34068Y-92727D01*
X34124Y-92839D01*
X34124Y-93458D01*
X36430Y-92221D02*
X35417Y-93739D01*
X37948Y-92277D02*
X38061Y-92277D01*
X38173Y-92333D01*
X38230Y-92389D01*
X38286Y-92502D01*
X38342Y-92727D01*
X38342Y-93008D01*
X38286Y-93233D01*
X38230Y-93345D01*
X38173Y-93402D01*
X38061Y-93458D01*
X37948Y-93458D01*
X37836Y-93402D01*
X37780Y-93345D01*
X37723Y-93233D01*
X37667Y-93008D01*
X37667Y-92727D01*
X37723Y-92502D01*
X37780Y-92389D01*
X37836Y-92333D01*
X37948Y-92277D01*
X38848Y-93345D02*
X38904Y-93402D01*
X38848Y-93458D01*
X38792Y-93402D01*
X38848Y-93345D01*
X38848Y-93458D01*
X39636Y-92277D02*
X39748Y-92277D01*
X39861Y-92333D01*
X39917Y-92389D01*
X39973Y-92502D01*
X40029Y-92727D01*
X40029Y-93008D01*
X39973Y-93233D01*
X39917Y-93345D01*
X39861Y-93402D01*
X39748Y-93458D01*
X39636Y-93458D01*
X39523Y-93402D01*
X39467Y-93345D01*
X39411Y-93233D01*
X39354Y-93008D01*
X39354Y-92727D01*
X39411Y-92502D01*
X39467Y-92389D01*
X39523Y-92333D01*
X39636Y-92277D01*
X40423Y-92277D02*
X41154Y-92277D01*
X40760Y-92727D01*
X40929Y-92727D01*
X41042Y-92783D01*
X41098Y-92839D01*
X41154Y-92952D01*
X41154Y-93233D01*
X41098Y-93345D01*
X41042Y-93402D01*
X40929Y-93458D01*
X40592Y-93458D01*
X40479Y-93402D01*
X40423Y-93345D01*
X41604Y-92389D02*
X41660Y-92333D01*
X41773Y-92277D01*
X42054Y-92277D01*
X42167Y-92333D01*
X42223Y-92389D01*
X42279Y-92502D01*
X42279Y-92614D01*
X42223Y-92783D01*
X41548Y-93458D01*
X42279Y-93458D01*
X42729Y-92277D02*
X42729Y-92502D01*
X43179Y-92277D02*
X43179Y-92502D01*
X44922Y-93908D02*
X44866Y-93852D01*
X44754Y-93683D01*
X44697Y-93570D01*
X44641Y-93402D01*
X44585Y-93120D01*
X44585Y-92895D01*
X44641Y-92614D01*
X44697Y-92446D01*
X44754Y-92333D01*
X44866Y-92164D01*
X44922Y-92108D01*
X45260Y-92277D02*
X45991Y-92277D01*
X45597Y-92727D01*
X45766Y-92727D01*
X45879Y-92783D01*
X45935Y-92839D01*
X45991Y-92952D01*
X45991Y-93233D01*
X45935Y-93345D01*
X45879Y-93402D01*
X45766Y-93458D01*
X45429Y-93458D01*
X45316Y-93402D01*
X45260Y-93345D01*
X46666Y-92783D02*
X46553Y-92727D01*
X46497Y-92670D01*
X46441Y-92558D01*
X46441Y-92502D01*
X46497Y-92389D01*
X46553Y-92333D01*
X46666Y-92277D01*
X46891Y-92277D01*
X47003Y-92333D01*
X47060Y-92389D01*
X47116Y-92502D01*
X47116Y-92558D01*
X47060Y-92670D01*
X47003Y-92727D01*
X46891Y-92783D01*
X46666Y-92783D01*
X46553Y-92839D01*
X46497Y-92895D01*
X46441Y-93008D01*
X46441Y-93233D01*
X46497Y-93345D01*
X46553Y-93402D01*
X46666Y-93458D01*
X46891Y-93458D01*
X47003Y-93402D01*
X47060Y-93345D01*
X47116Y-93233D01*
X47116Y-93008D01*
X47060Y-92895D01*
X47003Y-92839D01*
X46891Y-92783D01*
X48522Y-93458D02*
X48522Y-92277D01*
X49028Y-93458D02*
X49028Y-92839D01*
X48972Y-92727D01*
X48859Y-92670D01*
X48691Y-92670D01*
X48578Y-92727D01*
X48522Y-92783D01*
X49759Y-93458D02*
X49647Y-93402D01*
X49591Y-93345D01*
X49534Y-93233D01*
X49534Y-92895D01*
X49591Y-92783D01*
X49647Y-92727D01*
X49759Y-92670D01*
X49928Y-92670D01*
X50041Y-92727D01*
X50097Y-92783D01*
X50153Y-92895D01*
X50153Y-93233D01*
X50097Y-93345D01*
X50041Y-93402D01*
X49928Y-93458D01*
X49759Y-93458D01*
X50828Y-93458D02*
X50715Y-93402D01*
X50659Y-93289D01*
X50659Y-92277D01*
X51728Y-93402D02*
X51615Y-93458D01*
X51390Y-93458D01*
X51278Y-93402D01*
X51222Y-93289D01*
X51222Y-92839D01*
X51278Y-92727D01*
X51390Y-92670D01*
X51615Y-92670D01*
X51728Y-92727D01*
X51784Y-92839D01*
X51784Y-92952D01*
X51222Y-93064D01*
X52234Y-93402D02*
X52347Y-93458D01*
X52571Y-93458D01*
X52684Y-93402D01*
X52740Y-93289D01*
X52740Y-93233D01*
X52684Y-93120D01*
X52571Y-93064D01*
X52403Y-93064D01*
X52290Y-93008D01*
X52234Y-92895D01*
X52234Y-92839D01*
X52290Y-92727D01*
X52403Y-92670D01*
X52571Y-92670D01*
X52684Y-92727D01*
X53134Y-93908D02*
X53190Y-93852D01*
X53303Y-93683D01*
X53359Y-93570D01*
X53415Y-93402D01*
X53471Y-93120D01*
X53471Y-92895D01*
X53415Y-92614D01*
X53359Y-92446D01*
X53303Y-92333D01*
X53190Y-92164D01*
X53134Y-92108D01*
X26352Y-94360D02*
X26352Y-94718D01*
X26173Y-94539D02*
X26531Y-94539D01*
X27825Y-93836D02*
X27937Y-93836D01*
X28050Y-93892D01*
X28106Y-93948D01*
X28162Y-94061D01*
X28218Y-94286D01*
X28218Y-94567D01*
X28162Y-94792D01*
X28106Y-94904D01*
X28050Y-94961D01*
X27937Y-95017D01*
X27825Y-95017D01*
X27712Y-94961D01*
X27656Y-94904D01*
X27600Y-94792D01*
X27543Y-94567D01*
X27543Y-94286D01*
X27600Y-94061D01*
X27656Y-93948D01*
X27712Y-93892D01*
X27825Y-93836D01*
X28724Y-94904D02*
X28781Y-94961D01*
X28724Y-95017D01*
X28668Y-94961D01*
X28724Y-94904D01*
X28724Y-95017D01*
X29343Y-95017D02*
X29568Y-95017D01*
X29681Y-94961D01*
X29737Y-94904D01*
X29849Y-94736D01*
X29906Y-94511D01*
X29906Y-94061D01*
X29849Y-93948D01*
X29793Y-93892D01*
X29681Y-93836D01*
X29456Y-93836D01*
X29343Y-93892D01*
X29287Y-93948D01*
X29231Y-94061D01*
X29231Y-94342D01*
X29287Y-94455D01*
X29343Y-94511D01*
X29456Y-94567D01*
X29681Y-94567D01*
X29793Y-94511D01*
X29849Y-94455D01*
X29906Y-94342D01*
X31030Y-95017D02*
X30356Y-95017D01*
X30693Y-95017D02*
X30693Y-93836D01*
X30580Y-94005D01*
X30468Y-94117D01*
X30356Y-94173D01*
X31537Y-95017D02*
X31537Y-94230D01*
X31537Y-94342D02*
X31593Y-94286D01*
X31705Y-94230D01*
X31874Y-94230D01*
X31987Y-94286D01*
X32043Y-94398D01*
X32043Y-95017D01*
X32043Y-94398D02*
X32099Y-94286D01*
X32212Y-94230D01*
X32380Y-94230D01*
X32493Y-94286D01*
X32549Y-94398D01*
X32549Y-95017D01*
X33111Y-95017D02*
X33111Y-94230D01*
X33111Y-94342D02*
X33168Y-94286D01*
X33280Y-94230D01*
X33449Y-94230D01*
X33561Y-94286D01*
X33618Y-94398D01*
X33618Y-95017D01*
X33618Y-94398D02*
X33674Y-94286D01*
X33786Y-94230D01*
X33955Y-94230D01*
X34068Y-94286D01*
X34124Y-94398D01*
X34124Y-95017D01*
X36430Y-93780D02*
X35417Y-95298D01*
X37948Y-93836D02*
X38061Y-93836D01*
X38173Y-93892D01*
X38230Y-93948D01*
X38286Y-94061D01*
X38342Y-94286D01*
X38342Y-94567D01*
X38286Y-94792D01*
X38230Y-94904D01*
X38173Y-94961D01*
X38061Y-95017D01*
X37948Y-95017D01*
X37836Y-94961D01*
X37780Y-94904D01*
X37723Y-94792D01*
X37667Y-94567D01*
X37667Y-94286D01*
X37723Y-94061D01*
X37780Y-93948D01*
X37836Y-93892D01*
X37948Y-93836D01*
X38848Y-94904D02*
X38904Y-94961D01*
X38848Y-95017D01*
X38792Y-94961D01*
X38848Y-94904D01*
X38848Y-95017D01*
X39636Y-93836D02*
X39748Y-93836D01*
X39861Y-93892D01*
X39917Y-93948D01*
X39973Y-94061D01*
X40029Y-94286D01*
X40029Y-94567D01*
X39973Y-94792D01*
X39917Y-94904D01*
X39861Y-94961D01*
X39748Y-95017D01*
X39636Y-95017D01*
X39523Y-94961D01*
X39467Y-94904D01*
X39411Y-94792D01*
X39354Y-94567D01*
X39354Y-94286D01*
X39411Y-94061D01*
X39467Y-93948D01*
X39523Y-93892D01*
X39636Y-93836D01*
X40423Y-93836D02*
X41154Y-93836D01*
X40760Y-94286D01*
X40929Y-94286D01*
X41042Y-94342D01*
X41098Y-94398D01*
X41154Y-94511D01*
X41154Y-94792D01*
X41098Y-94904D01*
X41042Y-94961D01*
X40929Y-95017D01*
X40592Y-95017D01*
X40479Y-94961D01*
X40423Y-94904D01*
X42167Y-93836D02*
X41942Y-93836D01*
X41829Y-93892D01*
X41773Y-93948D01*
X41660Y-94117D01*
X41604Y-94342D01*
X41604Y-94792D01*
X41660Y-94904D01*
X41717Y-94961D01*
X41829Y-95017D01*
X42054Y-95017D01*
X42167Y-94961D01*
X42223Y-94904D01*
X42279Y-94792D01*
X42279Y-94511D01*
X42223Y-94398D01*
X42167Y-94342D01*
X42054Y-94286D01*
X41829Y-94286D01*
X41717Y-94342D01*
X41660Y-94398D01*
X41604Y-94511D01*
X42729Y-93836D02*
X42729Y-94061D01*
X43179Y-93836D02*
X43179Y-94061D01*
X44922Y-95467D02*
X44866Y-95411D01*
X44754Y-95242D01*
X44697Y-95129D01*
X44641Y-94961D01*
X44585Y-94679D01*
X44585Y-94455D01*
X44641Y-94173D01*
X44697Y-94005D01*
X44754Y-93892D01*
X44866Y-93723D01*
X44922Y-93667D01*
X45260Y-93836D02*
X45991Y-93836D01*
X45597Y-94286D01*
X45766Y-94286D01*
X45879Y-94342D01*
X45935Y-94398D01*
X45991Y-94511D01*
X45991Y-94792D01*
X45935Y-94904D01*
X45879Y-94961D01*
X45766Y-95017D01*
X45429Y-95017D01*
X45316Y-94961D01*
X45260Y-94904D01*
X46441Y-93948D02*
X46497Y-93892D01*
X46610Y-93836D01*
X46891Y-93836D01*
X47003Y-93892D01*
X47060Y-93948D01*
X47116Y-94061D01*
X47116Y-94173D01*
X47060Y-94342D01*
X46385Y-95017D01*
X47116Y-95017D01*
X48522Y-95017D02*
X48522Y-93836D01*
X49028Y-95017D02*
X49028Y-94398D01*
X48972Y-94286D01*
X48859Y-94230D01*
X48691Y-94230D01*
X48578Y-94286D01*
X48522Y-94342D01*
X49759Y-95017D02*
X49647Y-94961D01*
X49591Y-94904D01*
X49534Y-94792D01*
X49534Y-94455D01*
X49591Y-94342D01*
X49647Y-94286D01*
X49759Y-94230D01*
X49928Y-94230D01*
X50041Y-94286D01*
X50097Y-94342D01*
X50153Y-94455D01*
X50153Y-94792D01*
X50097Y-94904D01*
X50041Y-94961D01*
X49928Y-95017D01*
X49759Y-95017D01*
X50828Y-95017D02*
X50715Y-94961D01*
X50659Y-94848D01*
X50659Y-93836D01*
X51728Y-94961D02*
X51615Y-95017D01*
X51390Y-95017D01*
X51278Y-94961D01*
X51222Y-94848D01*
X51222Y-94398D01*
X51278Y-94286D01*
X51390Y-94230D01*
X51615Y-94230D01*
X51728Y-94286D01*
X51784Y-94398D01*
X51784Y-94511D01*
X51222Y-94623D01*
X52234Y-94961D02*
X52347Y-95017D01*
X52571Y-95017D01*
X52684Y-94961D01*
X52740Y-94848D01*
X52740Y-94792D01*
X52684Y-94679D01*
X52571Y-94623D01*
X52403Y-94623D01*
X52290Y-94567D01*
X52234Y-94455D01*
X52234Y-94398D01*
X52290Y-94286D01*
X52403Y-94230D01*
X52571Y-94230D01*
X52684Y-94286D01*
X53134Y-95467D02*
X53190Y-95411D01*
X53303Y-95242D01*
X53359Y-95129D01*
X53415Y-94961D01*
X53471Y-94679D01*
X53471Y-94455D01*
X53415Y-94173D01*
X53359Y-94005D01*
X53303Y-93892D01*
X53190Y-93723D01*
X53134Y-93667D01*
G54D12*
X26478Y-96225D02*
X26478Y-95971D01*
X26224Y-95971D01*
X26224Y-96225D01*
X26478Y-96225D01*
G54D13*
X27825Y-95395D02*
X27937Y-95395D01*
X28050Y-95451D01*
X28106Y-95507D01*
X28162Y-95620D01*
X28218Y-95845D01*
X28218Y-96126D01*
X28162Y-96351D01*
X28106Y-96464D01*
X28050Y-96520D01*
X27937Y-96576D01*
X27825Y-96576D01*
X27712Y-96520D01*
X27656Y-96464D01*
X27600Y-96351D01*
X27543Y-96126D01*
X27543Y-95845D01*
X27600Y-95620D01*
X27656Y-95507D01*
X27712Y-95451D01*
X27825Y-95395D01*
X28724Y-96464D02*
X28781Y-96520D01*
X28724Y-96576D01*
X28668Y-96520D01*
X28724Y-96464D01*
X28724Y-96576D01*
X29343Y-96576D02*
X29568Y-96576D01*
X29681Y-96520D01*
X29737Y-96464D01*
X29849Y-96295D01*
X29906Y-96070D01*
X29906Y-95620D01*
X29849Y-95507D01*
X29793Y-95451D01*
X29681Y-95395D01*
X29456Y-95395D01*
X29343Y-95451D01*
X29287Y-95507D01*
X29231Y-95620D01*
X29231Y-95901D01*
X29287Y-96014D01*
X29343Y-96070D01*
X29456Y-96126D01*
X29681Y-96126D01*
X29793Y-96070D01*
X29849Y-96014D01*
X29906Y-95901D01*
X31030Y-96576D02*
X30356Y-96576D01*
X30693Y-96576D02*
X30693Y-95395D01*
X30580Y-95564D01*
X30468Y-95676D01*
X30356Y-95732D01*
X31537Y-96576D02*
X31537Y-95789D01*
X31537Y-95901D02*
X31593Y-95845D01*
X31705Y-95789D01*
X31874Y-95789D01*
X31987Y-95845D01*
X32043Y-95957D01*
X32043Y-96576D01*
X32043Y-95957D02*
X32099Y-95845D01*
X32212Y-95789D01*
X32380Y-95789D01*
X32493Y-95845D01*
X32549Y-95957D01*
X32549Y-96576D01*
X33111Y-96576D02*
X33111Y-95789D01*
X33111Y-95901D02*
X33168Y-95845D01*
X33280Y-95789D01*
X33449Y-95789D01*
X33561Y-95845D01*
X33618Y-95957D01*
X33618Y-96576D01*
X33618Y-95957D02*
X33674Y-95845D01*
X33786Y-95789D01*
X33955Y-95789D01*
X34068Y-95845D01*
X34124Y-95957D01*
X34124Y-96576D01*
X36430Y-95339D02*
X35417Y-96857D01*
X37948Y-95395D02*
X38061Y-95395D01*
X38173Y-95451D01*
X38230Y-95507D01*
X38286Y-95620D01*
X38342Y-95845D01*
X38342Y-96126D01*
X38286Y-96351D01*
X38230Y-96464D01*
X38173Y-96520D01*
X38061Y-96576D01*
X37948Y-96576D01*
X37836Y-96520D01*
X37780Y-96464D01*
X37723Y-96351D01*
X37667Y-96126D01*
X37667Y-95845D01*
X37723Y-95620D01*
X37780Y-95507D01*
X37836Y-95451D01*
X37948Y-95395D01*
X38848Y-96464D02*
X38904Y-96520D01*
X38848Y-96576D01*
X38792Y-96520D01*
X38848Y-96464D01*
X38848Y-96576D01*
X39636Y-95395D02*
X39748Y-95395D01*
X39861Y-95451D01*
X39917Y-95507D01*
X39973Y-95620D01*
X40029Y-95845D01*
X40029Y-96126D01*
X39973Y-96351D01*
X39917Y-96464D01*
X39861Y-96520D01*
X39748Y-96576D01*
X39636Y-96576D01*
X39523Y-96520D01*
X39467Y-96464D01*
X39411Y-96351D01*
X39354Y-96126D01*
X39354Y-95845D01*
X39411Y-95620D01*
X39467Y-95507D01*
X39523Y-95451D01*
X39636Y-95395D01*
X40423Y-95395D02*
X41154Y-95395D01*
X40760Y-95845D01*
X40929Y-95845D01*
X41042Y-95901D01*
X41098Y-95957D01*
X41154Y-96070D01*
X41154Y-96351D01*
X41098Y-96464D01*
X41042Y-96520D01*
X40929Y-96576D01*
X40592Y-96576D01*
X40479Y-96520D01*
X40423Y-96464D01*
X42167Y-95395D02*
X41942Y-95395D01*
X41829Y-95451D01*
X41773Y-95507D01*
X41660Y-95676D01*
X41604Y-95901D01*
X41604Y-96351D01*
X41660Y-96464D01*
X41717Y-96520D01*
X41829Y-96576D01*
X42054Y-96576D01*
X42167Y-96520D01*
X42223Y-96464D01*
X42279Y-96351D01*
X42279Y-96070D01*
X42223Y-95957D01*
X42167Y-95901D01*
X42054Y-95845D01*
X41829Y-95845D01*
X41717Y-95901D01*
X41660Y-95957D01*
X41604Y-96070D01*
X42729Y-95395D02*
X42729Y-95620D01*
X43179Y-95395D02*
X43179Y-95620D01*
X44922Y-97026D02*
X44866Y-96970D01*
X44754Y-96801D01*
X44697Y-96688D01*
X44641Y-96520D01*
X44585Y-96239D01*
X44585Y-96014D01*
X44641Y-95732D01*
X44697Y-95564D01*
X44754Y-95451D01*
X44866Y-95282D01*
X44922Y-95226D01*
X45541Y-95901D02*
X45429Y-95845D01*
X45372Y-95789D01*
X45316Y-95676D01*
X45316Y-95620D01*
X45372Y-95507D01*
X45429Y-95451D01*
X45541Y-95395D01*
X45766Y-95395D01*
X45879Y-95451D01*
X45935Y-95507D01*
X45991Y-95620D01*
X45991Y-95676D01*
X45935Y-95789D01*
X45879Y-95845D01*
X45766Y-95901D01*
X45541Y-95901D01*
X45429Y-95957D01*
X45372Y-96014D01*
X45316Y-96126D01*
X45316Y-96351D01*
X45372Y-96464D01*
X45429Y-96520D01*
X45541Y-96576D01*
X45766Y-96576D01*
X45879Y-96520D01*
X45935Y-96464D01*
X45991Y-96351D01*
X45991Y-96126D01*
X45935Y-96014D01*
X45879Y-95957D01*
X45766Y-95901D01*
X46666Y-95901D02*
X46553Y-95845D01*
X46497Y-95789D01*
X46441Y-95676D01*
X46441Y-95620D01*
X46497Y-95507D01*
X46553Y-95451D01*
X46666Y-95395D01*
X46891Y-95395D01*
X47003Y-95451D01*
X47060Y-95507D01*
X47116Y-95620D01*
X47116Y-95676D01*
X47060Y-95789D01*
X47003Y-95845D01*
X46891Y-95901D01*
X46666Y-95901D01*
X46553Y-95957D01*
X46497Y-96014D01*
X46441Y-96126D01*
X46441Y-96351D01*
X46497Y-96464D01*
X46553Y-96520D01*
X46666Y-96576D01*
X46891Y-96576D01*
X47003Y-96520D01*
X47060Y-96464D01*
X47116Y-96351D01*
X47116Y-96126D01*
X47060Y-96014D01*
X47003Y-95957D01*
X46891Y-95901D01*
X48522Y-96576D02*
X48522Y-95395D01*
X49028Y-96576D02*
X49028Y-95957D01*
X48972Y-95845D01*
X48859Y-95789D01*
X48691Y-95789D01*
X48578Y-95845D01*
X48522Y-95901D01*
X49759Y-96576D02*
X49647Y-96520D01*
X49591Y-96464D01*
X49534Y-96351D01*
X49534Y-96014D01*
X49591Y-95901D01*
X49647Y-95845D01*
X49759Y-95789D01*
X49928Y-95789D01*
X50041Y-95845D01*
X50097Y-95901D01*
X50153Y-96014D01*
X50153Y-96351D01*
X50097Y-96464D01*
X50041Y-96520D01*
X49928Y-96576D01*
X49759Y-96576D01*
X50828Y-96576D02*
X50715Y-96520D01*
X50659Y-96407D01*
X50659Y-95395D01*
X51728Y-96520D02*
X51615Y-96576D01*
X51390Y-96576D01*
X51278Y-96520D01*
X51222Y-96407D01*
X51222Y-95957D01*
X51278Y-95845D01*
X51390Y-95789D01*
X51615Y-95789D01*
X51728Y-95845D01*
X51784Y-95957D01*
X51784Y-96070D01*
X51222Y-96182D01*
X52234Y-96520D02*
X52347Y-96576D01*
X52571Y-96576D01*
X52684Y-96520D01*
X52740Y-96407D01*
X52740Y-96351D01*
X52684Y-96239D01*
X52571Y-96182D01*
X52403Y-96182D01*
X52290Y-96126D01*
X52234Y-96014D01*
X52234Y-95957D01*
X52290Y-95845D01*
X52403Y-95789D01*
X52571Y-95789D01*
X52684Y-95845D01*
X53134Y-97026D02*
X53190Y-96970D01*
X53303Y-96801D01*
X53359Y-96688D01*
X53415Y-96520D01*
X53471Y-96239D01*
X53471Y-96014D01*
X53415Y-95732D01*
X53359Y-95564D01*
X53303Y-95451D01*
X53190Y-95282D01*
X53134Y-95226D01*
G54D12*
X26331Y-97857D02*
X26531Y-97657D01*
X26331Y-97457D01*
X26131Y-97657D01*
X26331Y-97857D01*
G54D13*
X28218Y-98135D02*
X27543Y-98135D01*
X27881Y-98135D02*
X27881Y-96954D01*
X27768Y-97123D01*
X27656Y-97235D01*
X27543Y-97291D01*
X28724Y-98023D02*
X28781Y-98079D01*
X28724Y-98135D01*
X28668Y-98079D01*
X28724Y-98023D01*
X28724Y-98135D01*
X29512Y-96954D02*
X29624Y-96954D01*
X29737Y-97010D01*
X29793Y-97066D01*
X29849Y-97179D01*
X29906Y-97404D01*
X29906Y-97685D01*
X29849Y-97910D01*
X29793Y-98023D01*
X29737Y-98079D01*
X29624Y-98135D01*
X29512Y-98135D01*
X29399Y-98079D01*
X29343Y-98023D01*
X29287Y-97910D01*
X29231Y-97685D01*
X29231Y-97404D01*
X29287Y-97179D01*
X29343Y-97066D01*
X29399Y-97010D01*
X29512Y-96954D01*
X30356Y-97066D02*
X30412Y-97010D01*
X30524Y-96954D01*
X30805Y-96954D01*
X30918Y-97010D01*
X30974Y-97066D01*
X31030Y-97179D01*
X31030Y-97291D01*
X30974Y-97460D01*
X30299Y-98135D01*
X31030Y-98135D01*
X31537Y-98135D02*
X31537Y-97348D01*
X31537Y-97460D02*
X31593Y-97404D01*
X31705Y-97348D01*
X31874Y-97348D01*
X31987Y-97404D01*
X32043Y-97516D01*
X32043Y-98135D01*
X32043Y-97516D02*
X32099Y-97404D01*
X32212Y-97348D01*
X32380Y-97348D01*
X32493Y-97404D01*
X32549Y-97516D01*
X32549Y-98135D01*
X33111Y-98135D02*
X33111Y-97348D01*
X33111Y-97460D02*
X33168Y-97404D01*
X33280Y-97348D01*
X33449Y-97348D01*
X33561Y-97404D01*
X33618Y-97516D01*
X33618Y-98135D01*
X33618Y-97516D02*
X33674Y-97404D01*
X33786Y-97348D01*
X33955Y-97348D01*
X34068Y-97404D01*
X34124Y-97516D01*
X34124Y-98135D01*
X36430Y-96898D02*
X35417Y-98416D01*
X37948Y-96954D02*
X38061Y-96954D01*
X38173Y-97010D01*
X38230Y-97066D01*
X38286Y-97179D01*
X38342Y-97404D01*
X38342Y-97685D01*
X38286Y-97910D01*
X38230Y-98023D01*
X38173Y-98079D01*
X38061Y-98135D01*
X37948Y-98135D01*
X37836Y-98079D01*
X37780Y-98023D01*
X37723Y-97910D01*
X37667Y-97685D01*
X37667Y-97404D01*
X37723Y-97179D01*
X37780Y-97066D01*
X37836Y-97010D01*
X37948Y-96954D01*
X38848Y-98023D02*
X38904Y-98079D01*
X38848Y-98135D01*
X38792Y-98079D01*
X38848Y-98023D01*
X38848Y-98135D01*
X39636Y-96954D02*
X39748Y-96954D01*
X39861Y-97010D01*
X39917Y-97066D01*
X39973Y-97179D01*
X40029Y-97404D01*
X40029Y-97685D01*
X39973Y-97910D01*
X39917Y-98023D01*
X39861Y-98079D01*
X39748Y-98135D01*
X39636Y-98135D01*
X39523Y-98079D01*
X39467Y-98023D01*
X39411Y-97910D01*
X39354Y-97685D01*
X39354Y-97404D01*
X39411Y-97179D01*
X39467Y-97066D01*
X39523Y-97010D01*
X39636Y-96954D01*
X41042Y-97348D02*
X41042Y-98135D01*
X40760Y-96898D02*
X40479Y-97741D01*
X41210Y-97741D01*
X41885Y-96954D02*
X41998Y-96954D01*
X42110Y-97010D01*
X42167Y-97066D01*
X42223Y-97179D01*
X42279Y-97404D01*
X42279Y-97685D01*
X42223Y-97910D01*
X42167Y-98023D01*
X42110Y-98079D01*
X41998Y-98135D01*
X41885Y-98135D01*
X41773Y-98079D01*
X41717Y-98023D01*
X41660Y-97910D01*
X41604Y-97685D01*
X41604Y-97404D01*
X41660Y-97179D01*
X41717Y-97066D01*
X41773Y-97010D01*
X41885Y-96954D01*
X42729Y-96954D02*
X42729Y-97179D01*
X43179Y-96954D02*
X43179Y-97179D01*
X44922Y-98585D02*
X44866Y-98529D01*
X44754Y-98360D01*
X44697Y-98248D01*
X44641Y-98079D01*
X44585Y-97798D01*
X44585Y-97573D01*
X44641Y-97291D01*
X44697Y-97123D01*
X44754Y-97010D01*
X44866Y-96841D01*
X44922Y-96785D01*
X45991Y-98135D02*
X45316Y-98135D01*
X45654Y-98135D02*
X45654Y-96954D01*
X45541Y-97123D01*
X45429Y-97235D01*
X45316Y-97291D01*
X46722Y-96954D02*
X46835Y-96954D01*
X46947Y-97010D01*
X47003Y-97066D01*
X47060Y-97179D01*
X47116Y-97404D01*
X47116Y-97685D01*
X47060Y-97910D01*
X47003Y-98023D01*
X46947Y-98079D01*
X46835Y-98135D01*
X46722Y-98135D01*
X46610Y-98079D01*
X46553Y-98023D01*
X46497Y-97910D01*
X46441Y-97685D01*
X46441Y-97404D01*
X46497Y-97179D01*
X46553Y-97066D01*
X46610Y-97010D01*
X46722Y-96954D01*
X48522Y-98135D02*
X48522Y-96954D01*
X49028Y-98135D02*
X49028Y-97516D01*
X48972Y-97404D01*
X48859Y-97348D01*
X48691Y-97348D01*
X48578Y-97404D01*
X48522Y-97460D01*
X49759Y-98135D02*
X49647Y-98079D01*
X49591Y-98023D01*
X49534Y-97910D01*
X49534Y-97573D01*
X49591Y-97460D01*
X49647Y-97404D01*
X49759Y-97348D01*
X49928Y-97348D01*
X50041Y-97404D01*
X50097Y-97460D01*
X50153Y-97573D01*
X50153Y-97910D01*
X50097Y-98023D01*
X50041Y-98079D01*
X49928Y-98135D01*
X49759Y-98135D01*
X50828Y-98135D02*
X50715Y-98079D01*
X50659Y-97966D01*
X50659Y-96954D01*
X51728Y-98079D02*
X51615Y-98135D01*
X51390Y-98135D01*
X51278Y-98079D01*
X51222Y-97966D01*
X51222Y-97516D01*
X51278Y-97404D01*
X51390Y-97348D01*
X51615Y-97348D01*
X51728Y-97404D01*
X51784Y-97516D01*
X51784Y-97629D01*
X51222Y-97741D01*
X52234Y-98079D02*
X52347Y-98135D01*
X52571Y-98135D01*
X52684Y-98079D01*
X52740Y-97966D01*
X52740Y-97910D01*
X52684Y-97798D01*
X52571Y-97741D01*
X52403Y-97741D01*
X52290Y-97685D01*
X52234Y-97573D01*
X52234Y-97516D01*
X52290Y-97404D01*
X52403Y-97348D01*
X52571Y-97348D01*
X52684Y-97404D01*
X53134Y-98585D02*
X53190Y-98529D01*
X53303Y-98360D01*
X53359Y-98248D01*
X53415Y-98079D01*
X53471Y-97798D01*
X53471Y-97573D01*
X53415Y-97291D01*
X53359Y-97123D01*
X53303Y-97010D01*
X53190Y-96841D01*
X53134Y-96785D01*
X26081Y-98991D02*
X26531Y-99441D01*
X26531Y-98991D02*
X26081Y-99441D01*
G54D12*
X26531Y-99216D02*
G75*
G03X26531Y-99216I-225J0D01*
G74*
G01*
G54D13*
X28218Y-99694D02*
X27543Y-99694D01*
X27881Y-99694D02*
X27881Y-98513D01*
X27768Y-98682D01*
X27656Y-98794D01*
X27543Y-98850D01*
X28724Y-99582D02*
X28781Y-99638D01*
X28724Y-99694D01*
X28668Y-99638D01*
X28724Y-99582D01*
X28724Y-99694D01*
X29906Y-99694D02*
X29231Y-99694D01*
X29568Y-99694D02*
X29568Y-98513D01*
X29456Y-98682D01*
X29343Y-98794D01*
X29231Y-98850D01*
X30918Y-98907D02*
X30918Y-99694D01*
X30637Y-98457D02*
X30356Y-99300D01*
X31087Y-99300D01*
X31537Y-99694D02*
X31537Y-98907D01*
X31537Y-99019D02*
X31593Y-98963D01*
X31705Y-98907D01*
X31874Y-98907D01*
X31987Y-98963D01*
X32043Y-99075D01*
X32043Y-99694D01*
X32043Y-99075D02*
X32099Y-98963D01*
X32212Y-98907D01*
X32380Y-98907D01*
X32493Y-98963D01*
X32549Y-99075D01*
X32549Y-99694D01*
X33111Y-99694D02*
X33111Y-98907D01*
X33111Y-99019D02*
X33168Y-98963D01*
X33280Y-98907D01*
X33449Y-98907D01*
X33561Y-98963D01*
X33618Y-99075D01*
X33618Y-99694D01*
X33618Y-99075D02*
X33674Y-98963D01*
X33786Y-98907D01*
X33955Y-98907D01*
X34068Y-98963D01*
X34124Y-99075D01*
X34124Y-99694D01*
X36430Y-98457D02*
X35417Y-99975D01*
X37948Y-98513D02*
X38061Y-98513D01*
X38173Y-98569D01*
X38230Y-98625D01*
X38286Y-98738D01*
X38342Y-98963D01*
X38342Y-99244D01*
X38286Y-99469D01*
X38230Y-99582D01*
X38173Y-99638D01*
X38061Y-99694D01*
X37948Y-99694D01*
X37836Y-99638D01*
X37780Y-99582D01*
X37723Y-99469D01*
X37667Y-99244D01*
X37667Y-98963D01*
X37723Y-98738D01*
X37780Y-98625D01*
X37836Y-98569D01*
X37948Y-98513D01*
X38848Y-99582D02*
X38904Y-99638D01*
X38848Y-99694D01*
X38792Y-99638D01*
X38848Y-99582D01*
X38848Y-99694D01*
X39636Y-98513D02*
X39748Y-98513D01*
X39861Y-98569D01*
X39917Y-98625D01*
X39973Y-98738D01*
X40029Y-98963D01*
X40029Y-99244D01*
X39973Y-99469D01*
X39917Y-99582D01*
X39861Y-99638D01*
X39748Y-99694D01*
X39636Y-99694D01*
X39523Y-99638D01*
X39467Y-99582D01*
X39411Y-99469D01*
X39354Y-99244D01*
X39354Y-98963D01*
X39411Y-98738D01*
X39467Y-98625D01*
X39523Y-98569D01*
X39636Y-98513D01*
X41042Y-98907D02*
X41042Y-99694D01*
X40760Y-98457D02*
X40479Y-99300D01*
X41210Y-99300D01*
X42223Y-98513D02*
X41660Y-98513D01*
X41604Y-99075D01*
X41660Y-99019D01*
X41773Y-98963D01*
X42054Y-98963D01*
X42167Y-99019D01*
X42223Y-99075D01*
X42279Y-99188D01*
X42279Y-99469D01*
X42223Y-99582D01*
X42167Y-99638D01*
X42054Y-99694D01*
X41773Y-99694D01*
X41660Y-99638D01*
X41604Y-99582D01*
X42729Y-98513D02*
X42729Y-98738D01*
X43179Y-98513D02*
X43179Y-98738D01*
X44922Y-100144D02*
X44866Y-100088D01*
X44754Y-99919D01*
X44697Y-99807D01*
X44641Y-99638D01*
X44585Y-99357D01*
X44585Y-99132D01*
X44641Y-98850D01*
X44697Y-98682D01*
X44754Y-98569D01*
X44866Y-98401D01*
X44922Y-98344D01*
X45316Y-98625D02*
X45372Y-98569D01*
X45485Y-98513D01*
X45766Y-98513D01*
X45879Y-98569D01*
X45935Y-98625D01*
X45991Y-98738D01*
X45991Y-98850D01*
X45935Y-99019D01*
X45260Y-99694D01*
X45991Y-99694D01*
X46722Y-98513D02*
X46835Y-98513D01*
X46947Y-98569D01*
X47003Y-98625D01*
X47060Y-98738D01*
X47116Y-98963D01*
X47116Y-99244D01*
X47060Y-99469D01*
X47003Y-99582D01*
X46947Y-99638D01*
X46835Y-99694D01*
X46722Y-99694D01*
X46610Y-99638D01*
X46553Y-99582D01*
X46497Y-99469D01*
X46441Y-99244D01*
X46441Y-98963D01*
X46497Y-98738D01*
X46553Y-98625D01*
X46610Y-98569D01*
X46722Y-98513D01*
X48522Y-99694D02*
X48522Y-98513D01*
X49028Y-99694D02*
X49028Y-99075D01*
X48972Y-98963D01*
X48859Y-98907D01*
X48691Y-98907D01*
X48578Y-98963D01*
X48522Y-99019D01*
X49759Y-99694D02*
X49647Y-99638D01*
X49591Y-99582D01*
X49534Y-99469D01*
X49534Y-99132D01*
X49591Y-99019D01*
X49647Y-98963D01*
X49759Y-98907D01*
X49928Y-98907D01*
X50041Y-98963D01*
X50097Y-99019D01*
X50153Y-99132D01*
X50153Y-99469D01*
X50097Y-99582D01*
X50041Y-99638D01*
X49928Y-99694D01*
X49759Y-99694D01*
X50828Y-99694D02*
X50715Y-99638D01*
X50659Y-99525D01*
X50659Y-98513D01*
X51728Y-99638D02*
X51615Y-99694D01*
X51390Y-99694D01*
X51278Y-99638D01*
X51222Y-99525D01*
X51222Y-99075D01*
X51278Y-98963D01*
X51390Y-98907D01*
X51615Y-98907D01*
X51728Y-98963D01*
X51784Y-99075D01*
X51784Y-99188D01*
X51222Y-99300D01*
X52234Y-99638D02*
X52347Y-99694D01*
X52571Y-99694D01*
X52684Y-99638D01*
X52740Y-99525D01*
X52740Y-99469D01*
X52684Y-99357D01*
X52571Y-99300D01*
X52403Y-99300D01*
X52290Y-99244D01*
X52234Y-99132D01*
X52234Y-99075D01*
X52290Y-98963D01*
X52403Y-98907D01*
X52571Y-98907D01*
X52684Y-98963D01*
X53134Y-100144D02*
X53190Y-100088D01*
X53303Y-99919D01*
X53359Y-99807D01*
X53415Y-99638D01*
X53471Y-99357D01*
X53471Y-99132D01*
X53415Y-98850D01*
X53359Y-98682D01*
X53303Y-98569D01*
X53190Y-98401D01*
X53134Y-98344D01*
X26039Y-100529D02*
X26531Y-101021D01*
X26531Y-100529D02*
X26039Y-101021D01*
X26285Y-100529D02*
X26285Y-101021D01*
X26039Y-100775D02*
X26531Y-100775D01*
X28218Y-101253D02*
X27543Y-101253D01*
X27881Y-101253D02*
X27881Y-100072D01*
X27768Y-100241D01*
X27656Y-100353D01*
X27543Y-100410D01*
X28724Y-101141D02*
X28781Y-101197D01*
X28724Y-101253D01*
X28668Y-101197D01*
X28724Y-101141D01*
X28724Y-101253D01*
X29231Y-100185D02*
X29287Y-100128D01*
X29399Y-100072D01*
X29681Y-100072D01*
X29793Y-100128D01*
X29849Y-100185D01*
X29906Y-100297D01*
X29906Y-100410D01*
X29849Y-100578D01*
X29174Y-101253D01*
X29906Y-101253D01*
X30974Y-100072D02*
X30412Y-100072D01*
X30356Y-100634D01*
X30412Y-100578D01*
X30524Y-100522D01*
X30805Y-100522D01*
X30918Y-100578D01*
X30974Y-100634D01*
X31030Y-100747D01*
X31030Y-101028D01*
X30974Y-101141D01*
X30918Y-101197D01*
X30805Y-101253D01*
X30524Y-101253D01*
X30412Y-101197D01*
X30356Y-101141D01*
X31537Y-101253D02*
X31537Y-100466D01*
X31537Y-100578D02*
X31593Y-100522D01*
X31705Y-100466D01*
X31874Y-100466D01*
X31987Y-100522D01*
X32043Y-100634D01*
X32043Y-101253D01*
X32043Y-100634D02*
X32099Y-100522D01*
X32212Y-100466D01*
X32380Y-100466D01*
X32493Y-100522D01*
X32549Y-100634D01*
X32549Y-101253D01*
X33111Y-101253D02*
X33111Y-100466D01*
X33111Y-100578D02*
X33168Y-100522D01*
X33280Y-100466D01*
X33449Y-100466D01*
X33561Y-100522D01*
X33618Y-100634D01*
X33618Y-101253D01*
X33618Y-100634D02*
X33674Y-100522D01*
X33786Y-100466D01*
X33955Y-100466D01*
X34068Y-100522D01*
X34124Y-100634D01*
X34124Y-101253D01*
X36430Y-100016D02*
X35417Y-101534D01*
X37948Y-100072D02*
X38061Y-100072D01*
X38173Y-100128D01*
X38230Y-100185D01*
X38286Y-100297D01*
X38342Y-100522D01*
X38342Y-100803D01*
X38286Y-101028D01*
X38230Y-101141D01*
X38173Y-101197D01*
X38061Y-101253D01*
X37948Y-101253D01*
X37836Y-101197D01*
X37780Y-101141D01*
X37723Y-101028D01*
X37667Y-100803D01*
X37667Y-100522D01*
X37723Y-100297D01*
X37780Y-100185D01*
X37836Y-100128D01*
X37948Y-100072D01*
X38848Y-101141D02*
X38904Y-101197D01*
X38848Y-101253D01*
X38792Y-101197D01*
X38848Y-101141D01*
X38848Y-101253D01*
X39636Y-100072D02*
X39748Y-100072D01*
X39861Y-100128D01*
X39917Y-100185D01*
X39973Y-100297D01*
X40029Y-100522D01*
X40029Y-100803D01*
X39973Y-101028D01*
X39917Y-101141D01*
X39861Y-101197D01*
X39748Y-101253D01*
X39636Y-101253D01*
X39523Y-101197D01*
X39467Y-101141D01*
X39411Y-101028D01*
X39354Y-100803D01*
X39354Y-100522D01*
X39411Y-100297D01*
X39467Y-100185D01*
X39523Y-100128D01*
X39636Y-100072D01*
X41042Y-100466D02*
X41042Y-101253D01*
X40760Y-100016D02*
X40479Y-100859D01*
X41210Y-100859D01*
X41717Y-101253D02*
X41942Y-101253D01*
X42054Y-101197D01*
X42110Y-101141D01*
X42223Y-100972D01*
X42279Y-100747D01*
X42279Y-100297D01*
X42223Y-100185D01*
X42167Y-100128D01*
X42054Y-100072D01*
X41829Y-100072D01*
X41717Y-100128D01*
X41660Y-100185D01*
X41604Y-100297D01*
X41604Y-100578D01*
X41660Y-100691D01*
X41717Y-100747D01*
X41829Y-100803D01*
X42054Y-100803D01*
X42167Y-100747D01*
X42223Y-100691D01*
X42279Y-100578D01*
X42729Y-100072D02*
X42729Y-100297D01*
X43179Y-100072D02*
X43179Y-100297D01*
X44922Y-101703D02*
X44866Y-101647D01*
X44754Y-101478D01*
X44697Y-101366D01*
X44641Y-101197D01*
X44585Y-100916D01*
X44585Y-100691D01*
X44641Y-100410D01*
X44697Y-100241D01*
X44754Y-100128D01*
X44866Y-99960D01*
X44922Y-99903D01*
X45879Y-100466D02*
X45879Y-101253D01*
X45597Y-100016D02*
X45316Y-100859D01*
X46047Y-100859D01*
X47397Y-101253D02*
X47397Y-100072D01*
X47903Y-101253D02*
X47903Y-100634D01*
X47847Y-100522D01*
X47735Y-100466D01*
X47566Y-100466D01*
X47453Y-100522D01*
X47397Y-100578D01*
X48634Y-101253D02*
X48522Y-101197D01*
X48466Y-101141D01*
X48410Y-101028D01*
X48410Y-100691D01*
X48466Y-100578D01*
X48522Y-100522D01*
X48634Y-100466D01*
X48803Y-100466D01*
X48916Y-100522D01*
X48972Y-100578D01*
X49028Y-100691D01*
X49028Y-101028D01*
X48972Y-101141D01*
X48916Y-101197D01*
X48803Y-101253D01*
X48634Y-101253D01*
X49703Y-101253D02*
X49591Y-101197D01*
X49534Y-101084D01*
X49534Y-100072D01*
X50603Y-101197D02*
X50491Y-101253D01*
X50266Y-101253D01*
X50153Y-101197D01*
X50097Y-101084D01*
X50097Y-100634D01*
X50153Y-100522D01*
X50266Y-100466D01*
X50491Y-100466D01*
X50603Y-100522D01*
X50659Y-100634D01*
X50659Y-100747D01*
X50097Y-100859D01*
X51109Y-101197D02*
X51222Y-101253D01*
X51447Y-101253D01*
X51559Y-101197D01*
X51615Y-101084D01*
X51615Y-101028D01*
X51559Y-100916D01*
X51447Y-100859D01*
X51278Y-100859D01*
X51165Y-100803D01*
X51109Y-100691D01*
X51109Y-100634D01*
X51165Y-100522D01*
X51278Y-100466D01*
X51447Y-100466D01*
X51559Y-100522D01*
X52009Y-101703D02*
X52065Y-101647D01*
X52178Y-101478D01*
X52234Y-101366D01*
X52290Y-101197D01*
X52347Y-100916D01*
X52347Y-100691D01*
X52290Y-100410D01*
X52234Y-100241D01*
X52178Y-100128D01*
X52065Y-99960D01*
X52009Y-99903D01*
X25471Y-101804D02*
X26531Y-102864D01*
X26531Y-101804D02*
X25471Y-102864D01*
G54D12*
X26376Y-102709D02*
X26376Y-101959D01*
X25626Y-101959D01*
X25626Y-102709D01*
X26376Y-102709D01*
G54D13*
X27543Y-101744D02*
X27600Y-101687D01*
X27712Y-101631D01*
X27993Y-101631D01*
X28106Y-101687D01*
X28162Y-101744D01*
X28218Y-101856D01*
X28218Y-101969D01*
X28162Y-102137D01*
X27487Y-102812D01*
X28218Y-102812D01*
X28724Y-102700D02*
X28781Y-102756D01*
X28724Y-102812D01*
X28668Y-102756D01*
X28724Y-102700D01*
X28724Y-102812D01*
X29793Y-101631D02*
X29568Y-101631D01*
X29456Y-101687D01*
X29399Y-101744D01*
X29287Y-101912D01*
X29231Y-102137D01*
X29231Y-102587D01*
X29287Y-102700D01*
X29343Y-102756D01*
X29456Y-102812D01*
X29681Y-102812D01*
X29793Y-102756D01*
X29849Y-102700D01*
X29906Y-102587D01*
X29906Y-102306D01*
X29849Y-102194D01*
X29793Y-102137D01*
X29681Y-102081D01*
X29456Y-102081D01*
X29343Y-102137D01*
X29287Y-102194D01*
X29231Y-102306D01*
X30468Y-102812D02*
X30693Y-102812D01*
X30805Y-102756D01*
X30862Y-102700D01*
X30974Y-102531D01*
X31030Y-102306D01*
X31030Y-101856D01*
X30974Y-101744D01*
X30918Y-101687D01*
X30805Y-101631D01*
X30580Y-101631D01*
X30468Y-101687D01*
X30412Y-101744D01*
X30356Y-101856D01*
X30356Y-102137D01*
X30412Y-102250D01*
X30468Y-102306D01*
X30580Y-102362D01*
X30805Y-102362D01*
X30918Y-102306D01*
X30974Y-102250D01*
X31030Y-102137D01*
X31537Y-102812D02*
X31537Y-102025D01*
X31537Y-102137D02*
X31593Y-102081D01*
X31705Y-102025D01*
X31874Y-102025D01*
X31987Y-102081D01*
X32043Y-102194D01*
X32043Y-102812D01*
X32043Y-102194D02*
X32099Y-102081D01*
X32212Y-102025D01*
X32380Y-102025D01*
X32493Y-102081D01*
X32549Y-102194D01*
X32549Y-102812D01*
X33111Y-102812D02*
X33111Y-102025D01*
X33111Y-102137D02*
X33168Y-102081D01*
X33280Y-102025D01*
X33449Y-102025D01*
X33561Y-102081D01*
X33618Y-102194D01*
X33618Y-102812D01*
X33618Y-102194D02*
X33674Y-102081D01*
X33786Y-102025D01*
X33955Y-102025D01*
X34068Y-102081D01*
X34124Y-102194D01*
X34124Y-102812D01*
X36430Y-101575D02*
X35417Y-103093D01*
X37948Y-101631D02*
X38061Y-101631D01*
X38173Y-101687D01*
X38230Y-101744D01*
X38286Y-101856D01*
X38342Y-102081D01*
X38342Y-102362D01*
X38286Y-102587D01*
X38230Y-102700D01*
X38173Y-102756D01*
X38061Y-102812D01*
X37948Y-102812D01*
X37836Y-102756D01*
X37780Y-102700D01*
X37723Y-102587D01*
X37667Y-102362D01*
X37667Y-102081D01*
X37723Y-101856D01*
X37780Y-101744D01*
X37836Y-101687D01*
X37948Y-101631D01*
X38848Y-102700D02*
X38904Y-102756D01*
X38848Y-102812D01*
X38792Y-102756D01*
X38848Y-102700D01*
X38848Y-102812D01*
X40029Y-102812D02*
X39354Y-102812D01*
X39692Y-102812D02*
X39692Y-101631D01*
X39579Y-101800D01*
X39467Y-101912D01*
X39354Y-101969D01*
X40760Y-101631D02*
X40873Y-101631D01*
X40985Y-101687D01*
X41042Y-101744D01*
X41098Y-101856D01*
X41154Y-102081D01*
X41154Y-102362D01*
X41098Y-102587D01*
X41042Y-102700D01*
X40985Y-102756D01*
X40873Y-102812D01*
X40760Y-102812D01*
X40648Y-102756D01*
X40592Y-102700D01*
X40535Y-102587D01*
X40479Y-102362D01*
X40479Y-102081D01*
X40535Y-101856D01*
X40592Y-101744D01*
X40648Y-101687D01*
X40760Y-101631D01*
X42167Y-101631D02*
X41942Y-101631D01*
X41829Y-101687D01*
X41773Y-101744D01*
X41660Y-101912D01*
X41604Y-102137D01*
X41604Y-102587D01*
X41660Y-102700D01*
X41717Y-102756D01*
X41829Y-102812D01*
X42054Y-102812D01*
X42167Y-102756D01*
X42223Y-102700D01*
X42279Y-102587D01*
X42279Y-102306D01*
X42223Y-102194D01*
X42167Y-102137D01*
X42054Y-102081D01*
X41829Y-102081D01*
X41717Y-102137D01*
X41660Y-102194D01*
X41604Y-102306D01*
X42729Y-101631D02*
X42729Y-101856D01*
X43179Y-101631D02*
X43179Y-101856D01*
X44922Y-103262D02*
X44866Y-103206D01*
X44754Y-103037D01*
X44697Y-102925D01*
X44641Y-102756D01*
X44585Y-102475D01*
X44585Y-102250D01*
X44641Y-101969D01*
X44697Y-101800D01*
X44754Y-101687D01*
X44866Y-101519D01*
X44922Y-101462D01*
X45879Y-102025D02*
X45879Y-102812D01*
X45597Y-101575D02*
X45316Y-102419D01*
X46047Y-102419D01*
X47397Y-102812D02*
X47397Y-101631D01*
X47903Y-102812D02*
X47903Y-102194D01*
X47847Y-102081D01*
X47735Y-102025D01*
X47566Y-102025D01*
X47453Y-102081D01*
X47397Y-102137D01*
X48634Y-102812D02*
X48522Y-102756D01*
X48466Y-102700D01*
X48410Y-102587D01*
X48410Y-102250D01*
X48466Y-102137D01*
X48522Y-102081D01*
X48634Y-102025D01*
X48803Y-102025D01*
X48916Y-102081D01*
X48972Y-102137D01*
X49028Y-102250D01*
X49028Y-102587D01*
X48972Y-102700D01*
X48916Y-102756D01*
X48803Y-102812D01*
X48634Y-102812D01*
X49703Y-102812D02*
X49591Y-102756D01*
X49534Y-102643D01*
X49534Y-101631D01*
X50603Y-102756D02*
X50491Y-102812D01*
X50266Y-102812D01*
X50153Y-102756D01*
X50097Y-102643D01*
X50097Y-102194D01*
X50153Y-102081D01*
X50266Y-102025D01*
X50491Y-102025D01*
X50603Y-102081D01*
X50659Y-102194D01*
X50659Y-102306D01*
X50097Y-102419D01*
X51109Y-102756D02*
X51222Y-102812D01*
X51447Y-102812D01*
X51559Y-102756D01*
X51615Y-102643D01*
X51615Y-102587D01*
X51559Y-102475D01*
X51447Y-102419D01*
X51278Y-102419D01*
X51165Y-102362D01*
X51109Y-102250D01*
X51109Y-102194D01*
X51165Y-102081D01*
X51278Y-102025D01*
X51447Y-102025D01*
X51559Y-102081D01*
X52009Y-103262D02*
X52065Y-103206D01*
X52178Y-103037D01*
X52234Y-102925D01*
X52290Y-102756D01*
X52347Y-102475D01*
X52347Y-102250D01*
X52290Y-101969D01*
X52234Y-101800D01*
X52178Y-101687D01*
X52065Y-101519D01*
X52009Y-101462D01*
X24956Y-103119D02*
X26531Y-104693D01*
X26531Y-103119D02*
X24956Y-104693D01*
G54D12*
X25744Y-104693D02*
X26531Y-103906D01*
X25744Y-103119D01*
X24956Y-103906D01*
X25744Y-104693D01*
G54D13*
X28106Y-103597D02*
X28106Y-104384D01*
X27825Y-103147D02*
X27543Y-103990D01*
X28275Y-103990D01*
X28724Y-104272D02*
X28781Y-104328D01*
X28724Y-104384D01*
X28668Y-104328D01*
X28724Y-104272D01*
X28724Y-104384D01*
X29512Y-103203D02*
X29624Y-103203D01*
X29737Y-103259D01*
X29793Y-103315D01*
X29849Y-103428D01*
X29906Y-103653D01*
X29906Y-103934D01*
X29849Y-104159D01*
X29793Y-104272D01*
X29737Y-104328D01*
X29624Y-104384D01*
X29512Y-104384D01*
X29399Y-104328D01*
X29343Y-104272D01*
X29287Y-104159D01*
X29231Y-103934D01*
X29231Y-103653D01*
X29287Y-103428D01*
X29343Y-103315D01*
X29399Y-103259D01*
X29512Y-103203D01*
X30637Y-103203D02*
X30749Y-103203D01*
X30862Y-103259D01*
X30918Y-103315D01*
X30974Y-103428D01*
X31030Y-103653D01*
X31030Y-103934D01*
X30974Y-104159D01*
X30918Y-104272D01*
X30862Y-104328D01*
X30749Y-104384D01*
X30637Y-104384D01*
X30524Y-104328D01*
X30468Y-104272D01*
X30412Y-104159D01*
X30356Y-103934D01*
X30356Y-103653D01*
X30412Y-103428D01*
X30468Y-103315D01*
X30524Y-103259D01*
X30637Y-103203D01*
X31537Y-104384D02*
X31537Y-103597D01*
X31537Y-103709D02*
X31593Y-103653D01*
X31705Y-103597D01*
X31874Y-103597D01*
X31987Y-103653D01*
X32043Y-103765D01*
X32043Y-104384D01*
X32043Y-103765D02*
X32099Y-103653D01*
X32212Y-103597D01*
X32380Y-103597D01*
X32493Y-103653D01*
X32549Y-103765D01*
X32549Y-104384D01*
X33111Y-104384D02*
X33111Y-103597D01*
X33111Y-103709D02*
X33168Y-103653D01*
X33280Y-103597D01*
X33449Y-103597D01*
X33561Y-103653D01*
X33618Y-103765D01*
X33618Y-104384D01*
X33618Y-103765D02*
X33674Y-103653D01*
X33786Y-103597D01*
X33955Y-103597D01*
X34068Y-103653D01*
X34124Y-103765D01*
X34124Y-104384D01*
X36430Y-103147D02*
X35417Y-104665D01*
X37948Y-103203D02*
X38061Y-103203D01*
X38173Y-103259D01*
X38230Y-103315D01*
X38286Y-103428D01*
X38342Y-103653D01*
X38342Y-103934D01*
X38286Y-104159D01*
X38230Y-104272D01*
X38173Y-104328D01*
X38061Y-104384D01*
X37948Y-104384D01*
X37836Y-104328D01*
X37780Y-104272D01*
X37723Y-104159D01*
X37667Y-103934D01*
X37667Y-103653D01*
X37723Y-103428D01*
X37780Y-103315D01*
X37836Y-103259D01*
X37948Y-103203D01*
X38848Y-104272D02*
X38904Y-104328D01*
X38848Y-104384D01*
X38792Y-104328D01*
X38848Y-104272D01*
X38848Y-104384D01*
X40029Y-104384D02*
X39354Y-104384D01*
X39692Y-104384D02*
X39692Y-103203D01*
X39579Y-103372D01*
X39467Y-103484D01*
X39354Y-103540D01*
X41098Y-103203D02*
X40535Y-103203D01*
X40479Y-103765D01*
X40535Y-103709D01*
X40648Y-103653D01*
X40929Y-103653D01*
X41042Y-103709D01*
X41098Y-103765D01*
X41154Y-103878D01*
X41154Y-104159D01*
X41098Y-104272D01*
X41042Y-104328D01*
X40929Y-104384D01*
X40648Y-104384D01*
X40535Y-104328D01*
X40479Y-104272D01*
X41548Y-103203D02*
X42335Y-103203D01*
X41829Y-104384D01*
X42729Y-103203D02*
X42729Y-103428D01*
X43179Y-103203D02*
X43179Y-103428D01*
X44922Y-104834D02*
X44866Y-104778D01*
X44754Y-104609D01*
X44697Y-104497D01*
X44641Y-104328D01*
X44585Y-104047D01*
X44585Y-103822D01*
X44641Y-103540D01*
X44697Y-103372D01*
X44754Y-103259D01*
X44866Y-103090D01*
X44922Y-103034D01*
X45879Y-103597D02*
X45879Y-104384D01*
X45597Y-103147D02*
X45316Y-103990D01*
X46047Y-103990D01*
X47397Y-104384D02*
X47397Y-103203D01*
X47903Y-104384D02*
X47903Y-103765D01*
X47847Y-103653D01*
X47735Y-103597D01*
X47566Y-103597D01*
X47453Y-103653D01*
X47397Y-103709D01*
X48634Y-104384D02*
X48522Y-104328D01*
X48466Y-104272D01*
X48410Y-104159D01*
X48410Y-103822D01*
X48466Y-103709D01*
X48522Y-103653D01*
X48634Y-103597D01*
X48803Y-103597D01*
X48916Y-103653D01*
X48972Y-103709D01*
X49028Y-103822D01*
X49028Y-104159D01*
X48972Y-104272D01*
X48916Y-104328D01*
X48803Y-104384D01*
X48634Y-104384D01*
X49703Y-104384D02*
X49591Y-104328D01*
X49534Y-104215D01*
X49534Y-103203D01*
X50603Y-104328D02*
X50491Y-104384D01*
X50266Y-104384D01*
X50153Y-104328D01*
X50097Y-104215D01*
X50097Y-103765D01*
X50153Y-103653D01*
X50266Y-103597D01*
X50491Y-103597D01*
X50603Y-103653D01*
X50659Y-103765D01*
X50659Y-103878D01*
X50097Y-103990D01*
X51109Y-104328D02*
X51222Y-104384D01*
X51447Y-104384D01*
X51559Y-104328D01*
X51615Y-104215D01*
X51615Y-104159D01*
X51559Y-104047D01*
X51447Y-103990D01*
X51278Y-103990D01*
X51165Y-103934D01*
X51109Y-103822D01*
X51109Y-103765D01*
X51165Y-103653D01*
X51278Y-103597D01*
X51447Y-103597D01*
X51559Y-103653D01*
X52009Y-104834D02*
X52065Y-104778D01*
X52178Y-104609D01*
X52234Y-104497D01*
X52290Y-104328D01*
X52347Y-104047D01*
X52347Y-103822D01*
X52290Y-103540D01*
X52234Y-103372D01*
X52178Y-103259D01*
X52065Y-103090D01*
X52009Y-103034D01*
M02*
